<?xml version="1.0" encoding="utf-8"?>
<!-- Generator: Adobe Illustrator 25.0.0, SVG Export Plug-In . SVG Version: 6.00 Build 0)  -->
<svg version="1.1" xmlns="http://www.w3.org/2000/svg" xmlns:xlink="http://www.w3.org/1999/xlink" x="0px" y="0px"
	 viewBox="0 0 347 213" style="enable-background:new 0 0 347 213;" xml:space="preserve">
<style type="text/css">
	.st0{fill:#FF3600;}
	.st1{fill:#F1DAAE;}
	.st2{opacity:0.3;fill:#D06546;}
	.st3{clip-path:url(#SVGID_1_);fill:#04382B;}
	.st4{clip-path:url(#SVGID_1_);fill:#FA003C;}
	.st5{clip-path:url(#SVGID_1_);fill:#FDECE9;}
</style>
<g id="Capa_1">
	<path class="st0" d="M242.3,206.1c-1.5,4.3-5.6,7.3-10.4,7.3c-4.8,0-8.8-3-10.4-7.3c-1.5,4.3-5.6,7.3-10.4,7.3
		c-4.8,0-8.9-3-10.4-7.3c-1.5,4.3-5.6,7.3-10.4,7.3c-4.8,0-8.9-3-10.4-7.3c-1.5,4.3-5.6,7.3-10.4,7.3c-4.8,0-8.8-3-10.4-7.3
		c-1.5,4.3-5.6,7.3-10.4,7.3c-4.8,0-8.9-3-10.4-7.3c-1.5,4.3-5.6,7.3-10.4,7.3c-4.8,0-8.9-3-10.4-7.3c-1.5,4.3-5.6,7.3-10.4,7.3
		c-4.8,0-8.9-3-10.4-7.3c-1.5,4.3-5.6,7.3-10.4,7.3c-4.9,0-9.1-3.2-10.5-7.7c-1.9,4.6-6.8,7.5-12,6.7c-5.3-0.9-9.1-5.3-9.3-10.5
		c-3.2,4-8.9,5.4-13.7,2.9c-4.8-2.5-7-7.9-5.5-12.8c-4.3,2.8-10.2,2.3-13.9-1.5c-3.7-3.8-4.1-9.7-1.2-13.9c-5,1.3-10.4-1-12.7-5.8
		c-2.4-4.8-0.9-10.5,3.2-13.6c-5.1-0.3-9.5-4.2-10.3-9.5c-0.7-5.3,2.4-10.2,7.3-11.9c-4.8-1.9-7.8-6.9-6.8-12.2
		c1-5.3,5.5-9,10.6-9.1c-4-3.3-5.2-9-2.6-13.7c2.6-4.7,8-6.8,12.9-5.3c-2.7-4.4-2.1-10.2,1.8-13.9c3.9-3.7,9.7-4,14-1
		c-1.2-5,1.2-10.3,6-12.6c4.9-2.3,10.5-0.7,13.6,3.4c0.4-5.1,4.4-9.5,9.7-10.1c5.1-0.6,9.9,2.4,11.6,6.9c1.5-4.4,5.6-7.5,10.5-7.5
		c4.8,0,8.9,3,10.4,7.3c1.5-4.2,5.6-7.3,10.4-7.3c4.8,0,8.9,3,10.4,7.3c1.5-4.2,5.6-7.3,10.4-7.3c4.8,0,8.8,3,10.4,7.3
		c1.5-4.2,5.6-7.3,10.4-7.3c4.8,0,8.9,3,10.4,7.3c1.5-4.2,5.6-7.3,10.4-7.3c4.8,0,8.9,3,10.4,7.3c1.5-4.2,5.6-7.3,10.4-7.3
		s8.9,3,10.4,7.3c1.5-4.2,5.6-7.3,10.4-7.3c4.8,0,8.9,3,10.4,7.3c1.5-4.2,5.6-7.3,10.4-7.3c4.8,0,8.8,3,10.4,7.3
		c1.5-4.2,5.6-7.3,10.4-7.3c0.2,0,0.3,0,0.5,0c0.1,0,0.2,0,0.3,0v0c5.2,0.2,9.5,4,10.4,9c2.5-4.4,7.9-6.6,12.9-5
		c5.1,1.6,8.2,6.6,7.7,11.7c3.8-3.5,9.7-4,14-0.8c4.4,3.2,5.7,8.9,3.5,13.6c4.8-2.1,10.5-0.6,13.5,3.9c3,4.4,2.4,10.3-1.2,14
		c5.1-0.4,10,2.8,11.5,7.9c1.5,5.1-0.9,10.4-5.5,12.8c5,1.1,8.7,5.7,8.6,11c-0.1,5.3-4,9.7-9,10.6c4.4,2.6,6.6,8,4.9,13
		c-1.7,5.1-6.7,8.1-11.8,7.5c3.5,3.8,3.8,9.7,0.6,14c-3.2,4.3-9,5.5-13.7,3.2c2,4.8,0.4,10.5-4.1,13.5c-4.5,2.9-10.3,2.2-13.9-1.5
		c0.3,5.1-3,9.9-8.1,11.3c-5.1,1.4-10.3-1-12.7-5.5c-1.1,4.9-5.5,8.6-10.8,8.6C247.9,213.3,243.9,210.3,242.3,206.1z"/>
	<path class="st1" d="M76.2,195.4c-32.3,0-58.5-26.2-58.5-58.5s26.2-58.5,58.5-58.5h178.9c18.2,0.7,33.3,7.3,43.8,19.1
		c9.4,10.5,14.5,24.5,14.5,39.4c0,14.9-5.2,28.9-14.5,39.4c-10.5,11.7-25.6,18.3-43.8,19.1H76.2z"/>
	<path class="st2" d="M297.4,148.7h-4.7V96.6c0-1.3-0.2-2.6-0.5-3.9L288.4,78c-44-0.2-87.9-0.6-131.9-1
		c-38.4-0.3-76.8-0.7-115.2-0.9v72.6h-6.1c-2.2,0-3.9,1.8-3.9,3.9v7c0,2.2,1.8,3.9,3.9,3.9h24c1.3,5.4,4,10.5,8.2,14.6
		c12.1,12.2,31.8,12.2,43.9,0c4.2-4.2,6.9-9.3,8.2-14.6H224c2.7,11,11.3,20.2,23.1,23c16.6,3.9,33.2-6.4,37.3-23h13
		c2.2,0,3.9-1.8,3.9-3.9v-7C301.3,150.5,299.5,148.7,297.4,148.7z"/>
	<g>
		<defs>
			<rect id="SVGID_3_" x="35.3" y="0.6" width="316" height="181"/>
		</defs>
		<clipPath id="SVGID_1_">
			<use xlink:href="#SVGID_3_"  style="overflow:visible;"/>
		</clipPath>
		<path class="st3" d="M50.2,10.8h151.6c2.8,0,5.1,2.3,5.1,5.1v135.7H45.1V16C45.1,13.1,47.4,10.8,50.2,10.8z"/>
		<path class="st4" d="M215.4,26h48.1c7,0,13.1,4.8,14.8,11.5l13,51.2c0.3,1.2,0.5,2.5,0.5,3.8v56.1H207V34.5
			C207,29.8,210.8,26,215.4,26z"/>
		<path class="st3" d="M296.4,158.2H39.2c-2.1,0-3.8-1.7-3.8-3.8v-6.8c0-2.1,1.7-3.8,3.8-3.8h257.3c2.1,0,3.8,1.7,3.8,3.8v6.8
			C300.2,156.5,298.5,158.2,296.4,158.2z"/>
		<path class="st3" d="M113.9,172.6c11.9-11.9,11.9-31.3,0-43.2c-11.9-11.9-31.2-11.9-43.1,0c-11.9,11.9-11.9,31.3,0,43.2
			C82.7,184.5,102,184.5,113.9,172.6z"/>
		<path class="st5" d="M104.4,163c6.6-6.6,6.6-17.4,0-24.1c-6.6-6.6-17.4-6.6-24,0c-6.6,6.6-6.6,17.4,0,24.1
			C87,169.7,97.7,169.7,104.4,163z"/>
		<path class="st3" d="M283.7,158c3.8-16.4-6.3-32.9-22.7-36.8c-16.4-3.9-32.8,6.4-36.6,22.8c-3.8,16.4,6.3,32.9,22.7,36.8
			C263.5,184.6,279.9,174.4,283.7,158z"/>
		<path class="st5" d="M270.6,154.9c2.1-9.2-3.5-18.3-12.6-20.5c-9.1-2.2-18.3,3.5-20.4,12.7c-2.1,9.2,3.5,18.3,12.6,20.5
			C259.3,169.7,268.4,164,270.6,154.9z"/>
		<path class="st5" d="M223.6,83.8h37.3c2.9,0,5.2-2.3,5.2-5.2V41.1c0-2.9-2.3-5.2-5.2-5.2h-37.3c-2.9,0-5.2,2.3-5.2,5.2v37.4
			C218.4,81.4,220.8,83.8,223.6,83.8z"/>
		<path class="st5" d="M289.1,95.8c0-1-0.5-2.2-1.2-2.9c-0.2-0.2-0.4-0.4-0.7-0.5c-0.1-0.1-0.2-0.1-0.2-0.2c-0.6-0.4-1.3-0.7-2-0.6
			c-0.9,0-1.6,0.3-2.2,0.9c-1.1,0.7-1.8,1.9-1.8,3.4c0,3.1,0,6.1,0,9.2c0,1.1,0.5,2.2,1.2,2.9c0.7,0.7,1.9,1.3,2.9,1.2
			c2.2-0.1,4.1-1.8,4.1-4.1C289.2,101.9,289.2,98.8,289.1,95.8z"/>
	</g>
</g>
<g id="OBJECTS">
</g>
</svg>
