<?xml version="1.0" encoding="utf-8"?>
<!-- Generator: Adobe Illustrator 25.0.0, SVG Export Plug-In . SVG Version: 6.00 Build 0)  -->
<svg version="1.1" id="Capa_1" xmlns="http://www.w3.org/2000/svg" xmlns:xlink="http://www.w3.org/1999/xlink" x="0px" y="0px"
	 viewBox="0 0 347 213" style="enable-background:new 0 0 347 213;" xml:space="preserve">
<style type="text/css">
	.st0{fill:#FF3600;}
	.st1{fill:#F1DAAE;}
	.st2{clip-path:url(#SVGID_1_);}
	.st3{fill:#04382B;}
	.st4{fill:#FA003C;}
	.st5{fill:#FDECE9;}
</style>
<g>
	<path class="st0" d="M242,205.6c-1.5,4.3-5.6,7.3-10.4,7.3c-4.8,0-8.8-3-10.4-7.3c-1.5,4.3-5.6,7.3-10.4,7.3c-4.8,0-8.9-3-10.4-7.3
		c-1.5,4.3-5.6,7.3-10.4,7.3c-4.8,0-8.9-3-10.4-7.3c-1.5,4.3-5.6,7.3-10.4,7.3c-4.8,0-8.8-3-10.4-7.3c-1.5,4.3-5.6,7.3-10.4,7.3
		c-4.8,0-8.9-3-10.4-7.3c-1.5,4.3-5.6,7.3-10.4,7.3c-4.8,0-8.9-3-10.4-7.3c-1.5,4.3-5.6,7.3-10.4,7.3c-4.8,0-8.9-3-10.4-7.3
		c-1.5,4.3-5.6,7.3-10.4,7.3c-4.9,0-9.1-3.2-10.5-7.7c-1.9,4.6-6.8,7.5-12,6.7c-5.3-0.9-9.1-5.3-9.3-10.5c-3.2,4-8.9,5.4-13.7,2.9
		c-4.8-2.5-7-7.9-5.5-12.8c-4.3,2.8-10.2,2.3-13.9-1.5c-3.7-3.8-4.1-9.7-1.2-13.9c-5,1.3-10.4-1-12.7-5.8
		c-2.4-4.8-0.9-10.5,3.2-13.6c-5.1-0.3-9.5-4.2-10.3-9.5c-0.7-5.3,2.4-10.2,7.3-11.9c-4.8-1.9-7.8-6.9-6.8-12.2
		c1-5.3,5.5-9,10.6-9.1c-4-3.3-5.2-9-2.6-13.7c2.6-4.7,8-6.8,12.9-5.3c-2.7-4.4-2.1-10.2,1.8-13.9c3.9-3.7,9.7-4,14-1
		c-1.2-5,1.2-10.3,6-12.6c4.9-2.3,10.5-0.7,13.6,3.4c0.4-5.1,4.4-9.5,9.7-10.1c5.1-0.6,9.9,2.4,11.6,6.9c1.5-4.4,5.6-7.5,10.5-7.5
		c4.8,0,8.9,3,10.4,7.3c1.5-4.2,5.6-7.3,10.4-7.3c4.8,0,8.9,3,10.4,7.3c1.5-4.2,5.6-7.3,10.4-7.3c4.8,0,8.8,3,10.4,7.3
		c1.5-4.2,5.6-7.3,10.4-7.3c4.8,0,8.9,3,10.4,7.3c1.5-4.2,5.6-7.3,10.4-7.3c4.8,0,8.9,3,10.4,7.3c1.5-4.2,5.6-7.3,10.4-7.3
		s8.9,3,10.4,7.3c1.5-4.2,5.6-7.3,10.4-7.3c4.8,0,8.9,3,10.4,7.3c1.5-4.2,5.6-7.3,10.4-7.3c4.8,0,8.8,3,10.4,7.3
		c1.5-4.2,5.6-7.3,10.4-7.3c0.2,0,0.3,0,0.5,0c0.1,0,0.2,0,0.3,0v0c5.2,0.2,9.5,4,10.4,9c2.5-4.4,7.9-6.6,12.9-5
		c5.1,1.6,8.2,6.6,7.7,11.7c3.8-3.5,9.7-4,14-0.8c4.4,3.2,5.7,8.9,3.5,13.6c4.8-2.1,10.5-0.6,13.5,3.9c3,4.4,2.4,10.3-1.2,14
		c5.1-0.4,10,2.8,11.5,7.9c1.5,5.1-0.9,10.4-5.5,12.8c5,1.1,8.7,5.7,8.6,11c-0.1,5.3-4,9.7-9,10.6c4.4,2.6,6.6,8,4.9,13
		c-1.7,5.1-6.7,8.1-11.8,7.5c3.5,3.8,3.8,9.7,0.6,14c-3.2,4.3-9,5.5-13.7,3.2c2,4.8,0.4,10.5-4.1,13.5c-4.5,2.9-10.3,2.2-13.9-1.5
		c0.3,5.1-3,9.9-8.1,11.3c-5.1,1.4-10.3-1-12.7-5.5c-1.1,4.9-5.5,8.6-10.8,8.6C247.6,212.9,243.5,209.9,242,205.6z"/>
	<path class="st1" d="M75.9,195c-32.3,0-58.5-26.2-58.5-58.5S43.6,78,75.9,78h178.9c18.2,0.7,33.3,7.3,43.8,19.1
		c9.4,10.5,14.5,24.5,14.5,39.4c0,14.9-5.2,28.9-14.5,39.4c-10.5,11.7-25.6,18.3-43.8,19.1H75.9z"/>
	<g>
		<defs>
			<rect id="SVGID_3_" x="31" y="0.1" width="316" height="181"/>
		</defs>
		<clipPath id="SVGID_1_">
			<use xlink:href="#SVGID_3_"  style="overflow:visible;"/>
		</clipPath>
		<g class="st2">
			<path class="st3" d="M45.9,10.4h151.6c2.8,0,5.1,2.3,5.1,5.1v127.8H40.8V15.5C40.8,12.7,43.1,10.4,45.9,10.4z"/>
			<path class="st4" d="M211.1,25.6h48.1c7,0,13.1,4.8,14.8,11.5l13,51.2c0.3,1.2,0.5,2.5,0.5,3.8v56.1h-84.8V34
				C202.7,29.4,206.4,25.6,211.1,25.6z"/>
			<path class="st3" d="M292.1,157.8H34.8c-2.1,0-3.8-1.7-3.8-3.8v-6.8c0-2.1,1.7-3.8,3.8-3.8h257.3c2.1,0,3.8,1.7,3.8,3.8v6.8
				C295.9,156.1,294.2,157.8,292.1,157.8z"/>
			<path class="st3" d="M109.6,172.1c11.9-11.9,11.9-31.3,0-43.2c-11.9-11.9-31.2-11.9-43.1,0c-11.9,11.9-11.9,31.3,0,43.2
				C78.4,184.1,97.7,184.1,109.6,172.1z"/>
			<path class="st5" d="M100,162.6c6.6-6.6,6.6-17.4,0-24.1c-6.6-6.6-17.4-6.6-24,0c-6.6,6.6-6.6,17.4,0,24.1
				C82.7,169.2,93.4,169.2,100,162.6z"/>
			<path class="st3" d="M279.4,157.5c3.8-16.4-6.3-32.9-22.7-36.8c-16.4-3.9-32.8,6.4-36.6,22.8c-3.8,16.4,6.3,32.9,22.7,36.8
				C259.2,184.2,275.5,174,279.4,157.5z"/>
			<path class="st5" d="M266.2,154.4c2.1-9.2-3.5-18.3-12.6-20.5c-9.1-2.2-18.3,3.5-20.4,12.7c-2.1,9.2,3.5,18.3,12.6,20.5
				C255,169.2,264.1,163.6,266.2,154.4z"/>
			<path class="st5" d="M219.3,83.3h37.3c2.9,0,5.2-2.3,5.2-5.2V40.7c0-2.9-2.3-5.2-5.2-5.2h-37.3c-2.9,0-5.2,2.3-5.2,5.2v37.4
				C214.1,81,216.4,83.3,219.3,83.3z"/>
			<path class="st5" d="M284.8,95.3c0-1-0.5-2.2-1.2-2.9c-0.2-0.2-0.4-0.4-0.7-0.5c-0.1-0.1-0.2-0.1-0.2-0.2c-0.6-0.4-1.3-0.7-2-0.6
				c-0.9,0-1.6,0.3-2.2,0.9c-1.1,0.7-1.8,1.9-1.8,3.4c0,3.1,0,6.1,0,9.2c0,1.1,0.5,2.2,1.2,2.9c0.7,0.7,1.9,1.3,2.9,1.2
				c2.2-0.1,4.1-1.8,4.1-4.1C284.9,101.4,284.8,98.4,284.8,95.3z"/>
			<path class="st5" d="M128.7,106.4l-23.3-11.5c-0.8-0.4-1.3-1.2-1.3-2V58.7c0-1.7,1.7-2.8,3.2-2l23.3,11.5c0.8,0.4,1.3,1.2,1.3,2
				v34.2C131.9,106,130.2,107.1,128.7,106.4z"/>
			<path class="st5" d="M141.7,106.4L165,94.9c0.8-0.4,1.3-1.2,1.3-2V58.7c0-1.7-1.7-2.8-3.2-2l-23.3,11.5c-0.8,0.4-1.3,1.2-1.3,2
				v34.2C138.5,106,140.2,107.1,141.7,106.4z"/>
			<path class="st5" d="M134.2,38.6l-22.7,11.2c-1.7,0.8-1.7,3.2,0,4L134.2,65c0.6,0.3,1.4,0.3,2,0l22.7-11.2c1.7-0.8,1.7-3.2,0-4
				l-22.7-11.2C135.6,38.3,134.9,38.3,134.2,38.6z"/>
			<path class="st5" d="M120.5,107.4c-5.6,0-11.3,0-16.9,0c-0.6,0-0.9,0.5-0.9,1c0,0.5,0.3,1,0.9,1c5.6,0,11.3,0,16.9,0
				C121.8,109.4,121.8,107.4,120.5,107.4z"/>
			<path class="st5" d="M102.8,98c-10.1,0-20.3,0-30.4,0c-1.4,0-1.4,2.1,0,2.1c10.1,0,20.3,0,30.4,0C104.2,100.2,104.2,98,102.8,98z
				"/>
			<path class="st5" d="M95.8,84.3h-0.7c-4.4,0-8.8,0-13.2,0c-0.7,0-1,0.5-1,1c0,0.5,0.3,1,1,1c4.4,0,8.8,0,13.2,0
				c0.2,0,0.5,0,0.7,0c0.7,0,1-0.5,1-1C96.8,84.8,96.4,84.3,95.8,84.3z"/>
			<path class="st5" d="M96.3,66.5c-9.2,0-18.5,0.1-27.7,0.2c-1.2,0-1.2,1.9,0,1.9c9.2,0,18.5,0.2,27.7,0.2
				C97.7,68.7,97.7,66.5,96.3,66.5z"/>
		</g>
	</g>
</g>
</svg>
