<?xml version="1.0" encoding="utf-8"?>
<!-- Generator: Adobe Illustrator 25.0.0, SVG Export Plug-In . SVG Version: 6.00 Build 0)  -->
<svg version="1.1" xmlns="http://www.w3.org/2000/svg" xmlns:xlink="http://www.w3.org/1999/xlink" x="0px" y="0px"
	 viewBox="0 0 347 213.1" style="enable-background:new 0 0 347 213.1;" xml:space="preserve">
<style type="text/css">
	.st0{fill:#FF3600;}
	.st1{fill:#F1DAAE;}
	.st2{opacity:0.5;fill:#D06546;}
	.st3{fill:#FA003C;}
	.st4{fill:#04382B;}
	.st5{fill:#0E2D28;}
	.st6{fill:#FDECE9;}
	.st7{fill:#F4E8D2;}
	.st8{fill:#004333;}
	.st9{fill:#FF8E90;}
</style>
<g id="Capa_1">
	<g id="OBJECTS">
	</g>
	<path class="st0" d="M67,106.9c0-10.5,15.8-19.8,40.3-25.8c-12.8-20.6-17-37.7-9.1-45.1c7.9-7.4,26-3.5,47.9,8.6
		c6.4-23.1,16.3-38,27.4-38c11.1,0,21,14.8,27.4,38c21.9-12.1,40-16,47.9-8.6c7.9,7.4,3.7,24.5-9.1,45.1c24.6,6,40.3,15.4,40.3,25.8
		c0,10.5-15.8,19.8-40.3,25.8c12.8,20.6,17,37.7,9.1,45.1c-7.9,7.4-26,3.5-47.9-8.6c-6.4,23.1-16.3,38-27.4,38
		c-11.1,0-21-14.8-27.4-38c-21.9,12.1-40,16-47.9,8.6c-7.9-7.4-3.7-24.5,9.1-45.1C82.7,126.7,67,117.3,67,106.9z"/>
	<path class="st1" d="M76.5,106.9c0-9.5,14.3-18,36.7-23.5c-11.7-18.8-15.5-34.3-8.3-41.1c7.2-6.7,23.7-3.2,43.6,7.8
		c5.8-21.1,14.9-34.6,25-34.6c10.1,0,19.1,13.5,25,34.6c19.9-11,36.5-14.6,43.6-7.8c7.2,6.7,3.4,22.3-8.3,41.1
		c22.4,5.5,36.7,14,36.7,23.5c0,9.5-14.3,18-36.7,23.5c11.7,18.8,15.5,34.3,8.3,41.1c-7.2,6.7-23.7,3.2-43.6-7.8
		c-5.8,21.1-14.9,34.6-25,34.6c-10.1,0-19.1-13.5-25-34.6c-19.9,11-36.5,14.6-43.6,7.8c-7.2-6.7-3.4-22.3,8.3-41.1
		C90.8,124.9,76.5,116.4,76.5,106.9z"/>
	<path class="st2" d="M212.5,84.6h-48.8c0.6,0.5,1.2,1,1.7,1.7c0.2,0.3-0.6,0.8-0.8,0.7c-1.2-0.2-2.5,0.3-3.7,0.5
		c-1.4,0.2-2.7,0.4-4.1,0.5c-2.4,0.1-4.7,0.1-7.1,0.2c-2.4,0.1-4.8,0.4-7.1,0.7c-2.4,0.3-4.8,0.7-7.1,1.2c-1.1,0.2-2.3,0.5-3.4,0.7
		c-1.1,0.2-2.1,0.7-3.2,1v10.6c0,3.3,2.6,6,5.9,6h0.8v42.9c0,3.3,2.6,6,5.9,6h64.2c3.3,0,5.9-2.7,5.9-6v-42.9h0.8
		c3.3,0,5.9-2.7,5.9-6V90.6C218.4,87.3,215.8,84.6,212.5,84.6z"/>
	<g>
		<path class="st0" d="M165.3,92.5c0.8,2.7,1.5,3.7,3.4,4.8c-1.9,1.1-2.6,2-3.4,4.8c-0.8-2.7-1.5-3.7-3.4-4.8
			C163.8,96.2,164.5,95.2,165.3,92.5z M173.7,101.6c1.2,0.7,1.6,1.2,2.1,2.9c0.5-1.7,0.9-2.3,2.1-2.9c-1.2-0.7-1.6-1.2-2.1-2.9
			C175.4,100.3,175,100.9,173.7,101.6z M168.1,88.9c2.8,1.6,3.7,2.9,4.8,6.8c1.1-3.9,2.1-5.2,4.8-6.8c-2.8-1.6-3.7-2.9-4.8-6.8
			C171.8,86,170.8,87.3,168.1,88.9z"/>
		<path class="st3" d="M209,60.4c-3.5-3-8-5.2-12.7-4.3c-4.7,0.8-8.7,4.4-12,7.6c-3.2,3-6,6.5-8.4,10.2c-0.3,0.5-0.6,1-0.9,1.5
			c-1.3-1.5-2.7-2.8-3.8-3.8c-4.3-4.1-9.6-8.6-14.9-11.2c-5.2-2.5-10.9-2-14.2,2.9c-3,4.4-2.7,9.8,0.3,14.2
			c3.8,5.4,10.1,7.6,16.2,9.1c2.8,0.7,8.1,2.5,12.3,2.4c1.2,2.1,4.2,2.8,6.1,0.5c0.1-0.1,0.1-0.2,0.2-0.3c0.1,0.1,0.2,0.2,0.2,0.2
			c4.6,2.8,10.4,0.6,15.2-0.6c4.7-1.1,9.1-2.6,13.1-5.3c3.8-2.6,7.3-6.2,8.3-10.9C215.1,67.8,212.6,63.6,209,60.4z M162.8,79.5
			c-5.6-0.6-15.8-2.5-16.9-9.4c-0.7-4.6,3.8-5.7,7.2-4c3.2,1.6,6.2,4.4,8.8,6.9c2.1,2,4.1,4.4,5.9,6.7
			C165.7,79.6,163.8,79.6,162.8,79.5z M203.2,72.3c-1.9,2.1-4.6,3.8-7.1,4.8c-4,1.6-9.8,1.7-14.4,3.5c1.5-2.5,3.2-5,5.1-7.1
			c3.5-4.1,9.9-11.6,15.4-7.3C204.4,68.1,205.2,70,203.2,72.3z"/>
		<path class="st4" d="M213,107.7h-74.9c-3.2,0-5.7-2.5-5.7-5.7V90.9c0-3.2,2.5-5.7,5.7-5.7H213c3.2,0,5.7,2.5,5.7,5.7V102
			C218.7,105.2,216.1,107.7,213,107.7z"/>
		<path class="st4" d="M206.4,98.7h-61.8c-3.2,0-5.7,2.5-5.7,5.7v44.3c0,3.2,2.5,5.7,5.7,5.7h61.8c3.2,0,5.7-2.5,5.7-5.7v-44.3
			C212.1,101.2,209.6,98.7,206.4,98.7z"/>
		<path class="st5" d="M212.4,107.7h-73.5v12.7L212.4,107.7z"/>
		<path class="st3" d="M182.8,85.1h-14.5v69.4h14.5V85.1z"/>
	</g>
	<path class="st3" d="M244.9,69h-13.3c-1.5,0-2.7,1.2-2.7,2.7V85c0,1.5,1.2,2.7,2.7,2.7h0.4c0,0,0,0,0,0.1l2.2,3.8
		c0.3,0.6,1.2,0.6,1.6,0l2.2-3.8c0,0,0,0,0-0.1h6.9c1.5,0,2.7-1.2,2.7-2.7V71.7C247.6,70.2,246.4,69,244.9,69z"/>
	<path class="st6" d="M245,75.3c-0.8-1.9-3-2-4.6-1.2c-0.8,0.4-1.5,1-2.1,1.7c-0.4-0.7-1-1.3-1.5-1.9c-0.9-1-2.5-1.5-3.6-0.5
		c-0.9,0.8-1.4,2.2-1.5,3.4c0,1.3,0.7,2.5,1.4,3.5c1,1.4,2.3,3.1,3.9,3.8c0.9,0.4,1.4,0.4,2.2-0.2c1.4-1.2,2.7-2.6,4-3.8
		C244.6,79,245.8,77.2,245,75.3z"/>
	<g>
		<path class="st4" d="M117.8,92.9H102c-1.8,0-3.2,1.4-3.2,3.2v15.8c0,1.8,1.4,3.2,3.2,3.2h9.1c0,0.1,0,0.1,0.1,0.1l2.6,4.5
			c0.4,0.7,1.4,0.7,1.8,0l2.6-4.5c0-0.1,0.1-0.1,0.1-0.1c1.6-0.2,2.8-1.5,2.8-3.2V96.1C121,94.4,119.6,92.9,117.8,92.9z"/>
		<path class="st6" d="M106.2,101.1c-0.2-1-1.2-1.5-2.1-1.4c-1,0.1-1.7,1-1.7,1.9c-0.1,2.1-0.1,4.2-0.1,6.3c0,0.1,0,0.3,0.1,0.4
			c0.1,0.4,0.1,0.8,0.3,1.1c0.4,0.8,1.3,1.2,2.1,1c1.2-0.3,1.4-1.4,1.4-2.5C106.3,105.8,106.8,103.3,106.2,101.1z"/>
		<path class="st6" d="M116.1,107.1c0.1-0.1,0.2-0.1,0.2-0.2c0.1,0,0.7-0.5,0.5-0.5c0,0,0,0,0-0.1c-0.1,0.1-0.1,0.1-0.1,0.1
			c0-0.1,0.2-0.2,0.2-0.3c0.2-0.4,0.3-0.8,0.1-1.3c-0.2-0.6-0.6-1-1.1-1.3c0.2-0.2,0.5-0.5,0.6-0.8c0.1-0.1,0.1-0.2,0.1-0.4
			c0-0.1,0-0.1,0-0.2c0-0.2-0.1-0.5-0.2-0.7c-0.4-0.7-1.2-0.8-1.9-1c-0.5-0.1-1.1-0.1-1.7-0.1c0.1-0.1,0.1-0.1,0.1-0.2
			c0.4-0.8,0.6-1.5,0.7-2.4c0.1-0.5,0.1-1,0-1.5c-0.1-0.4-0.2-0.7-0.5-1c-0.4-0.4-1.1-0.6-1.7-0.2c-0.6,0.4-0.8,1-0.8,1.6
			c-0.1,0.4-0.2,0.8-0.3,1.3c-0.1,0.1-0.1,0.2-0.1,0.3c-0.1,0.2-0.2,0.4-0.4,0.6c-0.1,0.1-0.1,0.1-0.2,0.2c0,0,0,0,0,0.1
			c-0.1,0.2-0.3,0.4-0.4,0.5c-0.1,0.1-0.2,0.1-0.2,0.2c-0.1,0.1-0.2,0.2-0.4,0.2h-0.1c-0.3,0.1-0.5,0.2-0.8,0.4
			c-0.8,0.9-0.6,2.4-0.5,3.5c0,1.4-0.2,2.9-0.1,4.4c0.2,2.4,3.2,2.3,5,2.3c1.3,0,2.8-0.2,3.9-1c0.9-0.5,1.1-1.7,0.4-2.4
			C116.4,107.4,116.2,107.3,116.1,107.1z"/>
	</g>
</g>
<g id="OBJECTS_1_">
	<g>
		<path class="st2" d="M282.8-108.3c-7.8,0-14.4-5.6-15.9-13c-30.5-1-58.9-13.3-80.5-34.9c-25.9-25.9-38.4-61.7-34.2-98.3
			c0.9-7.5,6.8-13.4,14.2-14.2c4.6-0.5,9.2-0.8,13.8-0.8c18.8,0,37,4.3,53.3,12.5c-2.3-8.2-3.6-17.9-3.6-29.5
			c0-3.3,0.1-6.7,0.3-10.2c-2.9,1.9-5.8,3.7-8.7,5.4c-16.3,9.4-30.7,14-43.9,14c-20.4,0-37-10.9-49.4-32.5
			c-14.3-24.8-20.6-60.5,30.7-90.1c2.9-1.7,5.9-3.3,9-4.9c-3.1-1.6-6.2-3.2-9-4.9c-28.3-16.3-56.6-45.2-30.7-90.1
			c12.4-21.6,29.1-32.5,49.4-32.5c13.2,0,27.6,4.6,43.9,14c2.9,1.7,5.8,3.5,8.7,5.4c-0.2-3.5-0.3-6.9-0.3-10.2
			c0-32.7,10.9-71.6,62.7-71.6c28.6,0,62.7,12.4,62.7,71.6c0,3.3-0.1,6.7-0.3,10.2c2.9-1.9,5.8-3.7,8.7-5.4
			c16.3-9.4,30.7-14,43.9-14c20.4,0,37,10.9,49.4,32.5c9.6,16.6,12.4,31.6,8.8,45.9c-4.3,16.9-17.2,31.3-39.5,44.2
			c-2.9,1.7-5.9,3.3-9,4.9c3.1,1.6,6.2,3.2,9,4.9c22.3,12.9,35.2,27.3,39.5,44.2c3.6,14.3,0.8,29.4-8.8,45.9
			c-12.4,21.6-29.1,32.5-49.4,32.5l0,0c-13.2,0-27.6-4.6-43.9-14c-2.9-1.7-5.8-3.5-8.7-5.4c0.2,3.5,0.3,6.9,0.3,10.2
			c0,11.5-1.3,21.3-3.6,29.5c16.3-8.2,34.5-12.5,53.3-12.5c4.6,0,9.2,0.3,13.8,0.8c7.5,0.9,13.4,6.8,14.2,14.2
			c4.2,36.5-8.3,72.4-34.2,98.3c-21.6,21.6-50.1,33.9-80.5,34.9c-1.5,7.4-8,13-15.9,13H282.8z"/>
		<path class="st7" d="M287-120.2c-7.8,0-14.4-5.6-15.9-13c-30.5-1-58.9-13.3-80.5-34.9c-25.9-25.9-38.4-61.7-34.2-98.3
			c0.9-7.5,6.8-13.4,14.2-14.2c4.6-0.5,9.2-0.8,13.8-0.8c18.8,0,37,4.3,53.3,12.5c-2.3-8.2-3.6-17.9-3.6-29.5
			c0-3.3,0.1-6.7,0.3-10.2c-2.9,1.9-5.8,3.7-8.7,5.4c-16.3,9.4-30.7,14-43.9,14c-20.4,0-37-10.9-49.4-32.5
			c-14.3-24.8-20.6-60.5,30.7-90.1c2.9-1.7,5.9-3.3,9-4.9c-3.1-1.6-6.2-3.2-9-4.9c-28.3-16.3-56.6-45.2-30.7-90.1
			c12.4-21.6,29.1-32.5,49.4-32.5c13.2,0,27.6,4.6,43.9,14c2.9,1.7,5.8,3.5,8.7,5.4c-0.2-3.5-0.3-6.9-0.3-10.2
			c0-32.7,10.9-71.6,62.7-71.6c28.6,0,62.7,12.4,62.7,71.6c0,3.3-0.1,6.7-0.3,10.2c2.9-1.9,5.8-3.7,8.7-5.4
			c16.3-9.4,30.7-14,43.9-14c20.4,0,37,10.9,49.4,32.5c9.6,16.6,12.4,31.6,8.8,45.9c-4.3,16.9-17.2,31.3-39.5,44.2
			c-2.9,1.7-5.9,3.3-9,4.9c3.1,1.6,6.2,3.2,9,4.9c22.3,12.9,35.2,27.3,39.5,44.2c3.6,14.3,0.8,29.4-8.8,45.9
			c-12.4,21.6-29.1,32.5-49.4,32.5l0,0c-13.2,0-27.6-4.6-43.9-14c-2.9-1.7-5.8-3.5-8.7-5.4c0.2,3.5,0.3,6.9,0.3,10.2
			c0,11.5-1.3,21.3-3.6,29.5c16.3-8.2,34.5-12.5,53.3-12.5c4.6,0,9.2,0.3,13.8,0.8c7.5,0.9,13.4,6.8,14.2,14.2
			c4.2,36.5-8.3,72.4-34.2,98.3c-21.6,21.6-50.1,33.9-80.5,34.9c-1.5,7.4-8,13-15.9,13H287z"/>
		
			<rect x="287" y="-426.6" transform="matrix(-1 -1.224647e-16 1.224647e-16 -1 593.8325 -562.9855)" class="st8" width="19.8" height="290.2"/>
		<path class="st9" d="M422.6-397.8c-13.4-7.7-29.8-14.3-46.1-18.9c16.3-4.5,32.7-11.1,46.1-18.9c39.2-22.6,37.6-45.8,24.8-68
			c-12.8-22.2-32.1-35.2-71.3-12.6c-13.4,7.7-27.3,18.6-39.4,30.4c4.2-16.4,6.7-33.9,6.7-49.3c0-45.2-20.8-55.4-46.5-55.4
			c-25.7,0-46.5,10.2-46.5,55.4c0,15.4,2.5,32.9,6.7,49.3c-12.1-11.8-26-22.7-39.4-30.4c-39.2-22.6-58.4-9.7-71.3,12.6
			c-12.8,22.2-14.4,45.4,24.8,68c13.4,7.7,29.8,14.3,46.1,18.9c-16.3,4.5-32.7,11.1-46.1,18.9c-39.2,22.6-37.6,45.8-24.8,68
			c12.8,22.2,32.1,35.2,71.3,12.6c13.4-7.7,27.3-18.6,39.4-30.5c-4.2,16.4-6.7,33.9-6.7,49.3c0,45.2,20.8,55.4,46.5,55.4
			c25.7,0,46.5-10.2,46.5-55.4c0-15.4-2.5-32.9-6.7-49.3c12.1,11.8,26,22.7,39.4,30.5c39.2,22.6,58.4,9.7,71.3-12.6
			C460.2-352,461.8-375.2,422.6-397.8z"/>
		
			<ellipse transform="matrix(0.2063 -0.9785 0.9785 0.2063 643.3485 -40.1657)" class="st0" cx="296.9" cy="-416.6" rx="64.5" ry="64.5"/>
		<g>
			<path d="M296.9-367.3c-27.2,0-49.3-22.1-49.3-49.3h7.3c0,23.2,18.9,42.1,42.1,42.1c23.2,0,42.1-18.9,42.1-42.1h7.3
				C346.2-389.4,324.1-367.3,296.9-367.3z"/>
		</g>
		<g>
			<path class="st7" d="M292.8-427.7c0,13.7-6.9,24.9-15.4,24.9c-8.5,0-15.4-11.1-15.4-24.9c0-13.7,6.9-24.9,15.4-24.9
				C285.9-452.5,292.8-441.4,292.8-427.7z"/>
			<path d="M272.4-451.1c-6,3.4-10.4,12.5-10.4,23.4c0,10.9,4.4,20.1,10.4,23.4c6-3.4,10.4-12.5,10.4-23.4
				C282.8-438.6,278.4-447.7,272.4-451.1z"/>
		</g>
		<g>
			<path class="st7" d="M331.4-427.7c0,13.7-6.9,24.9-15.4,24.9c-8.5,0-15.4-11.1-15.4-24.9c0-13.7,6.9-24.9,15.4-24.9
				C324.5-452.5,331.4-441.4,331.4-427.7z"/>
			<path d="M311.1-451.1c-6,3.4-10.4,12.5-10.4,23.4c0,10.9,4.4,20.1,10.4,23.4c6-3.4,10.4-12.5,10.4-23.4
				C321.5-438.6,317.1-447.7,311.1-451.1z"/>
		</g>
		<path class="st8" d="M336.3-235c-23.2,23.2-33,54.7-29.5,85c30.3,3.5,61.8-6.3,85-29.5c23.2-23.2,33-54.7,29.5-85
			C391-268,359.5-258.2,336.3-235z"/>
		<path class="st8" d="M257.5-235c23.2,23.2,33,54.7,29.5,85c-30.3,3.5-61.8-6.3-85-29.5c-23.2-23.2-33-54.7-29.5-85
			C202.8-268,234.3-258.2,257.5-235z"/>
	</g>
	<g>
		<path class="st2" d="M495.7-28.1c-1.2-0.3-2-1.4-1.9-2.6c0-1.2,0.9-2.2,2.1-2.5l6.6-1.3l4.1-15.6c-5.3-3.4-7.9-9.8-6.3-16.1
			l4.1-15.6c0.4-1.4,1.8-2.2,3.2-1.8l23.3,6.2c1.4,0.4,2.2,1.8,1.8,3.2l-4.1,15.6c-1.7,6.3-7.1,10.6-13.4,10.9l-4.1,15.6l5.1,4.4
			c0.9,0.8,1.2,2.1,0.6,3.2c-0.6,1.1-1.8,1.6-3,1.3L495.7-28.1z"/>
		<path class="st7" d="M496.7-29.5c-1.2-0.3-2-1.4-1.9-2.6c0-1.2,0.9-2.2,2.1-2.5l6.6-1.3l4.1-15.6c-5.3-3.4-7.9-9.8-6.3-16.1
			l4.1-15.6c0.4-1.4,1.8-2.2,3.2-1.8l23.3,6.2c1.4,0.4,2.2,1.8,1.8,3.2L529.7-60c-1.7,6.3-7.1,10.6-13.4,10.9l-4.1,15.6l5.1,4.4
			c0.9,0.8,1.2,2.1,0.6,3.2c-0.6,1.1-1.8,1.6-3,1.3L496.7-29.5z"/>
		<path class="st0" d="M527.2-60.7l4.1-15.6L508-82.5l-4.1,15.6c-1.5,5.8,1.4,11.8,6.8,14.1l-5.1,19.1l-8.2,1.6l18.1,4.8l-6.3-5.5
			l5.1-19.1C520.1-51.2,525.7-54.9,527.2-60.7z"/>
		<path class="st0" d="M509.5-78.1l-3.2,11.9c-1.2,4.5,1,9.2,5.3,11.1c0,0,0,0,0,0c0.9,0.4,1.8,0.7,2.8,0.8c0,0,0,0,0,0
			c4.7,0.5,8.9-2.5,10.1-7l1.5-5.8L509.5-78.1z"/>
	</g>
</g>
</svg>
