<?xml version="1.0" encoding="utf-8"?>
<!-- Generator: Adobe Illustrator 25.0.0, SVG Export Plug-In . SVG Version: 6.00 Build 0)  -->
<svg version="1.1" xmlns="http://www.w3.org/2000/svg" xmlns:xlink="http://www.w3.org/1999/xlink" x="0px" y="0px"
	 viewBox="0 0 347 213" style="enable-background:new 0 0 347 213;" xml:space="preserve">
<style type="text/css">
	.st0{fill:#1F994A;}
	.st1{fill:#F4E8D2;}
	.st2{fill:#FF3600;}
	.st3{fill:#F1DAAE;}
	.st4{opacity:0.5;fill:#D06546;}
	.st5{fill:#F7941D;}
	.st6{fill:#FA003C;}
	.st7{fill:#04382B;}
	.st8{fill:#FDECE9;}
</style>
<g id="Capa_1">
	<path class="st0" d="M-163.4,4.4c80.6,0,146-34.8,146-77.7s-65.4-77.7-146-77.7s-146,34.8-146,77.7S-244,4.4-163.4,4.4z"/>
	<path class="st1" d="M-163.4-8c-37,0-71.6-7.6-97.4-21.3c-23-12.2-36.2-28.3-36.2-44s13.2-31.7,36.2-44
		c25.8-13.7,60.4-21.3,97.4-21.3s71.6,7.6,97.4,21.3c23,12.2,36.2,28.3,36.2,44S-43-41.6-66-29.3C-91.8-15.6-126.4-8-163.4-8z
		 M-163.4-136.9c-36.7,0-71,7.5-96.6,21.1c-22.4,11.9-35.3,27.4-35.3,42.5s12.9,30.6,35.3,42.5c25.6,13.6,59.9,21.1,96.6,21.1
		s71-7.5,96.6-21.1c22.4-11.9,35.3-27.4,35.3-42.5s-12.9-30.6-35.3-42.5C-92.4-129.4-126.7-136.9-163.4-136.9z"/>
	<path class="st2" d="M51.6-116.8c-1.2,5.2-4.5,8.9-8.3,8.9c-3.8,0-7-3.6-8.3-8.9c-1.2,5.2-4.5,8.9-8.3,8.9c-3.8,0-7.1-3.6-8.3-8.9
		c-1.2,5.2-4.5,8.9-8.3,8.9c-3.8,0-7.1-3.6-8.3-8.9c-1.2,5.2-4.5,8.9-8.3,8.9c-3.8,0-7-3.6-8.3-8.9c-1.2,5.2-4.5,8.9-8.3,8.9
		c-3.8,0-7.1-3.6-8.3-8.9c-1.2,5.2-4.5,8.9-8.3,8.9c-3.8,0-7.1-3.6-8.3-8.9c-1.2,5.2-4.5,8.9-8.3,8.9s-7.1-3.6-8.3-8.9
		c-1.2,5.2-4.5,8.9-8.3,8.9c-3.9,0-7.3-3.9-8.4-9.4c-1.5,5.6-5.4,9.1-9.6,8.1c-4.2-1.1-7.3-6.4-7.4-12.8c-2.5,4.9-7.1,6.6-10.9,3.5
		c-3.8-3-5.6-9.6-4.4-15.5c-3.4,3.4-8.1,2.8-11.1-1.8c-2.9-4.6-3.3-11.8-1-16.9c-4,1.6-8.3-1.2-10.1-7c-1.9-5.8-0.7-12.8,2.5-16.5
		c-4.1-0.4-7.6-5.1-8.2-11.5c-0.6-6.4,1.9-12.4,5.8-14.5c-3.8-2.3-6.2-8.4-5.4-14.8c0.8-6.4,4.4-10.9,8.4-11.1
		c-3.2-4-4.1-10.9-2.1-16.6s6.4-8.3,10.3-6.4c-2.2-5.5-1.7-12.5,1.4-17c3.1-4.5,7.7-4.9,11.2-1.2c-1-6.1,1-12.5,4.8-15.3
		c3.9-2.8,8.4-0.9,10.8,4.1c0.3-6.2,3.5-11.5,7.7-12.3c4.1-0.7,7.9,2.9,9.2,8.4c1.2-5.3,4.5-9.1,8.4-9.1c3.8,0,7.1,3.6,8.3,8.9
		c1.2-5.1,4.5-8.9,8.3-8.9s7.1,3.6,8.3,8.9c1.2-5.1,4.5-8.9,8.3-8.9s7,3.6,8.3,8.9c1.2-5.1,4.5-8.9,8.3-8.9c3.8,0,7.1,3.6,8.3,8.9
		c1.2-5.1,4.5-8.9,8.3-8.9c3.8,0,7.1,3.6,8.3,8.9c1.2-5.1,4.5-8.9,8.3-8.9s7.1,3.6,8.3,8.9c1.2-5.1,4.5-8.9,8.3-8.9
		c3.8,0,7.1,3.6,8.3,8.9c1.2-5.1,4.5-8.9,8.3-8.9c3.8,0,7,3.6,8.3,8.9c1.2-5.1,4.5-8.9,8.3-8.9c0.2,0,0.2,0,0.4,0c0.1,0,0.2,0,0.2,0
		l0,0c4.1,0.2,7.6,4.9,8.3,10.9c2-5.3,6.3-8,10.3-6.1c4.1,1.9,6.5,8,6.1,14.2c3-4.3,7.7-4.9,11.2-1c3.5,3.9,4.5,10.8,2.8,16.5
		c3.8-2.6,8.4-0.7,10.8,4.7c2.4,5.3,1.9,12.5-1,17c4.1-0.5,8,3.4,9.2,9.6s-0.7,12.6-4.4,15.5c4,1.3,6.9,6.9,6.9,13.4
		c-0.1,6.4-3.2,11.8-7.2,12.9c3.5,3.2,5.3,9.7,3.9,15.8c-1.4,6.2-5.3,9.8-9.4,9.1c2.8,4.6,3,11.8,0.5,17c-2.5,5.2-7.2,6.7-10.9,3.9
		c1.6,5.8,0.3,12.8-3.3,16.4c-3.6,3.5-8.2,2.7-11.1-1.8c0.2,6.2-2.4,12-6.5,13.7c-4.1,1.7-8.2-1.2-10.1-6.7
		c-0.9,6-4.4,10.4-8.6,10.4C56.1-107.9,52.8-111.5,51.6-116.8z"/>
	<path class="st3" d="M-177.4-151.4c-25.7,0-46.6-31.8-46.6-71s20.9-71,46.6-71h142.6c14.5,0.9,26.5,8.9,34.9,23.2
		c7.5,12.8,11.6,29.8,11.6,47.8S7.5-187.3,0-174.6c-8.4,14.2-20.4,22.2-34.9,23.2H-177.4z"/>
	<path class="st2" d="M451.2,88.6c0-13.5,19.2-25.5,49-33.3C484.6,28.6,479.6,6.5,489.1-3c9.6-9.6,31.6-4.5,58.2,11.1
		c7.8-29.9,19.8-49,33.3-49s25.5,19.2,33.3,49C640.6-7.5,662.7-12.6,672.2-3c9.6,9.6,4.5,31.6-11.1,58.2c29.9,7.8,49,19.8,49,33.3
		c0,13.5-19.2,25.5-49,33.3c15.6,26.6,20.6,48.7,11.1,58.2c-9.6,9.6-31.6,4.5-58.2-11.1c-7.8,29.9-19.8,49-33.3,49
		s-25.5-19.2-33.3-49c-26.6,15.6-48.7,20.6-58.2,11.1c-9.6-9.6-4.5-31.6,11.1-58.2C470.3,114.1,451.2,102.1,451.2,88.6z"/>
	<path class="st3" d="M462.8,88.6c0-12.3,17.4-23.3,44.6-30.4c-14.2-24.2-18.8-44.3-10.1-53c8.7-8.7,28.8-4.1,53,10.1
		c7.1-27.2,18.1-44.6,30.4-44.6c12.3,0,23.3,17.4,30.4,44.6c24.2-14.2,44.3-18.8,53-10.1c8.7,8.7,4.1,28.8-10.1,53
		c27.2,7.1,44.6,18.1,44.6,30.4c0,12.3-17.4,23.3-44.6,30.4c14.2,24.2,18.8,44.3,10.1,53c-8.7,8.7-28.8,4.1-53-10.1
		c-7.1,27.2-18.1,44.6-30.4,44.6c-12.3,0-23.3-17.4-30.4-44.6c-24.2,14.2-44.3,18.8-53,10.1c-8.7-8.7-4.1-28.8,10.1-53
		C480.2,111.8,462.8,100.9,462.8,88.6z"/>
	
		<image style="overflow:visible;" width="533" height="323" xlink:href="74D17DC0.jpg"  transform="matrix(0.2519 0 0 0.2519 222.9964 -316.9918)">
	</image>
	<ellipse class="st0" cx="584" cy="295.6" rx="138.6" ry="89.1"/>
	<ellipse class="st3" cx="584" cy="295.6" rx="120.2" ry="77.2"/>
	<g>
		<path class="st4" d="M-269.7,303.1c-1.1,0-2.2-0.1-3.2-0.4c-4.1-0.9-7.4-3.5-9.3-6.9c-2.4,1.6-5.2,2.6-8.2,2.6
			c-1.1,0-2.2-0.1-3.2-0.4c-3.7-0.9-6.9-3.1-9-6.4c-2-3.3-2.7-7.1-1.8-10.9c0.9-4.1,3.5-7.4,6.9-9.3c-2.2-3.2-3.1-7.3-2.2-11.4
			c1.5-6.6,7.3-11.2,14-11.2c1.1,0,2.2,0.1,3.2,0.4c4.1,0.9,7.4,3.5,9.3,6.9c2.4-1.6,5.2-2.6,8.2-2.6c1.1,0,2.2,0.1,3.2,0.4
			c3.7,0.9,6.9,3.1,9,6.4c2,3.3,2.7,7.1,1.8,10.9c-0.9,4.1-3.5,7.4-6.9,9.3c2.2,3.2,3.1,7.3,2.2,11.4
			C-257.2,298.5-263,303.1-269.7,303.1L-269.7,303.1z"/>
		<path class="st1" d="M-269.7,300.7c-1.1,0-2.2-0.1-3.2-0.4c-4.1-0.9-7.4-3.5-9.3-6.9c-2.4,1.6-5.2,2.6-8.2,2.6
			c-1.1,0-2.2-0.1-3.2-0.4c-3.7-0.9-6.9-3.1-9-6.4c-2-3.3-2.7-7.1-1.8-10.9c0.9-4.1,3.5-7.4,6.9-9.3c-2.2-3.2-3.1-7.3-2.2-11.4
			c1.5-6.6,7.3-11.2,14-11.2c1.1,0,2.2,0.1,3.2,0.4c4.1,0.9,7.4,3.5,9.3,6.9c2.4-1.6,5.2-2.6,8.2-2.6c1.1,0,2.2,0.1,3.2,0.4
			c3.7,0.9,6.9,3.1,9,6.4c2,3.3,2.7,7.1,1.8,10.9c-0.9,4.1-3.5,7.4-6.9,9.3c2.2,3.2,3.1,7.3,2.2,11.4
			C-257.2,296.1-263,300.7-269.7,300.7L-269.7,300.7z"/>
		<path class="st5" d="M-265.4,276.4c5.1,0.2,9.8-3.3,10.9-8.4c1.3-5.8-2.3-11.6-8.1-12.9c-5.1-1.2-10.3,1.5-12.3,6.2
			c0.2-5.1-3.3-9.8-8.4-10.9c-5.8-1.3-11.6,2.3-12.9,8.1c-1.2,5.1,1.5,10.3,6.2,12.3c-5.1-0.2-9.8,3.3-10.9,8.4
			c-1.3,5.8,2.3,11.6,8.1,12.9c5.1,1.2,10.3-1.5,12.3-6.2c-0.2,5.1,3.3,9.8,8.4,10.9c5.8,1.3,11.6-2.3,12.9-8.1
			C-258,283.6-260.7,278.5-265.4,276.4z"/>
		<path class="st6" d="M-268.3,275.8c-1.2,5.2-6.4,8.5-11.6,7.3c-5.2-1.2-8.5-6.4-7.3-11.6c1.2-5.2,6.4-8.5,11.6-7.3
			C-270.3,265.4-267.1,270.6-268.3,275.8z"/>
	</g>
	<g>
		<path class="st4" d="M383.2,18.6c1.1,0,2.2-0.1,3.2-0.4c4.1-0.9,7.4-3.5,9.3-6.9c2.4,1.6,5.2,2.6,8.2,2.6c1.1,0,2.2-0.1,3.2-0.4
			c3.7-0.9,6.9-3.1,9-6.4c2-3.3,2.7-7.1,1.8-10.9c-0.9-4.1-3.5-7.4-6.9-9.3c2.2-3.2,3.1-7.3,2.2-11.4c-1.5-6.6-7.3-11.2-14-11.2
			c-1.1,0-2.2,0.1-3.2,0.4c-4.1,0.9-7.4,3.5-9.3,6.9c-2.4-1.6-5.2-2.6-8.2-2.6c-1.1,0-2.2,0.1-3.2,0.4c-3.7,0.9-6.9,3.1-9,6.4
			c-2,3.3-2.7,7.1-1.8,10.9c0.9,4.1,3.5,7.4,6.9,9.3c-2.2,3.2-3.1,7.3-2.2,11.4C370.7,14,376.4,18.6,383.2,18.6L383.2,18.6z"/>
		<path class="st1" d="M383.2,16.3c1.1,0,2.2-0.1,3.2-0.4c4.1-0.9,7.4-3.5,9.3-6.9c2.4,1.6,5.2,2.6,8.2,2.6c1.1,0,2.2-0.1,3.2-0.4
			c3.7-0.9,6.9-3.1,9-6.4c2-3.3,2.7-7.1,1.8-10.9c-0.9-4.1-3.5-7.4-6.9-9.3c2.2-3.2,3.1-7.3,2.2-11.4c-1.5-6.6-7.3-11.2-14-11.2
			c-1.1,0-2.2,0.1-3.2,0.4c-4.1,0.9-7.4,3.5-9.3,6.9c-2.4-1.6-5.2-2.6-8.2-2.6c-1.1,0-2.2,0.1-3.2,0.4c-3.7,0.9-6.9,3.1-9,6.4
			c-2,3.3-2.7,7.1-1.8,10.9c0.9,4.1,3.5,7.4,6.9,9.3c-2.2,3.2-3.1,7.3-2.2,11.4C370.7,11.7,376.4,16.3,383.2,16.3L383.2,16.3z"/>
		<path class="st5" d="M378.8-8c-5.1,0.2-9.8-3.3-10.9-8.4c-1.3-5.8,2.3-11.6,8.1-12.9c5.1-1.2,10.3,1.5,12.3,6.2
			c-0.2-5.1,3.3-9.8,8.4-10.9c5.8-1.3,11.6,2.3,12.9,8.1c1.2,5.1-1.5,10.3-6.2,12.3c5.1-0.2,9.8,3.3,10.9,8.4
			c1.3,5.8-2.3,11.6-8.1,12.9C401.2,8.9,396,6.2,394,1.5c0.2,5.1-3.3,9.8-8.4,10.9c-5.8,1.3-11.6-2.3-12.9-8.1
			C371.5-0.8,374.2-6,378.8-8z"/>
		<path class="st6" d="M381.7-8.7c1.2,5.2,6.4,8.5,11.6,7.3c5.2-1.2,8.5-6.4,7.3-11.6c-1.2-5.2-6.4-8.5-11.6-7.3
			C383.8-19.1,380.5-13.9,381.7-8.7z"/>
	</g>
	<path class="st4" d="M654.6,323.7h-2.8v-29c0-0.7-0.1-1.5-0.3-2.2l-7.8-29c-1-3.9-4.7-6.5-8.9-6.5H606c-2.8,0-5,2.2-5,4.8v-10.4
		c0-1.6-1.4-2.9-3.1-2.9h-91c-1.7,0-3.1,1.3-3.1,2.9v72.4h-3.6c-1.3,0-2.3,1-2.3,2.2v3.9c0,1.2,1,2.2,2.3,2.2h14.2
		c0.8,3,2.4,5.8,4.9,8.2c7.1,6.7,18.7,6.7,25.9,0c2.5-2.3,4.1-5.2,4.9-8.2h61.4c1.6,6.1,6.7,11.2,13.6,12.7
		c9.8,2.2,19.6-3.5,22-12.7h7.6c1.3,0,2.3-1,2.3-2.2v-3.9C656.9,324.7,655.9,323.7,654.6,323.7z"/>
	<path class="st7" d="M509.9,244.1h93.7c1.7,0,3.2,1.4,3.2,3.2v79h-100v-79C506.7,245.5,508.1,244.1,509.9,244.1z"/>
	<path class="st6" d="M612,247.3h29.7c4.3,0,8.1,3,9.1,7.1l8,31.7c0.2,0.7,0.3,1.5,0.3,2.3V323h-52.4v-70.6
		C606.8,249.6,609.1,247.3,612,247.3z"/>
	<path class="st7" d="M662.1,332.1H503c-1.3,0-2.3-1.1-2.3-2.3v-4.2c0-1.3,1.1-2.3,2.3-2.3h159.1c1.3,0,2.3,1.1,2.3,2.3v4.2
		C664.4,331,663.3,332.1,662.1,332.1z"/>
	<path class="st7" d="M549.2,337.9c7.4-7.4,7.4-19.3,0-26.7c-7.4-7.4-19.3-7.4-26.6,0c-7.4,7.4-7.4,19.3,0,26.7
		C529.9,345.2,541.9,345.2,549.2,337.9z"/>
	<path class="st8" d="M543.3,331.9c4.1-4.1,4.1-10.8,0-14.9c-4.1-4.1-10.8-4.1-14.8,0c-4.1,4.1-4.1,10.8,0,14.9
		C532.5,336,539.2,336,543.3,331.9z"/>
	<path class="st7" d="M654.2,328.8c2.3-10.1-3.9-20.3-14-22.7c-10.1-2.4-20.3,4-22.6,14.1s3.9,20.3,14,22.7
		C641.7,345.3,651.8,339,654.2,328.8z"/>
	<path class="st8" d="M646,326.9c1.3-5.7-2.2-11.3-7.8-12.7c-5.6-1.4-11.3,2.2-12.6,7.9s2.2,11.3,7.8,12.7
		C639.1,336.1,644.7,332.6,646,326.9z"/>
	<path class="st8" d="M617,282.9h23.1c1.8,0,3.2-1.4,3.2-3.2v-23.1c0-1.8-1.4-3.2-3.2-3.2H617c-1.8,0-3.2,1.4-3.2,3.2v23.1
		C613.8,281.5,615.3,282.9,617,282.9z"/>
	<path class="st8" d="M652.3,290.2c0-0.8-0.4-1.7-1-2.3c-0.2-0.2-0.3-0.3-0.6-0.4c-0.1-0.1-0.2-0.1-0.2-0.2c-0.5-0.3-1-0.6-1.6-0.5
		c-0.7,0-1.3,0.2-1.7,0.7c-0.9,0.6-1.4,1.5-1.4,2.7c0,2.5,0,4.8,0,7.3c0,0.9,0.4,1.7,1,2.3s1.5,1,2.3,1c1.7-0.1,3.3-1.4,3.3-3.3
		C652.4,295,652.3,292.5,652.3,290.2z"/>
</g>
<g id="BACKGROUND">
</g>
<g id="OBJECTS">
	<polygon class="st5" points="495.5,340 485.7,341.9 493.9,336.3 489.2,331.6 483.6,339.8 485.4,330 478.7,330 480.6,339.8 
		475,331.6 470.2,336.3 478.5,341.9 468.7,340 468.7,346.7 478.5,344.9 470.2,350.5 475,355.2 480.6,347 478.7,356.8 485.4,356.8 
		483.6,347 489.2,355.2 493.9,350.5 485.7,344.9 495.5,346.7 	"/>
	<g>
		<path class="st8" d="M558.1,305.1l-15-7.4c-0.5-0.2-0.8-0.7-0.8-1.3v-21.9c0-1.1,1.1-1.8,2.1-1.3l15,7.4c0.5,0.2,0.8,0.7,0.8,1.3
			v21.9C560.2,304.8,559,305.5,558.1,305.1z"/>
		<path class="st8" d="M566.4,305.1l15-7.4c0.5-0.2,0.8-0.7,0.8-1.3v-21.9c0-1.1-1.1-1.8-2.1-1.3l-15,7.4c-0.5,0.2-0.8,0.7-0.8,1.3
			v21.9C564.4,304.8,565.5,305.5,566.4,305.1z"/>
		<path class="st8" d="M561.6,261.6l-14.6,7.2c-1.1,0.5-1.1,2.1,0,2.6l14.6,7.2c0.4,0.2,0.9,0.2,1.3,0l14.6-7.2
			c1.1-0.5,1.1-2.1,0-2.6l-14.6-7.2C562.5,261.4,562,261.4,561.6,261.6z"/>
	</g>
	<path class="st8" d="M550.3,262.9c-7.1-0.1-14.2,0-21.3,0c-0.4,0-0.6,0.3-0.6,0.7c0,0.3,0.2,0.7,0.6,0.7c7.1,0,14.2,0.1,21.3,0
		c0.4,0,0.6-0.3,0.6-0.6C551,263.2,550.8,262.9,550.3,262.9z"/>
	<path class="st8" d="M538.5,269.1c-4.1,0-8.1,0-12.2,0c-0.2,0-0.3,0.1-0.4,0.1c-0.2,0-0.3,0-0.5,0c-0.4,0-0.6,0.3-0.6,0.6
		c0,0.3,0.2,0.6,0.6,0.6c0.2,0,0.3,0,0.5,0c0.1,0.1,0.2,0.1,0.4,0.1l12.2,0C539.4,270.6,539.4,269.1,538.5,269.1z"/>
	<path class="st8" d="M552.8,305.7c-3.6,0-7.3,0-10.9,0c-0.4,0-0.6,0.3-0.6,0.6c0,0.3,0.2,0.6,0.6,0.6c3.6,0,7.3,0,10.9,0
		C553.6,307,553.6,305.7,552.8,305.7z"/>
	<path class="st8" d="M541.4,299.7c-6.5,0-13,0-19.6,0c-0.9,0-0.9,1.4,0,1.4c6.5,0,13,0,19.6,0C542.3,301.1,542.3,299.7,541.4,299.7
		z"/>
	<path class="st8" d="M536.9,290.9l-0.4,0c0,0,0,0,0,0c-2.8,0-5.6,0-8.5,0c-0.4,0-0.6,0.3-0.6,0.7c0,0.3,0.2,0.7,0.6,0.7
		c2.8,0,5.6,0,8.5,0c0,0,0,0,0,0c0.1,0,0.3,0,0.4,0c0.4,0,0.6-0.3,0.6-0.7C537.5,291.2,537.3,290.9,536.9,290.9z"/>
	<path class="st8" d="M537.2,279.5c-6,0-11.9,0.1-17.9,0.1c-0.8,0-0.8,1.2,0,1.2c6,0,11.9,0.1,17.9,0.1
		C538.1,280.9,538.1,279.5,537.2,279.5z"/>
	<g>
		<path class="st4" d="M-93.3,224.9c-1.2-0.3-2-1.4-1.9-2.6c0-1.2,0.9-2.2,2.1-2.5l6.6-1.3l4.1-15.6c-5.3-3.4-7.9-9.8-6.3-16.1
			l4.1-15.6c0.4-1.4,1.8-2.2,3.2-1.8l23.3,6.2c1.4,0.4,2.2,1.8,1.8,3.2l-4.1,15.6c-1.7,6.3-7.1,10.6-13.4,10.9l-4.1,15.6l5.1,4.4
			c0.9,0.8,1.2,2.1,0.6,3.2c-0.6,1.1-1.8,1.6-3,1.3L-93.3,224.9z"/>
		<path class="st1" d="M-92.3,223.5c-1.2-0.3-2-1.4-1.9-2.6c0-1.2,0.9-2.2,2.1-2.5l6.6-1.3l4.1-15.6c-5.3-3.4-7.9-9.8-6.3-16.1
			l4.1-15.6c0.4-1.4,1.8-2.2,3.2-1.8l23.3,6.2c1.4,0.4,2.2,1.8,1.8,3.2l-4.1,15.6c-1.7,6.3-7.1,10.6-13.4,10.9l-4.1,15.6l5.1,4.4
			c0.9,0.8,1.2,2.1,0.6,3.2c-0.6,1.1-1.8,1.6-3,1.3L-92.3,223.5z"/>
		<path class="st2" d="M-61.8,192.4l4.1-15.6l-23.3-6.2l-4.1,15.6c-1.5,5.8,1.4,11.8,6.8,14.1l-5.1,19.1l-8.2,1.6l18.1,4.8l-6.3-5.5
			l5.1-19.1C-68.9,201.9-63.4,198.2-61.8,192.4z"/>
		<path class="st2" d="M-79.5,175l-3.2,11.9c-1.2,4.5,1,9.2,5.3,11.1c0,0,0,0,0,0c0.9,0.4,1.8,0.7,2.8,0.8c0,0,0,0,0,0
			c4.7,0.5,8.9-2.5,10.1-7l1.5-5.8L-79.5,175z"/>
	</g>
	<path class="st6" d="M225.4,16.6c-22.5-13-81.4-13-103.9,0c-22.5,13-51.9,64-51.9,89.9s29.4,77,51.9,89.9c22.5,13,81.4,13,103.9,0
		c22.5-13,51.9-64,51.9-89.9S247.9,29.5,225.4,16.6z"/>
	<path class="st3" d="M92.6,128.2c-10,17,2,37.7,21.7,37.6c-0.2,19.7,20.6,31.7,37.6,21.7c9.7,17.1,33.7,17.1,43.4,0
		c17,10,37.7-2,37.6-21.7c19.7,0.2,31.7-20.6,21.7-37.6c17.1-9.7,17.1-33.7,0-43.4c10-17-2-37.7-21.7-37.6
		c0.2-19.7-20.6-31.7-37.6-21.7c-9.7-17.1-33.7-17.1-43.4,0c-17-10-37.7,2-37.6,21.7c-19.7-0.2-31.7,20.6-21.7,37.6
		C75.4,94.5,75.4,118.5,92.6,128.2z"/>
	<path class="st4" d="M234.6,135.1h-2.3V111c0-0.6-0.1-1.2-0.2-1.8L225.5,85c-0.8-3.2-3.9-5.4-7.4-5.4h-24c-2.3,0-4.2,1.8-4.2,4
		v-8.7c0-1.3-1.1-2.4-2.5-2.4h-75.8c-1.4,0-2.5,1.1-2.5,2.4v60.3h-3c-1,0-1.9,0.8-1.9,1.8v3.2c0,1,0.8,1.8,1.9,1.8h11.8
		c0.6,2.5,2,4.9,4,6.8c5.9,5.6,15.6,5.6,21.5,0c2-1.9,3.4-4.3,4-6.8h51.2c1.3,5.1,5.5,9.3,11.3,10.6c8.1,1.8,16.3-2.9,18.3-10.6h6.3
		c1,0,1.9-0.8,1.9-1.8v-3.2C236.5,135.9,235.7,135.1,234.6,135.1z"/>
	<path class="st7" d="M114.1,68.8h78c1.4,0,2.6,1.2,2.6,2.6v65.8h-83.3V71.4C111.5,70,112.7,68.8,114.1,68.8z"/>
	<path class="st6" d="M199.2,71.5h24.8c3.6,0,6.7,2.5,7.6,5.9l6.7,26.3c0.2,0.6,0.3,1.3,0.3,2v28.9h-43.6V75.8
		C194.8,73.4,196.7,71.5,199.2,71.5z"/>
	<path class="st7" d="M240.8,142.1H108.4c-1.1,0-2-0.9-2-2v-3.5c0-1.1,0.9-2,2-2h132.4c1.1,0,2,0.9,2,2v3.5
		C242.8,141.2,241.9,142.1,240.8,142.1z"/>
	<path class="st7" d="M146.9,146.9c6.1-6.1,6.1-16.1,0-22.2c-6.1-6.1-16.1-6.1-22.2,0c-6.1,6.1-6.1,16.1,0,22.2
		C130.9,153,140.8,153,146.9,146.9z"/>
	<path class="st8" d="M142,142c3.4-3.4,3.4-9,0-12.4c-3.4-3.4-9-3.4-12.4,0c-3.4,3.4-3.4,9,0,12.4C133,145.4,138.6,145.4,142,142z"
		/>
	<path class="st7" d="M234.3,139.4c2-8.4-3.2-16.9-11.7-18.9c-8.4-2-16.9,3.3-18.8,11.7c-2,8.4,3.2,16.9,11.7,18.9
		C223.9,153.1,232.3,147.8,234.3,139.4z"/>
	<path class="st8" d="M227.5,137.8c1.1-4.7-1.8-9.4-6.5-10.5s-9.4,1.8-10.5,6.5c-1.1,4.7,1.8,9.4,6.5,10.5
		C221.7,145.4,226.4,142.5,227.5,137.8z"/>
	<path class="st8" d="M203.4,101.2h19.2c1.5,0,2.7-1.2,2.7-2.7V79.2c0-1.5-1.2-2.7-2.7-2.7h-19.2c-1.5,0-2.7,1.2-2.7,2.7v19.2
		C200.7,100,201.9,101.2,203.4,101.2z"/>
	<path class="st8" d="M232.7,107.2c0-0.7-0.3-1.5-0.8-1.9c-0.1-0.1-0.3-0.3-0.5-0.3c-0.1-0.1-0.1-0.1-0.1-0.1
		c-0.4-0.3-0.9-0.5-1.3-0.4c-0.6,0-1.1,0.2-1.5,0.6c-0.7,0.5-1.2,1.3-1.2,2.3c0,2.1,0,4,0,6.1c0,0.7,0.3,1.5,0.8,1.9
		c0.5,0.5,1.3,0.9,1.9,0.8c1.5-0.1,2.7-1.2,2.7-2.7C232.8,111.2,232.7,109.2,232.7,107.2z"/>
	<polygon class="st2" points="184.1,43 177.5,44.2 183.1,40.4 179.9,37.3 176.1,42.8 177.3,36.2 172.8,36.2 174.1,42.8 170.3,37.3 
		167.1,40.4 172.6,44.2 166,43 166,47.5 172.6,46.3 167.1,50 170.3,53.2 174.1,47.7 172.8,54.3 177.3,54.3 176.1,47.7 179.9,53.2 
		183.1,50 177.5,46.3 184.1,47.5 	"/>
	<polygon class="st2" points="184.1,166.2 177.5,167.4 183.1,163.7 179.9,160.5 176.1,166 177.3,159.4 172.8,159.4 174.1,166 
		170.3,160.5 167.1,163.7 172.6,167.4 166,166.2 166,170.7 172.6,169.5 167.1,173.2 170.3,176.4 174.1,170.9 172.8,177.5 
		177.3,177.5 176.1,170.9 179.9,176.4 183.1,173.2 177.5,169.5 184.1,170.7 	"/>
</g>
</svg>
