<svg width="309" height="206" viewBox="0 0 309 206" fill="none" xmlns="http://www.w3.org/2000/svg">
<path d="M146 205.398C226.634 205.398 292 170.611 292 127.699C292 84.787 226.634 50 146 50C65.3664 50 0 84.787 0 127.699C0 170.611 65.3664 205.398 146 205.398Z" fill="#FF3600"/>
<path d="M146 192.974C109.008 192.974 74.4145 185.408 48.5997 171.676C25.6044 159.436 12.4224 143.407 12.4224 127.699C12.4224 111.982 25.6044 95.9534 48.5997 83.7218C74.4145 69.9897 108.999 62.4238 146 62.4238C182.992 62.4238 217.586 69.9897 243.401 83.7218C266.396 95.9626 279.578 111.991 279.578 127.699C279.578 143.416 266.396 159.445 243.401 171.676C217.586 185.418 182.992 192.974 146 192.974ZM146 64.0706C109.274 64.0706 74.9546 71.5633 49.3778 85.1764C26.9409 97.1153 14.0793 112.613 14.0793 127.699C14.0793 142.785 26.95 158.283 49.3778 170.222C74.9546 183.835 109.264 191.328 146 191.328C182.727 191.328 217.046 183.835 242.622 170.222C265.059 158.283 277.921 142.785 277.921 127.699C277.921 112.613 265.05 97.1153 242.622 85.1764C217.037 71.5633 182.727 64.0706 146 64.0706Z" fill="#F4E8D2"/>
<path d="M129.092 64.9976C130.505 69.8325 131.665 71.4627 135.089 73.4587C131.665 75.4659 130.517 77.0849 129.092 81.9198C127.678 77.0849 126.518 75.4548 123.094 73.4587C126.518 71.4627 127.667 69.8436 129.092 64.9976ZM144.235 81.1658C146.356 82.4078 147.063 83.4058 147.936 86.3888C148.808 83.4058 149.526 82.3967 151.636 81.1658C149.515 79.9238 148.808 78.9257 147.936 75.9427C147.063 78.9257 146.356 79.9349 144.235 81.1658ZM134.106 58.588C139.011 61.4601 140.656 63.7778 142.689 70.7086C144.721 63.7889 146.367 61.4601 151.271 58.588C146.367 55.7159 144.721 53.3982 142.689 46.4674C140.656 53.3982 139.011 55.7159 134.106 58.588Z" fill="#FF3600"/>
<path d="M206.832 8.04307C200.646 2.69804 192.539 -1.1943 184.199 0.336022C175.904 1.86634 168.658 8.14288 162.759 13.8428C157.126 19.2765 152.056 25.3313 147.859 31.9516C147.34 32.7722 146.798 33.6261 146.246 34.5132C143.915 31.8518 141.485 29.5008 139.563 27.7044C131.898 20.5407 122.608 12.4788 113.175 7.84347C103.996 3.33013 93.9223 4.2949 87.8581 12.9889C82.4347 20.7625 83.0201 30.4989 88.3552 38.1948C95.0268 47.8203 106.371 51.6461 117.185 54.4296C122.078 55.6937 131.566 58.8874 139.133 58.6878C141.231 62.5358 146.633 63.6669 149.957 59.5306C150.079 59.3865 150.178 59.2201 150.289 59.076C150.443 59.1979 150.565 59.331 150.731 59.4308C158.827 64.3212 169.254 60.4289 177.804 58.4439C186.132 56.5032 193.92 53.8751 201.033 49.0291C207.727 44.4603 213.946 37.9065 215.746 29.7559C217.712 21.0064 213.25 13.5877 206.832 8.04307ZM124.663 41.8543C114.766 40.7232 96.5843 37.4297 94.6623 25.1317C93.37 16.9145 101.356 15.0071 107.453 18.0234C113.131 20.829 118.521 25.8525 123.061 30.2438C126.772 33.8368 130.307 38.0063 133.577 42.1204C129.898 41.9985 126.54 42.065 124.663 41.8543ZM196.482 29.146C193.124 32.9829 188.408 35.8661 183.746 37.7845C176.677 40.701 166.217 40.9228 158.187 44.05C160.793 39.5477 163.809 35.2673 167.156 31.3084C173.308 24.0227 184.718 10.6158 194.604 18.345C198.747 21.5831 200.116 24.9986 196.482 29.146Z" fill="#FA003C"/>
<path d="M213.901 92.0222H80.8108C75.2216 92.0222 70.6929 87.4756 70.6929 81.8644V62.0922C70.6929 56.4811 75.2216 51.9344 80.8108 51.9344H213.901C219.49 51.9344 224.019 56.4811 224.019 62.0922V81.8644C224.019 87.4756 219.479 92.0222 213.901 92.0222Z" fill="#04382B"/>
<path d="M202.314 75.9871H92.387C86.7978 75.9871 82.269 80.5337 82.269 86.1448V164.846C82.269 170.457 86.7978 175.003 92.387 175.003H202.314C207.904 175.003 212.432 170.457 212.432 164.846V86.1448C212.432 80.5337 207.904 75.9871 202.314 75.9871Z" fill="#04382B"/>
<path d="M212.907 92.0222H82.269V114.667L212.907 92.0222Z" fill="#0E2D28"/>
<path d="M160.23 51.9344H134.482V174.992H160.23V51.9344Z" fill="#FA003C"/>
<path d="M123.768 62.181C123.624 61.682 123.37 61.2384 123.006 60.8725C122.807 60.7172 122.608 60.562 122.409 60.4067C121.945 60.1406 121.448 60.0075 120.918 59.9964C120.509 59.9853 120.134 60.0629 119.78 60.2515C119.416 60.3734 119.095 60.573 118.83 60.8614C118.543 61.1275 118.333 61.4491 118.223 61.815C118.035 62.1699 117.958 62.5469 117.969 62.9572C118.002 63.2234 118.035 63.4895 118.079 63.7446C118.223 64.2436 118.477 64.6872 118.841 65.0531C119.04 65.2084 119.239 65.3636 119.438 65.5189C119.902 65.785 120.399 65.9181 120.929 65.9292C121.338 65.9403 121.713 65.8626 122.067 65.6741C122.431 65.5521 122.752 65.3525 123.017 65.0642C123.304 64.7981 123.514 64.4765 123.624 64.1105C123.812 63.7557 123.889 63.3786 123.878 62.9683C123.845 62.7022 123.801 62.4471 123.768 62.181Z" fill="#FDECE9"/>
<path d="M105.597 78.1939C105.454 77.6949 105.2 77.2513 104.835 76.8854C104.636 76.7301 104.438 76.5749 104.239 76.4196C103.775 76.1535 103.278 76.0204 102.748 76.0093C102.339 75.9982 101.963 76.0759 101.61 76.2644C101.245 76.3864 100.925 76.586 100.66 76.8743C100.373 77.1404 100.163 77.462 100.052 77.828C99.8647 78.1828 99.7873 78.5599 99.7984 78.9702C99.8315 79.2363 99.8647 79.5025 99.9088 79.7575C100.052 80.2565 100.306 80.7001 100.671 81.066C100.87 81.2213 101.069 81.3765 101.267 81.5318C101.731 81.7979 102.228 81.931 102.759 81.9421C103.167 81.9532 103.543 81.8756 103.896 81.6871C104.261 81.5651 104.581 81.3655 104.846 81.0771C105.133 80.811 105.343 80.4894 105.454 80.1235C105.642 79.7686 105.719 79.3916 105.708 78.9813C105.664 78.7151 105.631 78.449 105.597 78.1939Z" fill="#FDECE9"/>
<path d="M176.058 62.181C175.915 61.682 175.661 61.2384 175.296 60.8725C175.097 60.7172 174.899 60.562 174.7 60.4067C174.236 60.1406 173.739 60.0075 173.209 59.9964C172.8 59.9853 172.424 60.0629 172.071 60.2515C171.706 60.3734 171.386 60.573 171.121 60.8614C170.834 61.1275 170.624 61.4491 170.513 61.815C170.326 62.1699 170.248 62.5469 170.259 62.9572C170.292 63.2234 170.326 63.4895 170.37 63.7446C170.513 64.2436 170.767 64.6872 171.132 65.0531C171.331 65.2084 171.53 65.3636 171.728 65.5189C172.192 65.785 172.689 65.9181 173.22 65.9292C173.628 65.9403 174.004 65.8626 174.357 65.6741C174.722 65.5521 175.042 65.3525 175.307 65.0642C175.594 64.7981 175.804 64.4765 175.915 64.1105C176.103 63.7557 176.18 63.3786 176.169 62.9683C176.136 62.7022 176.091 62.4471 176.058 62.181Z" fill="#FDECE9"/>
<path d="M192.009 78.1939C191.865 77.6949 191.611 77.2513 191.246 76.8854C191.048 76.7301 190.849 76.5749 190.65 76.4196C190.186 76.1535 189.689 76.0204 189.159 76.0093C188.75 75.9982 188.374 76.0759 188.021 76.2644C187.657 76.3864 187.336 76.586 187.071 76.8743C186.784 77.1404 186.574 77.462 186.464 77.828C186.276 78.1828 186.198 78.5599 186.21 78.9702C186.243 79.2363 186.276 79.5025 186.32 79.7575C186.464 80.2565 186.718 80.7001 187.082 81.066C187.281 81.2213 187.48 81.3765 187.679 81.5318C188.143 81.7979 188.64 81.931 189.17 81.9421C189.578 81.9532 189.954 81.8756 190.307 81.6871C190.672 81.5651 190.992 81.3655 191.257 81.0771C191.545 80.811 191.754 80.4894 191.865 80.1235C192.053 79.7686 192.13 79.3916 192.119 78.9813C192.075 78.7151 192.042 78.449 192.009 78.1939Z" fill="#FDECE9"/>
<path d="M172.347 107.603C172.203 107.104 171.949 106.66 171.585 106.294C171.386 106.139 171.187 105.984 170.988 105.828C170.524 105.562 170.027 105.429 169.497 105.418C169.088 105.407 168.713 105.485 168.359 105.673C167.995 105.795 167.675 105.995 167.409 106.283C167.122 106.549 166.912 106.871 166.802 107.237C166.614 107.592 166.537 107.969 166.548 108.379C166.581 108.645 166.614 108.911 166.658 109.166C166.802 109.665 167.056 110.109 167.421 110.475C167.619 110.63 167.818 110.785 168.017 110.94C168.481 111.207 168.978 111.34 169.508 111.351C169.917 111.362 170.292 111.284 170.646 111.096C171.01 110.974 171.331 110.774 171.596 110.486C171.883 110.22 172.093 109.898 172.203 109.532C172.391 109.177 172.468 108.8 172.457 108.39C172.424 108.124 172.391 107.869 172.347 107.603Z" fill="#FDECE9"/>
<path d="M206.468 107.603C206.324 107.104 206.07 106.66 205.705 106.294C205.507 106.139 205.308 105.984 205.109 105.828C204.645 105.562 204.148 105.429 203.618 105.418C203.209 105.407 202.833 105.485 202.48 105.673C202.116 105.795 201.795 105.995 201.53 106.283C201.243 106.549 201.033 106.871 200.923 107.237C200.735 107.592 200.657 107.969 200.669 108.379C200.702 108.645 200.735 108.911 200.779 109.166C200.923 109.665 201.177 110.109 201.541 110.475C201.74 110.63 201.939 110.785 202.138 110.94C202.602 111.207 203.099 111.34 203.629 111.351C204.037 111.362 204.413 111.284 204.766 111.096C205.131 110.974 205.451 110.774 205.716 110.486C206.004 110.22 206.213 109.898 206.324 109.532C206.512 109.177 206.589 108.8 206.578 108.39C206.545 108.124 206.512 107.869 206.468 107.603Z" fill="#FDECE9"/>
<path d="M188.297 123.616C188.154 123.117 187.899 122.673 187.535 122.307C187.336 122.152 187.137 121.997 186.939 121.841C186.475 121.575 185.978 121.442 185.447 121.431C185.039 121.42 184.663 121.498 184.31 121.686C183.945 121.808 183.625 122.008 183.36 122.296C183.072 122.562 182.863 122.884 182.752 123.25C182.564 123.604 182.487 123.981 182.498 124.392C182.531 124.658 182.564 124.924 182.609 125.179C182.752 125.678 183.006 126.122 183.371 126.488C183.57 126.643 183.768 126.798 183.967 126.953C184.431 127.22 184.928 127.353 185.458 127.364C185.867 127.375 186.243 127.297 186.596 127.109C186.961 126.987 187.281 126.787 187.546 126.499C187.833 126.233 188.043 125.911 188.154 125.545C188.341 125.19 188.419 124.813 188.408 124.403C188.374 124.137 188.33 123.871 188.297 123.616Z" fill="#FDECE9"/>
<path d="M172.347 142.6C172.203 142.101 171.949 141.658 171.585 141.292C171.386 141.137 171.187 140.981 170.988 140.826C170.524 140.56 170.027 140.427 169.497 140.416C169.088 140.405 168.713 140.482 168.359 140.671C167.995 140.793 167.675 140.992 167.409 141.281C167.122 141.547 166.912 141.869 166.802 142.234C166.614 142.589 166.537 142.966 166.548 143.377C166.581 143.643 166.614 143.909 166.658 144.164C166.802 144.663 167.056 145.107 167.421 145.473C167.619 145.628 167.818 145.783 168.017 145.938C168.481 146.204 168.978 146.338 169.508 146.349C169.917 146.36 170.292 146.282 170.646 146.094C171.01 145.972 171.331 145.772 171.596 145.484C171.883 145.217 172.093 144.896 172.203 144.53C172.391 144.175 172.468 143.798 172.457 143.388C172.424 143.122 172.391 142.867 172.347 142.6Z" fill="#FDECE9"/>
<path d="M206.468 142.6C206.324 142.101 206.07 141.658 205.705 141.292C205.507 141.137 205.308 140.981 205.109 140.826C204.645 140.56 204.148 140.427 203.618 140.416C203.209 140.405 202.833 140.482 202.48 140.671C202.116 140.793 201.795 140.992 201.53 141.281C201.243 141.547 201.033 141.869 200.923 142.234C200.735 142.589 200.657 142.966 200.669 143.377C200.702 143.643 200.735 143.909 200.779 144.164C200.923 144.663 201.177 145.107 201.541 145.473C201.74 145.628 201.939 145.783 202.138 145.938C202.602 146.204 203.099 146.338 203.629 146.349C204.037 146.36 204.413 146.282 204.766 146.094C205.131 145.972 205.451 145.772 205.716 145.484C206.004 145.217 206.213 144.896 206.324 144.53C206.512 144.175 206.589 143.798 206.578 143.388C206.545 143.122 206.512 142.867 206.468 142.6Z" fill="#FDECE9"/>
<path d="M188.297 158.613C188.154 158.114 187.899 157.671 187.535 157.305C187.336 157.15 187.137 156.994 186.939 156.839C186.475 156.573 185.978 156.44 185.447 156.429C185.039 156.418 184.663 156.495 184.31 156.684C183.945 156.806 183.625 157.005 183.36 157.294C183.072 157.56 182.863 157.881 182.752 158.247C182.564 158.602 182.487 158.979 182.498 159.39C182.531 159.656 182.564 159.922 182.609 160.177C182.752 160.676 183.006 161.12 183.371 161.485C183.57 161.641 183.768 161.796 183.967 161.951C184.431 162.217 184.928 162.35 185.458 162.362C185.867 162.373 186.243 162.295 186.596 162.106C186.961 161.984 187.281 161.785 187.546 161.497C187.833 161.23 188.043 160.909 188.154 160.543C188.341 160.188 188.419 159.811 188.408 159.401C188.374 159.135 188.33 158.868 188.297 158.613Z" fill="#FDECE9"/>
<path d="M95.9544 107.603C95.8108 107.104 95.5567 106.66 95.1922 106.294C94.9934 106.139 94.7945 105.984 94.5957 105.828C94.1318 105.562 93.6347 105.429 93.1045 105.418C92.6959 105.407 92.3203 105.485 91.9668 105.673C91.6023 105.795 91.282 105.995 91.0169 106.283C90.7297 106.549 90.5198 106.871 90.4094 107.237C90.2216 107.592 90.1443 107.969 90.1553 108.379C90.1885 108.645 90.2216 108.911 90.2658 109.166C90.4094 109.665 90.6634 110.109 91.0279 110.475C91.2268 110.63 91.4256 110.785 91.6244 110.94C92.0883 111.207 92.5854 111.34 93.1156 111.351C93.5243 111.362 93.8998 111.284 94.2533 111.096C94.6178 110.974 94.9381 110.774 95.2032 110.486C95.4904 110.22 95.7003 109.898 95.8108 109.532C95.9985 109.177 96.0759 108.8 96.0648 108.39C96.0317 108.124 95.9875 107.869 95.9544 107.603Z" fill="#FDECE9"/>
<path d="M130.075 107.603C129.931 107.104 129.677 106.66 129.313 106.294C129.114 106.139 128.915 105.984 128.716 105.828C128.252 105.562 127.755 105.429 127.225 105.418C126.816 105.407 126.441 105.485 126.087 105.673C125.723 105.795 125.403 105.995 125.138 106.283C124.85 106.549 124.64 106.871 124.53 107.237C124.342 107.592 124.265 107.969 124.276 108.379C124.309 108.645 124.342 108.911 124.386 109.166C124.53 109.665 124.784 110.109 125.149 110.475C125.347 110.63 125.546 110.785 125.745 110.94C126.209 111.207 126.706 111.34 127.236 111.351C127.645 111.362 128.02 111.284 128.374 111.096C128.738 110.974 129.059 110.774 129.324 110.486C129.611 110.22 129.821 109.898 129.931 109.532C130.119 109.177 130.196 108.8 130.185 108.39C130.141 108.124 130.108 107.869 130.075 107.603Z" fill="#FDECE9"/>
<path d="M111.905 123.616C111.761 123.117 111.507 122.673 111.142 122.307C110.944 122.152 110.745 121.997 110.546 121.841C110.082 121.575 109.585 121.442 109.055 121.431C108.646 121.42 108.27 121.498 107.917 121.686C107.553 121.808 107.232 122.008 106.967 122.296C106.68 122.562 106.47 122.884 106.36 123.25C106.172 123.604 106.094 123.981 106.106 124.392C106.139 124.658 106.172 124.924 106.216 125.179C106.36 125.678 106.614 126.122 106.978 126.488C107.177 126.643 107.376 126.798 107.575 126.953C108.039 127.22 108.536 127.353 109.066 127.364C109.474 127.375 109.85 127.297 110.203 127.109C110.568 126.987 110.888 126.787 111.153 126.499C111.441 126.233 111.65 125.911 111.761 125.545C111.949 125.19 112.026 124.813 112.015 124.403C111.971 124.137 111.938 123.871 111.905 123.616Z" fill="#FDECE9"/>
<path d="M95.9544 142.6C95.8108 142.101 95.5567 141.658 95.1922 141.292C94.9934 141.137 94.7945 140.981 94.5957 140.826C94.1318 140.56 93.6347 140.427 93.1045 140.416C92.6959 140.405 92.3203 140.482 91.9668 140.671C91.6023 140.793 91.282 140.992 91.0169 141.281C90.7297 141.547 90.5198 141.869 90.4094 142.234C90.2216 142.589 90.1443 142.966 90.1553 143.377C90.1885 143.643 90.2216 143.909 90.2658 144.164C90.4094 144.663 90.6634 145.107 91.0279 145.473C91.2268 145.628 91.4256 145.783 91.6244 145.938C92.0883 146.204 92.5854 146.338 93.1156 146.349C93.5243 146.36 93.8998 146.282 94.2533 146.094C94.6178 145.972 94.9381 145.772 95.2032 145.484C95.4904 145.217 95.7003 144.896 95.8108 144.53C95.9985 144.175 96.0759 143.798 96.0648 143.388C96.0317 143.122 95.9875 142.867 95.9544 142.6Z" fill="#FDECE9"/>
<path d="M130.075 142.6C129.931 142.101 129.677 141.658 129.313 141.292C129.114 141.137 128.915 140.981 128.716 140.826C128.252 140.56 127.755 140.427 127.225 140.416C126.816 140.405 126.441 140.482 126.087 140.671C125.723 140.793 125.403 140.992 125.138 141.281C124.85 141.547 124.64 141.869 124.53 142.234C124.342 142.589 124.265 142.966 124.276 143.377C124.309 143.643 124.342 143.909 124.386 144.164C124.53 144.663 124.784 145.107 125.149 145.473C125.347 145.628 125.546 145.783 125.745 145.938C126.209 146.204 126.706 146.338 127.236 146.349C127.645 146.36 128.02 146.282 128.374 146.094C128.738 145.972 129.059 145.772 129.324 145.484C129.611 145.217 129.821 144.896 129.931 144.53C130.119 144.175 130.196 143.798 130.185 143.388C130.141 143.122 130.108 142.867 130.075 142.6Z" fill="#FDECE9"/>
<path d="M111.905 158.613C111.761 158.114 111.507 157.671 111.142 157.305C110.944 157.15 110.745 156.994 110.546 156.839C110.082 156.573 109.585 156.44 109.055 156.429C108.646 156.418 108.27 156.495 107.917 156.684C107.553 156.806 107.232 157.005 106.967 157.294C106.68 157.56 106.47 157.881 106.36 158.247C106.172 158.602 106.094 158.979 106.106 159.39C106.139 159.656 106.172 159.922 106.216 160.177C106.36 160.676 106.614 161.12 106.978 161.485C107.177 161.641 107.376 161.796 107.575 161.951C108.039 162.217 108.536 162.35 109.066 162.362C109.474 162.373 109.85 162.295 110.203 162.106C110.568 161.984 110.888 161.785 111.153 161.497C111.441 161.23 111.65 160.909 111.761 160.543C111.949 160.188 112.026 159.811 112.015 159.401C111.971 159.135 111.938 158.868 111.905 158.613Z" fill="#FDECE9"/>
<path d="M40.8914 35.5112H6.95883C3.1149 35.5112 0 38.6384 0 42.4975V76.5638C0 80.4228 3.1149 83.55 6.95883 83.55H26.4988C26.5319 83.6165 26.543 83.672 26.5761 83.7385L32.1211 93.3751C33.0158 94.9276 35.247 94.9276 36.1307 93.3751L41.6757 83.7385C41.7198 83.6609 41.7419 83.5722 41.7751 83.4946C45.1993 83.0621 47.8502 80.1345 47.8502 76.5749V42.4864C47.8392 38.6384 44.7243 35.5112 40.8914 35.5112Z" fill="#FA003C"/>
<path d="M301.052 58.9873H267.119C263.276 58.9873 260.161 62.1145 260.161 65.9736V100.04C260.161 103.899 263.276 107.026 267.119 107.026H268.213C268.246 107.093 268.257 107.148 268.29 107.215L273.835 116.851C274.73 118.404 276.961 118.404 277.845 116.851L283.39 107.215C283.423 107.159 283.434 107.093 283.467 107.026H301.063C304.907 107.026 308.022 103.899 308.022 100.04V65.9736C308 62.1145 304.885 58.9873 301.052 58.9873Z" fill="#FFAD03"/>
<path d="M301.24 75.1776C299.197 70.2872 293.53 69.9767 289.366 72.1502C287.3 73.2259 285.445 74.7673 284.042 76.6414C282.893 74.8671 281.557 73.1926 280.121 71.7066C277.735 69.2448 273.88 67.7478 271.052 70.4536C268.832 72.5716 267.308 76.1202 267.208 79.1697C267.098 82.3634 269.031 85.6126 270.787 88.1742C273.239 91.7561 276.763 96.0144 280.761 97.9661C283.125 99.1194 284.44 98.9974 286.395 97.4005C290.062 94.3953 293.32 90.9022 296.789 87.6641C300.18 84.4593 303.261 80.0236 301.24 75.1776Z" fill="#FDECE9"/>
<path d="M15.9278 53.2098C15.4086 51.1693 13.3762 49.9051 11.3879 50.1824C9.34448 50.4596 7.83121 52.2117 7.79808 54.3409C7.72076 58.8986 7.70971 63.4563 7.66553 68.014C7.66553 68.3245 7.70971 68.635 7.77598 68.9344C7.84226 69.7882 7.98585 70.6532 8.39455 71.3629C9.32239 72.993 11.1781 73.9467 13.0117 73.4588C15.5191 72.7713 15.9609 70.4314 16.0493 68.1248C16.2149 63.2899 17.1207 57.9338 15.9278 53.2098Z" fill="#FDECE9"/>
<path d="M37.2683 66.1509C37.4561 66.0511 37.6549 65.9513 37.8316 65.8293C37.9089 65.7739 39.1902 64.6871 38.9804 64.6095C38.9914 64.5873 39.0135 64.5541 39.0246 64.5319C38.9583 64.5984 38.903 64.6649 38.8368 64.7315C38.8478 64.6428 39.2234 64.2657 39.3228 64.055C39.7536 63.1901 39.9082 62.2031 39.6321 61.2605C39.2676 59.9964 38.3176 59.1757 37.2241 58.6213C37.7874 58.1777 38.2845 57.59 38.4723 56.8914C38.5385 56.6363 38.5496 56.3812 38.5385 56.1262C38.5496 56.0375 38.5606 55.9377 38.5717 55.8046C38.5827 55.3167 38.4612 54.8177 38.2293 54.3852C37.434 52.877 35.6225 52.5554 34.1202 52.3447C32.9383 52.1673 31.6902 52.1895 30.4862 52.2449C30.5745 52.0897 30.6629 51.9344 30.7402 51.7681C31.5245 50.1158 32.0326 48.4746 32.2756 46.667C32.4081 45.6357 32.5849 44.4935 32.2866 43.4844C32.0768 42.7636 31.7896 42.0428 31.2594 41.4883C30.3536 40.5679 28.8514 40.202 27.7137 40.9339C26.3992 41.7656 26.0789 43.063 25.8801 44.4381C25.7475 45.3696 25.5045 46.2567 25.1953 47.1439C25.0958 47.3546 24.9964 47.5653 24.886 47.7649C24.654 48.2084 24.4 48.6409 24.1128 49.0512C24.0023 49.2065 23.8919 49.3617 23.7814 49.517C23.7593 49.5392 23.7593 49.5502 23.7262 49.5835C23.4279 49.9495 23.1076 50.2932 22.7762 50.6148C22.6106 50.7701 22.4449 50.9253 22.2792 51.0695C22.0362 51.2469 21.7821 51.4132 21.517 51.5685C21.4839 51.5907 21.4507 51.6018 21.4176 51.6239C20.8101 51.7681 20.2357 52.0121 19.7718 52.5333C18.0155 54.485 18.5457 57.7674 18.5788 60.1738C18.623 63.301 18.0597 66.4392 18.3911 69.5775C18.9544 74.8116 25.2063 74.4235 29.1717 74.479C31.9553 74.5122 35.1806 73.9578 37.5996 72.4718C39.5547 71.2742 39.9634 68.8678 38.3508 67.2044C38.0083 66.8052 37.6438 66.4725 37.2683 66.1509Z" fill="#FDECE9"/>
</svg>
