<?xml version="1.0" encoding="utf-8"?>
<!-- Generator: Adobe Illustrator 25.0.0, SVG Export Plug-In . SVG Version: 6.00 Build 0)  -->
<svg version="1.1" id="Capa_1" xmlns="http://www.w3.org/2000/svg" xmlns:xlink="http://www.w3.org/1999/xlink" x="0px" y="0px"
	 viewBox="0 0 346.2 212" style="enable-background:new 0 0 346.2 212;" xml:space="preserve">
<style type="text/css">
	.st0{fill:#FF3600;}
	.st1{fill:#D12700;}
	.st2{fill:#FDECE9;}
	.st3{fill:#F1DAAE;}
	.st4{fill:#04382B;}
	.st5{fill:#FA003C;}
</style>
<path class="st0" d="M34.2,48.5H312c6.3,0,11.5,4.7,11.5,10.4V195c0,5.8-5.1,10.4-11.5,10.4H34.2c-6.3,0-11.5-4.7-11.5-10.4V59
	C22.7,53.2,27.9,48.5,34.2,48.5z"/>
<path class="st1" d="M303.5,169.2H300c0-14.1,0-28.1,0-42.2c0-36.3,0-72.6,0-109c0-6.4-4.3-10.9-10.5-10.9c-13.4,0-26.7,0-40.1,0
	c-36.5,0-73.1,0.1-109.6,0.1c-18.9,0-37.8,0-56.6,0c-1,2.7-1.9,5.4-2.7,8.2c-0.6,2.1-1.1,4.3-1.5,6.5c-0.3,1.8-0.6,3.6-0.5,5.4
	c0.3,5.4,1.3,11,0.5,16.4c-0.3,2.1-1.1,4.2-3,5.3c-2.2,1.3-5.4,0.2-7.8,0.1c-2.5-0.1-4.9,0.2-7.4,0.2c-2.6,0-5.1,0-7.7,0
	c-4.8-0.1-9.5-0.2-14.3-0.2c0,4,0,7.9,0,11.9v108.2h-5.7c-1.8,0-3.3,1.5-3.3,3.3v7c0,1.8,1.5,3.3,3.3,3.3h270.4
	c1.8,0,3.3-1.5,3.3-3.3v-7C306.9,170.7,305.4,169.2,303.5,169.2z"/>
<path class="st2" d="M299.9,192.7c-0.9,0-1.7-0.1-2.4-0.2c-0.7-0.1-1.4-0.3-2.2-0.5c-0.8-0.3-1.5-0.6-2.1-0.9
	c-0.7-0.4-1.3-0.8-1.8-1.2c-0.4-0.3-0.8-0.7-1.2-1.1c-2.3,2.4-5.9,3.9-9.7,3.9c-3.9,0-7.5-1.4-9.8-3.8c-2.3,2.4-5.9,3.8-9.8,3.8
	s-7.5-1.4-9.8-3.8c-2.3,2.4-5.9,3.8-9.8,3.8c-3.9,0-7.5-1.4-9.8-3.8c-2.3,2.4-5.9,3.8-9.8,3.8c-3.9,0-7.5-1.4-9.8-3.8
	c-2.3,2.4-5.9,3.8-9.8,3.8c-3.9,0-7.5-1.4-9.8-3.8c-2.3,2.4-5.9,3.8-9.8,3.8c-3.9,0-7.5-1.4-9.8-3.8c-2.3,2.4-5.9,3.8-9.8,3.8
	c-3.9,0-7.5-1.4-9.8-3.8c-2.3,2.4-5.9,3.8-9.8,3.8c-3.9,0-7.5-1.4-9.8-3.8c-2.3,2.4-5.9,3.8-9.8,3.8s-7.5-1.4-9.8-3.8
	c-2.3,2.4-5.9,3.8-9.8,3.8s-7.5-1.4-9.8-3.8c-2.3,2.4-5.9,3.8-9.8,3.8s-7.5-1.4-9.8-3.8c-2.3,2.4-5.9,3.8-9.8,3.8s-7.5-1.5-9.8-3.9
	c-0.4,0.4-0.8,0.8-1.2,1.1c-0.6,0.5-1.2,0.9-1.9,1.2c-0.6,0.3-1.3,0.6-2.1,0.9c-0.8,0.2-1.6,0.4-2.3,0.5c-1.5,0.3-3.3,0.3-4.8,0
	c-0.7-0.1-1.4-0.3-2.2-0.5c-0.9-0.3-1.6-0.6-2.1-0.9c-0.7-0.3-1.3-0.8-1.8-1.2c-0.6-0.4-1.1-0.9-1.5-1.5c-0.4-0.5-0.8-1-1.1-1.6
	s-0.6-1.2-0.7-1.8c-0.2-0.6-0.2-1.2-0.2-1.9c0-0.6,0.1-1.3,0.2-1.9c0.1-0.5,0.4-1.1,0.7-1.8c0.4-0.6,0.7-1.2,1.1-1.6
	c0.4-0.5,0.9-1,1.5-1.4s1.2-0.8,1.9-1.2c0.1,0,0.1-0.1,0.2-0.1c-3.5-1.7-5.6-4.7-5.6-8s2.1-6.3,5.6-8c-3.5-1.7-5.6-4.7-5.6-8
	s2.1-6.3,5.6-8c-3.5-1.7-5.6-4.7-5.6-8s2.1-6.3,5.6-8c-3.5-1.7-5.6-4.7-5.6-8s2.1-6.3,5.6-8c-3.5-1.7-5.6-4.7-5.6-8s2.1-6.3,5.6-8
	c-3.5-1.7-5.6-4.7-5.6-8s2.1-6.3,5.6-8c-0.1,0-0.1-0.1-0.2-0.1c-0.7-0.4-1.3-0.8-1.8-1.2c-2.3-1.8-3.6-4.2-3.6-6.7
	c0-0.6,0.1-1.3,0.2-1.9c0.1-0.5,0.4-1.1,0.7-1.8c0.4-0.6,0.7-1.2,1.1-1.6c0.4-0.5,0.9-1,1.5-1.5c0.5-0.4,1.1-0.8,1.8-1.2
	c0.6-0.3,1.3-0.6,2.1-0.9c0.9-0.3,1.6-0.4,2.3-0.5c3.9-0.6,8.1,0.4,11,2.6c0.4,0.3,0.8,0.7,1.2,1.1c2.3-2.4,5.9-3.9,9.8-3.9
	s7.5,1.4,9.8,3.8c2.3-2.4,5.9-3.8,9.8-3.8s7.5,1.4,9.8,3.8c2.3-2.4,5.9-3.8,9.8-3.8s7.5,1.4,9.8,3.8c2.3-2.4,5.9-3.8,9.8-3.8
	s7.5,1.4,9.8,3.8c2.3-2.4,5.9-3.8,9.8-3.8c3.9,0,7.5,1.4,9.8,3.8c2.3-2.4,5.9-3.8,9.8-3.8c3.9,0,7.5,1.4,9.8,3.8
	c2.3-2.4,5.9-3.8,9.8-3.8c3.9,0,7.5,1.4,9.8,3.8c2.3-2.4,5.9-3.8,9.8-3.8c3.9,0,7.5,1.4,9.8,3.8c2.3-2.4,5.9-3.8,9.8-3.8
	c3.9,0,7.5,1.4,9.8,3.8c2.3-2.4,5.9-3.8,9.8-3.8c3.9,0,7.5,1.4,9.8,3.8c2.3-2.4,5.9-3.8,9.8-3.8s7.5,1.4,9.8,3.8
	c2.3-2.4,5.9-3.8,9.8-3.8s7.5,1.5,9.7,3.9c0.3-0.4,0.7-0.7,1.2-1.1c0.5-0.4,1.1-0.8,1.8-1.2c0.6-0.3,1.3-0.6,2.1-0.9
	c0.8-0.3,1.6-0.4,2.3-0.5c1.5-0.2,3.2-0.2,4.7,0c0.7,0.1,1.5,0.3,2.3,0.5c0.8,0.3,1.5,0.6,2.1,0.9c0.7,0.4,1.3,0.8,1.8,1.2
	c0.6,0.5,1.1,0.9,1.5,1.5c0.5,0.5,0.8,1.1,1.1,1.6c0.3,0.5,0.5,1,0.7,1.7s0.2,1.3,0.2,1.9c0,2.5-1.3,5-3.6,6.7
	c-0.6,0.4-1.2,0.8-1.8,1.2c-0.1,0-0.1,0.1-0.2,0.1c3.5,1.7,5.6,4.7,5.6,8s-2.1,6.3-5.6,8c3.5,1.7,5.6,4.7,5.6,8s-2.1,6.3-5.6,8
	c3.5,1.7,5.6,4.7,5.6,8s-2.1,6.3-5.6,8c3.5,1.7,5.6,4.7,5.6,8s-2.1,6.3-5.6,8c3.5,1.7,5.6,4.7,5.6,8s-2.1,6.3-5.6,8
	c3.5,1.7,5.6,4.7,5.6,8s-2.1,6.3-5.6,8c0.7,0.4,1.4,0.8,2,1.3s1.1,0.9,1.5,1.5c0.5,0.5,0.8,1.1,1.1,1.6c0.3,0.5,0.5,1.1,0.7,1.8
	c0.1,0.6,0.2,1.3,0.2,1.9c0,0.6-0.1,1.3-0.2,1.9c-0.2,0.7-0.4,1.3-0.7,1.8c-0.3,0.5-0.6,1.1-1.1,1.6s-1,1-1.5,1.5
	c-0.6,0.5-1.2,0.9-1.9,1.2c-0.6,0.3-1.3,0.6-2.1,0.9c-0.8,0.2-1.6,0.4-2.3,0.5C301.6,192.6,300.8,192.7,299.9,192.7z M290.1,186.3
	c0.4,0,0.8,0.2,1,0.5c0.2,0.2,0.3,0.5,0.5,0.7c0.4,0.4,0.8,0.8,1.2,1.2c0.4,0.3,1,0.7,1.5,1s1.1,0.5,1.7,0.7
	c0.7,0.2,1.3,0.3,1.8,0.4c1.2,0.2,2.7,0.2,3.9,0c0.6-0.1,1.2-0.2,1.9-0.4c0.6-0.2,1.2-0.4,1.7-0.7s1-0.6,1.5-1
	c0.5-0.3,0.9-0.8,1.2-1.2c0.4-0.5,0.7-0.9,0.9-1.3c0.3-0.5,0.4-0.9,0.6-1.5c0.1-0.5,0.2-1,0.2-1.5s-0.1-1-0.2-1.5
	c-0.2-0.6-0.3-1-0.6-1.4c-0.2-0.5-0.5-0.9-0.9-1.4c-0.3-0.4-0.7-0.8-1.2-1.2c-0.9-0.7-2.1-1.3-3.3-1.7c-0.4-0.1-0.7-0.4-0.7-0.8
	c0-0.4,0.3-0.7,0.7-0.8c3.8-1.2,6.2-4,6.2-7.2s-2.4-6-6.2-7.2c-0.4-0.1-0.7-0.4-0.7-0.8c0-0.3,0.3-0.7,0.7-0.8
	c3.8-1.2,6.2-4,6.2-7.2s-2.4-6-6.2-7.2c-0.4-0.1-0.7-0.4-0.7-0.8c0-0.4,0.3-0.7,0.7-0.8c3.8-1.2,6.2-4,6.2-7.2s-2.4-6-6.2-7.2
	c-0.4-0.1-0.7-0.4-0.7-0.8s0.3-0.7,0.7-0.8c3.8-1.2,6.2-4,6.2-7.2s-2.4-6-6.2-7.2c-0.4-0.1-0.7-0.4-0.7-0.8s0.3-0.7,0.7-0.8
	c3.8-1.2,6.2-4,6.2-7.2s-2.4-6-6.2-7.2c-0.4-0.1-0.7-0.4-0.7-0.8s0.3-0.7,0.7-0.8c3.8-1.2,6.2-4,6.2-7.2s-2.4-6-6.2-7.2
	c-0.4-0.1-0.7-0.5-0.7-0.8c0-0.4,0.3-0.7,0.7-0.8c0.7-0.2,1.3-0.5,1.7-0.7c0.6-0.3,1.1-0.6,1.5-1c1.9-1.5,2.9-3.5,2.9-5.5
	c0-0.4-0.1-0.9-0.2-1.5c-0.2-0.6-0.3-1-0.6-1.4c-0.2-0.5-0.5-0.9-0.9-1.4c-0.3-0.4-0.7-0.8-1.2-1.2c-0.4-0.3-0.9-0.7-1.5-1
	c-0.5-0.3-1.1-0.5-1.7-0.7c-0.6-0.2-1.2-0.3-1.8-0.4c-1.3-0.2-2.6-0.2-3.9,0c-0.6,0.1-1.2,0.2-1.9,0.4c-0.6,0.2-1.2,0.4-1.7,0.7
	c-0.6,0.3-1.1,0.6-1.5,1c-0.5,0.4-0.9,0.8-1.2,1.2c-0.2,0.2-0.4,0.5-0.6,0.7c-0.2,0.3-0.6,0.5-1,0.5s-0.8-0.2-1-0.5
	c-1.7-2.6-5.1-4.2-8.8-4.2c-3.7,0-7.1,1.6-8.8,4.1c-0.4,0.6-1.6,0.6-2,0c-1.7-2.5-5.1-4.1-8.8-4.1c-3.7,0-7.1,1.6-8.8,4.1
	c-0.2,0.3-0.6,0.5-1,0.5s-0.8-0.2-1-0.5c-1.7-2.5-5.1-4.1-8.8-4.1s-7.1,1.6-8.8,4.1c-0.4,0.6-1.6,0.6-2,0c-1.7-2.5-5.1-4.1-8.8-4.1
	s-7.1,1.6-8.8,4.1c-0.2,0.3-0.6,0.5-1,0.5s-0.8-0.2-1-0.5c-1.7-2.5-5.1-4.1-8.8-4.1s-7.1,1.6-8.8,4.1c-0.2,0.3-0.6,0.5-1,0.5
	s-0.8-0.2-1-0.5c-1.7-2.5-5.1-4.1-8.8-4.1s-7.1,1.6-8.8,4.1c-0.4,0.6-1.6,0.6-2,0c-1.7-2.5-5.1-4.1-8.8-4.1s-7.1,1.6-8.8,4.1
	c-0.2,0.3-0.6,0.4-1,0.5c-0.4,0-0.8-0.2-1-0.5c-1.7-2.5-5.1-4.1-8.8-4.1s-7.1,1.6-8.8,4.1c-0.2,0.3-0.6,0.5-1,0.5s-0.8-0.2-1-0.5
	c-1.7-2.5-5.1-4.1-8.8-4.1c-3.7,0-7.1,1.6-8.8,4.1c-0.4,0.6-1.6,0.6-2,0c-1.7-2.5-5.1-4.1-8.8-4.1c-3.7,0-7.1,1.6-8.8,4.1
	c-0.4,0.6-1.6,0.6-2,0c-1.7-2.5-5.1-4.1-8.8-4.1c-3.7,0-7.1,1.6-8.8,4.1c-0.4,0.6-1.6,0.6-2,0c-1.7-2.5-5.1-4.1-8.8-4.1
	c-3.7,0-7.1,1.6-8.8,4.2c-0.2,0.3-0.6,0.5-1,0.5s-0.8-0.2-1-0.5c-0.5-0.8-1.1-1.4-1.7-1.9c-2.3-1.8-5.8-2.7-9-2.1
	c-0.6,0.1-1.2,0.2-1.9,0.4c-0.6,0.2-1.2,0.4-1.7,0.7c-0.6,0.3-1.1,0.6-1.5,1c-0.5,0.4-0.9,0.8-1.2,1.2c-0.3,0.4-0.6,0.8-0.9,1.4
	c-0.2,0.5-0.4,1-0.6,1.4c-0.1,0.5-0.2,1-0.2,1.5c0,2.1,1.1,4.1,2.9,5.5c0.5,0.4,1,0.7,1.5,1s1.1,0.5,1.7,0.7
	c0.4,0.1,0.7,0.5,0.7,0.8s-0.2,0.7-0.6,0.8c-3.8,1.2-6.2,4-6.2,7.2s2.4,6,6.2,7.2c0.4,0.1,0.7,0.4,0.7,0.8c0,0.3-0.3,0.7-0.7,0.8
	c-3.8,1.2-6.2,4-6.2,7.2s2.4,6,6.2,7.2c0.4,0.1,0.7,0.4,0.7,0.8s-0.3,0.7-0.7,0.8c-3.8,1.2-6.2,4-6.2,7.2s2.4,6,6.2,7.2
	c0.4,0.1,0.7,0.4,0.7,0.8c0,0.3-0.3,0.7-0.7,0.8c-3.8,1.2-6.2,4-6.2,7.2s2.4,6,6.2,7.2c0.4,0.1,0.7,0.4,0.7,0.8
	c0,0.4-0.3,0.7-0.7,0.8c-3.8,1.2-6.2,4-6.2,7.2s2.4,6,6.2,7.2c0.4,0.1,0.7,0.4,0.7,0.8c0,0.4-0.3,0.7-0.7,0.8
	c-3.8,1.2-6.2,4-6.2,7.2s2.4,6,6.2,7.2c0.4,0.1,0.7,0.5,0.7,0.8c0,0.4-0.3,0.7-0.8,0.8c-0.6,0.2-1.2,0.4-1.7,0.7
	c-0.6,0.3-1.1,0.6-1.5,1c-0.5,0.4-0.9,0.8-1.2,1.2s-0.6,0.8-0.9,1.4c-0.3,0.5-0.4,1-0.6,1.4c-0.1,0.5-0.2,1-0.2,1.5s0.1,1,0.2,1.5
	c0.1,0.5,0.3,0.9,0.6,1.5c0.3,0.5,0.6,0.9,0.9,1.3c0.4,0.4,0.8,0.8,1.2,1.2c0.5,0.4,1,0.7,1.5,1c0.5,0.2,1,0.5,1.7,0.7
	c0.6,0.2,1.2,0.3,1.8,0.4c1.2,0.2,2.7,0.2,3.9,0c0.6-0.1,1.2-0.2,1.9-0.4c0.6-0.2,1.2-0.4,1.7-0.7s1-0.6,1.5-1
	c0.4-0.3,0.9-0.7,1.3-1.2c0.2-0.2,0.3-0.4,0.5-0.7s0.6-0.5,1-0.5s0.8,0.2,1,0.5c1.7,2.6,5.1,4.2,8.8,4.2c3.7,0,7.1-1.6,8.8-4.1
	c0.4-0.6,1.6-0.6,2,0c1.7,2.5,5.1,4.1,8.8,4.1c3.7,0,7.1-1.6,8.8-4.1c0.4-0.6,1.6-0.6,2,0c1.7,2.5,5.1,4.1,8.8,4.1
	c3.7,0,7.1-1.6,8.8-4.1c0.4-0.6,1.6-0.6,2,0c1.7,2.5,5.1,4.1,8.8,4.1c3.7,0,7.1-1.6,8.8-4.1c0.2-0.3,0.6-0.5,1-0.5s0.8,0.2,1,0.5
	c1.7,2.5,5.1,4.1,8.8,4.1s7.1-1.6,8.8-4.1c0.2-0.3,0.6-0.5,1-0.5s0.8,0.2,1,0.5c1.7,2.5,5.1,4.1,8.8,4.1s7.1-1.6,8.8-4.1
	c0.2-0.3,0.6-0.5,1-0.5s0.8,0.2,1,0.5c1.7,2.5,5.1,4.1,8.8,4.1s7.1-1.6,8.8-4.1c0.4-0.6,1.6-0.6,2,0c1.7,2.5,5.1,4.1,8.8,4.1
	s7.1-1.6,8.8-4.1c0.4-0.6,1.6-0.6,2,0c1.7,2.5,5.1,4.1,8.8,4.1s7.1-1.6,8.8-4.1c0.2-0.3,0.6-0.5,1-0.5s0.8,0.2,1,0.5
	c1.7,2.5,5.1,4.1,8.8,4.1s7.1-1.6,8.8-4.1c0.2-0.3,0.6-0.5,1-0.5s0.8,0.2,1,0.5c1.7,2.5,5.1,4.1,8.8,4.1s7.1-1.6,8.8-4.1
	c0.4-0.6,1.6-0.6,2,0c1.7,2.5,5.1,4.1,8.8,4.1c3.7,0,7-1.6,8.8-4.2C289.3,186.5,289.7,186.3,290.1,186.3z"/>
<path class="st2" d="M1585.7-899.3h37.3c2.9,0,5.2-2.3,5.2-5.2v-37.4c0-2.9-2.3-5.2-5.2-5.2h-37.3c-2.9,0-5.2,2.3-5.2,5.2v37.4
	C1580.5-901.6,1582.8-899.3,1585.7-899.3z"/>
<g>
	<rect x="51.7" y="13.6" class="st3" width="246.9" height="150.8"/>
	<g>
		<path class="st4" d="M303.7,124.1c0-35.7,0-71.3,0-107c0-6.3-4.3-10.7-10.5-10.7c-13.4,0-26.7,0-40.1,0
			c-36.5,0-73.1,0.1-109.6,0.1c-30.3,0-60.5,0-90.8-0.1C46.9,6.5,42.5,11,42.5,17c0,14.1,0,28.3,0,42.4c0,36.3,0,72.6,0,108.9
			c0,0.5,0,1,0,1.5h261.1C303.6,154.5,303.7,139.3,303.7,124.1z M293.6,160.6c-80.3,0-160.5,0-241,0c0-48,0-95.8,0-143.7
			c80.4,0,160.6,0,241,0C293.6,64.8,293.6,112.6,293.6,160.6z"/>
	</g>
</g>
<g>
	<path class="st4" d="M277.5,88.1h-77.1c-2.6,0-4.8-2.2-4.8-4.8V70.5c0-2.6,2.2-4.8,4.8-4.8h77.1c2.6,0,4.8,2.2,4.8,4.8v12.9
		C282.2,86,280.1,88.1,277.5,88.1z"/>
	<path class="st2" d="M207.6,74.4c0,0-0.1-0.1-0.3-0.2c-0.2-0.1-0.5-0.2-0.7-0.3c-0.2-0.1-0.6-0.2-0.9-0.3c-0.3-0.1-0.7-0.1-0.9-0.1
		c-0.5,0-0.7,0.1-1,0.2c-0.2,0.1-0.3,0.3-0.3,0.7c0,0.2,0.1,0.5,0.2,0.6c0.2,0.1,0.5,0.2,0.8,0.3c0.3,0.1,0.7,0.2,1.2,0.3
		c0.7,0.2,1.2,0.5,1.7,0.7c0.5,0.2,0.9,0.6,1.1,1c0.2,0.3,0.5,0.9,0.5,1.6c0,0.6-0.1,1-0.3,1.5c-0.2,0.5-0.5,0.8-0.9,1
		c-0.3,0.2-0.8,0.5-1.2,0.6c-0.5,0.1-0.9,0.2-1.5,0.2c-0.6,0-1,0-1.6-0.1c-0.6-0.1-1-0.2-1.6-0.5c-0.5-0.2-0.9-0.5-1.4-0.7l1-2.2
		c0,0.1,0.2,0.1,0.5,0.3c0.2,0.1,0.5,0.2,0.8,0.5c0.3,0.1,0.7,0.2,1.1,0.3c0.3,0.1,0.8,0.2,1.1,0.2c0.5,0,0.8-0.1,1-0.2
		c0.2-0.1,0.3-0.3,0.3-0.6s-0.1-0.5-0.3-0.6c-0.2-0.1-0.6-0.3-0.9-0.5c-0.3-0.1-0.8-0.2-1.4-0.3c-0.7-0.2-1.1-0.5-1.6-0.7
		c-0.5-0.2-0.7-0.6-0.9-0.9c-0.2-0.3-0.3-0.8-0.3-1.4c0-0.8,0.2-1.4,0.6-1.8c0.3-0.5,0.8-0.9,1.4-1.1c0.6-0.2,1.2-0.3,1.9-0.3
		c0.5,0,1,0.1,1.5,0.2c0.5,0.1,0.9,0.2,1.2,0.5c0.5,0.2,0.8,0.3,1,0.6L207.6,74.4z"/>
	<path class="st2" d="M210.1,79.1v-4.9h2.4v4.4c0,0.5,0.1,0.8,0.3,1c0.2,0.2,0.5,0.3,0.8,0.3c0.2,0,0.5,0,0.6-0.1
		c0.2-0.1,0.3-0.2,0.6-0.3c0.2-0.1,0.3-0.3,0.5-0.7v-4.8h2.4v5.1c0,0.2,0,0.3,0.1,0.5c0.1,0.1,0.2,0.1,0.5,0.1v1.9
		c-0.2,0-0.5,0.1-0.6,0.1c-0.1,0-0.3,0-0.5,0c-0.5,0-0.8-0.1-1-0.2c-0.2-0.1-0.3-0.5-0.5-0.7v-0.5c-0.3,0.5-0.8,0.9-1.4,1.1
		c-0.6,0.2-1.1,0.3-1.8,0.3c-0.8,0-1.4-0.2-1.8-0.8C210.3,80.7,210.1,80,210.1,79.1z"/>
	<path class="st2" d="M222.3,81.9c-0.7,0-1.2-0.1-1.9-0.3c-0.7-0.2-1.1-0.6-1.6-1l0.8-1.5c0.5,0.3,0.9,0.6,1.4,0.8s0.9,0.2,1.2,0.2
		c0.3,0,0.6,0,0.7-0.1c0.2-0.1,0.2-0.2,0.2-0.5c0-0.1,0-0.2-0.1-0.3c-0.1-0.1-0.2-0.1-0.5-0.2c-0.2-0.1-0.5-0.1-0.8-0.2
		c-0.6-0.2-1.1-0.3-1.5-0.6c-0.5-0.2-0.7-0.5-0.9-0.7c-0.2-0.2-0.3-0.6-0.3-1c0-0.6,0.1-0.9,0.3-1.4c0.2-0.3,0.7-0.7,1.1-0.9
		s1-0.3,1.7-0.3c0.6,0,1,0.1,1.6,0.2c0.5,0.2,1,0.5,1.5,0.9l-0.9,1.5c-0.5-0.3-0.8-0.6-1.1-0.7c-0.3-0.1-0.7-0.2-1-0.2
		c-0.2,0-0.3,0-0.5,0.1c-0.1,0-0.2,0.1-0.3,0.2c-0.1,0.1-0.1,0.2-0.1,0.3s0,0.2,0.1,0.3c0.1,0.1,0.2,0.2,0.5,0.2
		c0.2,0.1,0.5,0.1,0.7,0.2c0.7,0.2,1.1,0.3,1.6,0.6s0.8,0.5,1,0.7c0.2,0.3,0.3,0.7,0.3,1.1c0,0.8-0.3,1.4-0.9,1.8
		C224.1,81.7,223.3,81.9,222.3,81.9z"/>
	<path class="st2" d="M230.5,81.9c-0.7,0-1.2-0.1-1.8-0.3c-0.5-0.2-0.9-0.5-1.4-0.9c-0.3-0.3-0.7-0.8-0.8-1.2
		c-0.2-0.5-0.3-1-0.3-1.5c0-0.7,0.1-1.4,0.5-1.9c0.3-0.6,0.8-1,1.5-1.5c0.6-0.3,1.4-0.6,2.3-0.6s1.7,0.2,2.3,0.6
		c0.6,0.3,1.1,0.9,1.4,1.5l-2.3,0.7c-0.1-0.2-0.3-0.5-0.6-0.6c-0.2-0.1-0.5-0.2-0.8-0.2s-0.6,0.1-0.9,0.2c-0.2,0.2-0.5,0.3-0.6,0.7
		c-0.1,0.3-0.2,0.7-0.2,1s0.1,0.8,0.2,1c0.1,0.3,0.3,0.6,0.7,0.7c0.2,0.1,0.6,0.2,0.9,0.2c0.2,0,0.3,0,0.6-0.1
		c0.2-0.1,0.3-0.1,0.5-0.2c0.1-0.1,0.2-0.2,0.3-0.3l2.3,0.7c-0.2,0.5-0.5,0.8-0.8,1c-0.3,0.3-0.8,0.6-1.2,0.7
		C231.6,81.8,231,81.9,230.5,81.9z"/>
	<path class="st2" d="M240.1,76c-0.6,0-1.1,0.1-1.6,0.2c-0.5,0.2-0.8,0.5-1,0.8v4.6h-2.4V74h2.2v1.5c0.2-0.6,0.7-0.9,1-1.2
		c0.5-0.3,0.9-0.5,1.4-0.5c0.1,0,0.2,0,0.2,0h0.1V76H240.1z"/>
	<path class="st2" d="M241.1,73.2V71h2.4v2.2H241.1z M241.1,81.8V74h2.4v7.7h-2.4V81.8z"/>
	<path class="st2" d="M249.7,81.9c-0.6,0-1.1-0.1-1.6-0.3s-0.8-0.6-1-1v1.2h-2V71h2.4v4.4c0.2-0.5,0.6-0.8,1-1s0.9-0.3,1.6-0.3
		c0.5,0,0.9,0.1,1.4,0.3c0.5,0.2,0.8,0.5,1,0.9c0.3,0.3,0.6,0.8,0.7,1.2c0.1,0.5,0.2,1,0.2,1.6c0,0.6-0.1,1-0.2,1.6
		c-0.2,0.5-0.5,0.9-0.8,1.2c-0.3,0.3-0.7,0.7-1.1,0.8C250.7,81.8,250.2,81.9,249.7,81.9z M249,80c0.2,0,0.6,0,0.8-0.1
		c0.2-0.1,0.5-0.2,0.6-0.5c0.2-0.2,0.3-0.3,0.3-0.6c0.1-0.2,0.1-0.5,0.1-0.8s-0.1-0.7-0.2-1c-0.1-0.3-0.3-0.6-0.6-0.8
		c-0.2-0.2-0.6-0.3-0.9-0.3c-0.2,0-0.5,0.1-0.7,0.2c-0.2,0.1-0.5,0.2-0.6,0.5c-0.2,0.2-0.3,0.5-0.5,0.7v1.6c0.1,0.1,0.2,0.3,0.3,0.5
		c0.1,0.1,0.2,0.2,0.3,0.3c0.1,0.1,0.3,0.1,0.5,0.2C248.7,79.9,248.9,80,249,80z"/>
	<path class="st2" d="M254.5,73.2V71h2.4v2.2H254.5z M254.5,81.8V74h2.4v7.7h-2.4V81.8z"/>
	<path class="st2" d="M263.4,76c-0.6,0-1.1,0.1-1.6,0.2c-0.5,0.2-0.8,0.5-1,0.8v4.6h-2.4V74h2.2v1.5c0.2-0.6,0.7-0.9,1-1.2
		c0.5-0.3,0.9-0.5,1.4-0.5c0.1,0,0.2,0,0.2,0h0.1V76H263.4z"/>
	<path class="st2" d="M267.4,81.9c-0.7,0-1.2-0.1-1.9-0.3c-0.7-0.2-1.1-0.6-1.6-1l0.8-1.5c0.5,0.3,0.9,0.6,1.4,0.8
		c0.5,0.2,0.9,0.2,1.2,0.2s0.6,0,0.7-0.1c0.2-0.1,0.2-0.2,0.2-0.5c0-0.1,0-0.2-0.1-0.3c-0.1-0.1-0.2-0.1-0.5-0.2
		c-0.2-0.1-0.5-0.1-0.8-0.2c-0.6-0.2-1.1-0.3-1.5-0.6c-0.5-0.2-0.7-0.5-0.9-0.7c-0.2-0.2-0.3-0.6-0.3-1c0-0.6,0.1-0.9,0.3-1.4
		c0.2-0.3,0.7-0.7,1.1-0.9c0.5-0.2,1-0.3,1.7-0.3c0.6,0,1,0.1,1.6,0.2c0.5,0.2,1,0.5,1.5,0.9l-0.9,1.5c-0.5-0.3-0.8-0.6-1.1-0.7
		c-0.3-0.1-0.7-0.2-1-0.2c-0.2,0-0.3,0-0.5,0.1c-0.1,0-0.2,0.1-0.3,0.2c-0.1,0.1-0.1,0.2-0.1,0.3s0,0.2,0.1,0.3
		c0.1,0.1,0.2,0.2,0.3,0.2c0.2,0.1,0.5,0.1,0.7,0.2c0.7,0.2,1.1,0.3,1.6,0.6c0.5,0.2,0.8,0.5,1,0.7c0.2,0.3,0.3,0.7,0.3,1.1
		c0,0.8-0.3,1.4-0.9,1.8C269.1,81.7,268.3,81.9,267.4,81.9z"/>
	<path class="st2" d="M275.4,81.9c-0.7,0-1.2-0.1-1.8-0.3c-0.5-0.2-0.9-0.5-1.4-0.9c-0.3-0.3-0.7-0.8-0.8-1.2
		c-0.2-0.5-0.3-1-0.3-1.5c0-0.8,0.1-1.4,0.5-2c0.3-0.6,0.8-1.1,1.5-1.5c0.6-0.3,1.4-0.6,2.3-0.6c0.9,0,1.6,0.2,2.3,0.6
		c0.6,0.3,1.1,0.9,1.4,1.5c0.3,0.6,0.5,1.2,0.5,1.9c0,0.1,0,0.2,0,0.3s0,0.2,0,0.3h-5.8c0,0.3,0.1,0.6,0.3,0.8
		c0.1,0.2,0.3,0.5,0.7,0.6c0.2,0.1,0.6,0.2,0.8,0.2c0.3,0,0.7-0.1,1-0.2c0.3-0.2,0.6-0.3,0.7-0.7l2,0.6c-0.2,0.5-0.5,0.8-0.8,1
		c-0.3,0.3-0.8,0.6-1.2,0.7C276.6,81.8,276,81.9,275.4,81.9z M273.7,77.3h3.4c0-0.3-0.1-0.6-0.3-0.8c-0.1-0.2-0.3-0.5-0.6-0.6
		c-0.2-0.1-0.5-0.2-0.8-0.2c-0.3,0-0.6,0.1-0.8,0.2c-0.2,0.1-0.5,0.3-0.6,0.6C273.8,76.6,273.7,76.9,273.7,77.3z"/>
</g>
<path class="st4" d="M307.2,179.1H36.8c-1.8,0-3.3-1.5-3.3-3.3v-7c0-1.8,1.5-3.3,3.3-3.3h270.4c1.8,0,3.3,1.5,3.3,3.3v7
	C310.5,177.6,309.1,179.1,307.2,179.1z"/>
<g>
	<path class="st5" d="M249.2,71c-0.2,0.3-0.3,0.6-0.5,0.7c-1.6,1.6-3.2,3.2-4.8,4.8c-0.4,0.4-0.9,0.4-1.3,0.1
		c-0.4-0.4-0.4-0.9,0.1-1.4c1.6-1.6,3.2-3.2,4.8-4.8c0.3-0.3,0.7-0.4,1-0.2C248.8,70.4,249,70.7,249.2,71z"/>
	<path class="st5" d="M228.4,76.6c-0.3,0.3-0.9,0.4-1.3,0c-1.6-1.6-3.3-3.2-4.9-4.9c-0.2-0.2-0.2-0.7-0.2-1c0.1-0.3,0.5-0.4,0.7-0.6
		c0.3,0.2,0.6,0.3,0.7,0.5c1.6,1.6,3.2,3.2,4.8,4.8C228.8,75.7,228.8,76.2,228.4,76.6z"/>
	<path class="st5" d="M236.4,66c0,2.2,0,4.4,0,6.6c0,0.6-0.3,1-0.9,1c-0.5,0-0.9-0.4-0.9-1c0-1.1,0-2.2,0-3.3V66
		c0-0.7,0.3-1.1,0.9-1.1C236.1,64.9,236.4,65.3,236.4,66z"/>
	<path class="st5" d="M225.5,83.7c0,0.6-0.4,0.9-1.1,0.9c-1.1,0-2.1,0-3.2,0c-1.1,0-2.2,0-3.3,0c-0.7,0-1.1-0.3-1.1-0.9
		c0-0.5,0.4-0.9,1.1-0.9c2.2,0,4.3,0,6.5,0C225,82.8,225.4,83.1,225.5,83.7z"/>
	<path class="st5" d="M254.3,83.7c0,0.6-0.4,0.9-1.1,0.9c-2.2,0-4.4,0-6.6,0c-0.6,0-1-0.3-1-0.9c0-0.5,0.4-0.9,1-0.9
		c1.1,0,2.2,0,3.3,0c1.1,0,2.2,0,3.3,0C253.9,82.8,254.3,83.1,254.3,83.7z"/>
	<path class="st5" d="M267.8,133.1c-0.2,4.5-2.1,8.5-5.4,11.6c-2.5,2.4-5.6,3.6-9.1,3.6c-4,0-8,0.1-12,0c-5.8-0.2-10.1-3-12.8-8.1
		c-1.7-3.2-3.2-6.4-4.9-9.6c-1.7-3.2-3.8-6.1-6.4-8.6c-1.2-1.1-1.9-2.4-2-4c-0.2-2.5,1.2-4.8,3.3-5.8c2.2-1.1,4.9-0.7,6.7,1
		c1.5,1.5,3,3.1,4.4,4.6c0.2,0.2,0.4,0.4,0.6,0.7c0.1,0,0.1,0,0.2-0.1v-1.2c0-10.6,0-21.1,0-31.7c0-0.9,0-1.9,0.1-2.8
		c0.3-2.5,2.3-4.4,4.7-4.7c2.4-0.3,4.7,1.2,5.6,3.5c0.2,0.7,0.3,1.4,0.3,2.2c0,7.1,0,14.2,0,21.2v0.8c1.7-1.4,3.6-1.8,5.5-1
		c2,0.8,3.1,2.3,3.4,4.5c1.7-1.3,3.6-1.7,5.6-0.9c2,0.8,3,2.5,3.3,4.6c0.2-0.1,0.3-0.3,0.5-0.4c1.7-1.2,3.5-1.4,5.3-0.6
		c1.9,0.9,3.1,2.4,3.1,4.4C267.9,121.9,268,127.5,267.8,133.1z"/>
</g>
<rect x="62" y="23.4" class="st2" width="126.8" height="127.3"/>
<g>
	<path class="st4" d="M162.1,70.7h-13.9h-0.6h-13.9l1.7,65.9c0,0,2.6,0.8,12.4,0.8c0,0,0.4,0,0.5,0s0.5,0,0.5,0
		c9.3,0,12.1-0.8,12.1-0.8L162.1,70.7z"/>
	<g>
		<path class="st4" d="M178.8,58.4c0,0-10.2-7-15.7-13.7c1-5.2,1.7-8.5,1.8-9c0.4-3.6-1.7-0.3-1.7-0.3l-1.9,9
			c-2.7,1.4-10.4,4.9-20.7,6.4c0,0,7,6.4,17.5,8.9l-14.7,71.3l0.8,1.2c0,0,9.4-43.4,15.6-72C165.3,61.3,171.8,61.2,178.8,58.4z"/>
		<path class="st4" d="M104.9,79.4c3.2-7.8-4.6-39.3-4.6-39.3H88.5h-0.4H76.4c0,0-7.8,31.5-4.6,39.3c3.2,7.8,13.4,14.6,14.2,23.4
			s1.2,24.9-0.9,28.5c-2.2,3.8-11.9,3.3-11.9,5.8c0,3.5,13.2,2.7,15,2.6c1.9,0.1,15,0.9,15-2.6c0-2.6-9.7-2.2-11.9-5.8
			c-2.2-3.8-1.6-19.7-0.9-28.5C91.4,94,101.7,87.3,104.9,79.4z"/>
		<path class="st5" d="M129.9,134.5c-6.1-1-7.5-5.3-7.5-5.3v-17.9c0-9.6,3.1-13.3,3.1-13.3l16.4-22h-21.3H99.2l16.4,21.8
			c0,0,3.1,3.7,3.1,13.3v17.9c0,0-1.3,4.3-7.5,5.3c-6.1,1-2.1,2.4-2.1,2.4s4,0.9,11.5,0.9c7.5,0,11.5-0.9,11.5-0.9
			S135.9,135.5,129.9,134.5z"/>
		<g>
			<path class="st5" d="M164.8,138.8c-1.1,0-2.1,0-3.2,0L164.8,138.8c1.1,0,2.1,0,3.2,0H164.8z"/>
			<path class="st5" d="M172.4,137.3c-0.8-0.6-1-1.4-1.3-2.1c-0.7-2.1-1.4-4.2-2.1-6.3c1.9-1.4,1.9-2.3,0-3.9
				c0.9-3.5,1.8-7,2.6-10.6c0-0.2,0.2-0.5,0.3-0.6c0.6-0.4,1-0.8,0.8-1.6c-0.3-0.8-1-0.8-1.7-0.8c-4.2,0-8.4,0-12.7,0
				c-0.3,0-0.6,0-0.8,0.1c-0.8,0.3-1.2,1.4-0.5,1.8c1,0.7,1,1.7,1.2,2.6c0.8,3,1.5,6.1,2.3,9.1c-2.2,1.3-1.7,3,0,3.8
				c-0.8,2.4-1.6,4.8-2.4,7.1c-0.2,0.4-0.5,0.8-0.8,1.2c-0.5,0.5-0.7,1.1-0.2,1.7c0.3,0.3,0.9,0.5,1.4,0.5c4.2,0,8.5,0,12.8,0
				c0.3,0,0.7,0,0.9-0.1C172.8,138.8,173.1,137.8,172.4,137.3z M164.8,138.8h-3.2C162.6,138.8,163.7,138.8,164.8,138.8l3.2,0
				C166.9,138.8,165.8,138.8,164.8,138.8z"/>
			<path class="st5" d="M168,138.8c-1.1,0-2.1,0-3.2,0h-3.2c1.1,0,2.1,0,3.2,0H168z"/>
		</g>
	</g>
</g>
</svg>
