<?xml version="1.0" encoding="utf-8"?>
<!-- Generator: Adobe Illustrator 25.0.0, SVG Export Plug-In . SVG Version: 6.00 Build 0)  -->
<svg version="1.1" id="Capa_1" xmlns="http://www.w3.org/2000/svg" xmlns:xlink="http://www.w3.org/1999/xlink" x="0px" y="0px"
	 viewBox="0 0 346.2 212" style="enable-background:new 0 0 346.2 212;" xml:space="preserve">
<style type="text/css">
	.st0{fill:#FF3600;}
	.st1{fill:#FDECE9;}
	.st2{clip-path:url(#SVGID_2_);fill:#F4E8D2;}
	.st3{clip-path:url(#SVGID_2_);fill:#F1DAAE;}
	.st4{clip-path:url(#SVGID_2_);fill:#FDECE9;}
	.st5{clip-path:url(#SVGID_2_);fill:#04382B;}
	.st6{clip-path:url(#SVGID_2_);fill:#606060;}
	.st7{clip-path:url(#SVGID_2_);fill:#FA003C;}
	.st8{clip-path:url(#SVGID_2_);fill:#FFAD03;}
</style>
<g>
	<path class="st0" d="M34.2,48.5H312c6.3,0,11.5,4.7,11.5,10.4v136.1c0,5.8-5.1,10.4-11.5,10.4H34.2c-6.3,0-11.5-4.7-11.5-10.4V59
		C22.7,53.2,27.9,48.5,34.2,48.5z"/>
	<path class="st1" d="M299.9,192.7c-0.9,0-1.7-0.1-2.4-0.2c-0.7-0.1-1.4-0.3-2.2-0.5c-0.8-0.3-1.5-0.6-2.1-0.9
		c-0.7-0.4-1.3-0.8-1.8-1.2c-0.4-0.3-0.8-0.7-1.2-1.1c-2.3,2.4-5.9,3.9-9.7,3.9c-3.9,0-7.5-1.4-9.8-3.8c-2.3,2.4-5.9,3.8-9.8,3.8
		c-3.9,0-7.5-1.4-9.8-3.8c-2.3,2.4-5.9,3.8-9.8,3.8c-3.9,0-7.5-1.4-9.8-3.8c-2.3,2.4-5.9,3.8-9.8,3.8c-3.9,0-7.5-1.4-9.8-3.8
		c-2.3,2.4-5.9,3.8-9.8,3.8c-3.9,0-7.5-1.4-9.8-3.8c-2.3,2.4-5.9,3.8-9.8,3.8c-3.9,0-7.5-1.4-9.8-3.8c-2.3,2.4-5.9,3.8-9.8,3.8
		c-3.9,0-7.5-1.4-9.8-3.8c-2.3,2.4-5.9,3.8-9.8,3.8c-3.9,0-7.5-1.4-9.8-3.8c-2.3,2.4-5.9,3.8-9.8,3.8s-7.5-1.4-9.8-3.8
		c-2.3,2.4-5.9,3.8-9.8,3.8c-3.9,0-7.5-1.4-9.8-3.8c-2.3,2.4-5.9,3.8-9.8,3.8c-3.9,0-7.5-1.4-9.8-3.8c-2.3,2.4-5.9,3.8-9.8,3.8
		c-3.9,0-7.5-1.5-9.8-3.9c-0.4,0.4-0.8,0.8-1.2,1.1c-0.6,0.5-1.2,0.9-1.9,1.2c-0.6,0.3-1.3,0.6-2.1,0.9c-0.8,0.2-1.6,0.4-2.3,0.5
		c-1.5,0.3-3.3,0.3-4.8,0c-0.7-0.1-1.4-0.3-2.2-0.5c-0.9-0.3-1.6-0.6-2.1-0.9c-0.7-0.3-1.3-0.8-1.8-1.2c-0.6-0.4-1.1-0.9-1.5-1.5
		c-0.4-0.5-0.8-1-1.1-1.6c-0.3-0.6-0.6-1.2-0.7-1.8c-0.2-0.6-0.2-1.2-0.2-1.9c0-0.6,0.1-1.3,0.2-1.9c0.1-0.5,0.4-1.1,0.7-1.8
		c0.4-0.6,0.7-1.2,1.1-1.6c0.4-0.5,0.9-1,1.5-1.4c0.6-0.4,1.2-0.8,1.9-1.2c0.1,0,0.1-0.1,0.2-0.1c-3.5-1.7-5.6-4.7-5.6-8
		s2.1-6.3,5.6-8c-3.5-1.7-5.6-4.7-5.6-8c0-3.3,2.1-6.3,5.6-8c-3.5-1.7-5.6-4.7-5.6-8c0-3.3,2.1-6.3,5.6-8c-3.5-1.7-5.6-4.7-5.6-8
		c0-3.3,2.1-6.3,5.6-8c-3.5-1.7-5.6-4.7-5.6-8c0-3.3,2.1-6.3,5.6-8c-3.5-1.7-5.6-4.7-5.6-8c0-3.3,2.1-6.3,5.6-8
		c-0.1,0-0.1-0.1-0.2-0.1c-0.7-0.4-1.3-0.8-1.8-1.2c-2.3-1.8-3.6-4.2-3.6-6.7c0-0.6,0.1-1.3,0.2-1.9c0.1-0.5,0.4-1.1,0.7-1.8
		c0.4-0.6,0.7-1.2,1.1-1.6c0.4-0.5,0.9-1,1.5-1.5c0.5-0.4,1.1-0.8,1.8-1.2c0.6-0.3,1.3-0.6,2.1-0.9c0.9-0.3,1.6-0.4,2.3-0.5
		c3.9-0.6,8.1,0.4,11,2.6c0.4,0.3,0.8,0.7,1.2,1.1c2.3-2.4,5.9-3.9,9.8-3.9c3.9,0,7.5,1.4,9.8,3.8c2.3-2.4,5.9-3.8,9.8-3.8
		c3.9,0,7.5,1.4,9.8,3.8c2.3-2.4,5.9-3.8,9.8-3.8c3.9,0,7.5,1.4,9.8,3.8c2.3-2.4,5.9-3.8,9.8-3.8s7.5,1.4,9.8,3.8
		c2.3-2.4,5.9-3.8,9.8-3.8c3.9,0,7.5,1.4,9.8,3.8c2.3-2.4,5.9-3.8,9.8-3.8c3.9,0,7.5,1.4,9.8,3.8c2.3-2.4,5.9-3.8,9.8-3.8
		c3.9,0,7.5,1.4,9.8,3.8c2.3-2.4,5.9-3.8,9.8-3.8c3.9,0,7.5,1.4,9.8,3.8c2.3-2.4,5.9-3.8,9.8-3.8c3.9,0,7.5,1.4,9.8,3.8
		c2.3-2.4,5.9-3.8,9.8-3.8c3.9,0,7.5,1.4,9.8,3.8c2.3-2.4,5.9-3.8,9.8-3.8c3.9,0,7.5,1.4,9.8,3.8c2.3-2.4,5.9-3.8,9.8-3.8
		c3.9,0,7.5,1.5,9.7,3.9c0.3-0.4,0.7-0.7,1.2-1.1c0.5-0.4,1.1-0.8,1.8-1.2c0.6-0.3,1.3-0.6,2.1-0.9c0.8-0.3,1.6-0.4,2.3-0.5
		c1.5-0.2,3.2-0.2,4.7,0c0.7,0.1,1.5,0.3,2.3,0.5c0.8,0.3,1.5,0.6,2.1,0.9c0.7,0.4,1.3,0.8,1.8,1.2c0.6,0.5,1.1,0.9,1.5,1.5
		c0.5,0.5,0.8,1.1,1.1,1.6c0.3,0.5,0.5,1,0.7,1.7c0.2,0.7,0.2,1.3,0.2,1.9c0,2.5-1.3,5-3.6,6.7c-0.6,0.4-1.2,0.8-1.8,1.2
		c-0.1,0-0.1,0.1-0.2,0.1c3.5,1.7,5.6,4.7,5.6,8c0,3.3-2.1,6.3-5.6,8c3.5,1.7,5.6,4.7,5.6,8c0,3.3-2.1,6.3-5.6,8
		c3.5,1.7,5.6,4.7,5.6,8c0,3.3-2.1,6.3-5.6,8c3.5,1.7,5.6,4.7,5.6,8c0,3.3-2.1,6.3-5.6,8c3.5,1.7,5.6,4.7,5.6,8c0,3.3-2.1,6.3-5.6,8
		c3.5,1.7,5.6,4.7,5.6,8c0,3.3-2.1,6.3-5.6,8c0.7,0.4,1.4,0.8,2,1.3c0.6,0.5,1.1,0.9,1.5,1.5c0.5,0.5,0.8,1.1,1.1,1.6
		c0.3,0.5,0.5,1.1,0.7,1.8c0.1,0.6,0.2,1.3,0.2,1.9c0,0.6-0.1,1.3-0.2,1.9c-0.2,0.7-0.4,1.3-0.7,1.8c-0.3,0.5-0.6,1.1-1.1,1.6
		c-0.5,0.5-1,1-1.5,1.5c-0.6,0.5-1.2,0.9-1.9,1.2c-0.6,0.3-1.3,0.6-2.1,0.9c-0.8,0.2-1.6,0.4-2.3,0.5
		C301.6,192.6,300.8,192.7,299.9,192.7z M290.1,186.3c0.4,0,0.8,0.2,1,0.5c0.2,0.2,0.3,0.5,0.5,0.7c0.4,0.4,0.8,0.8,1.2,1.2
		c0.4,0.3,1,0.7,1.5,1c0.5,0.3,1.1,0.5,1.7,0.7c0.7,0.2,1.3,0.3,1.8,0.4c1.2,0.2,2.7,0.2,3.9,0c0.6-0.1,1.2-0.2,1.9-0.4
		c0.6-0.2,1.2-0.4,1.7-0.7c0.5-0.3,1-0.6,1.5-1c0.5-0.3,0.9-0.8,1.2-1.2c0.4-0.5,0.7-0.9,0.9-1.3c0.3-0.5,0.4-0.9,0.6-1.5
		c0.1-0.5,0.2-1,0.2-1.5c0-0.5-0.1-1-0.2-1.5c-0.2-0.6-0.3-1-0.6-1.4c-0.2-0.5-0.5-0.9-0.9-1.4c-0.3-0.4-0.7-0.8-1.2-1.2
		c-0.9-0.7-2.1-1.3-3.3-1.7c-0.4-0.1-0.7-0.4-0.7-0.8c0-0.4,0.3-0.7,0.7-0.8c3.8-1.2,6.2-4,6.2-7.2c0-3.2-2.4-6-6.2-7.2
		c-0.4-0.1-0.7-0.4-0.7-0.8c0-0.3,0.3-0.7,0.7-0.8c3.8-1.2,6.2-4,6.2-7.2s-2.4-6-6.2-7.2c-0.4-0.1-0.7-0.4-0.7-0.8
		c0-0.4,0.3-0.7,0.7-0.8c3.8-1.2,6.2-4,6.2-7.2c0-3.2-2.4-6-6.2-7.2c-0.4-0.1-0.7-0.4-0.7-0.8c0-0.4,0.3-0.7,0.7-0.8
		c3.8-1.2,6.2-4,6.2-7.2c0-3.2-2.4-6-6.2-7.2c-0.4-0.1-0.7-0.4-0.7-0.8c0-0.4,0.3-0.7,0.7-0.8c3.8-1.2,6.2-4,6.2-7.2
		c0-3.2-2.4-6-6.2-7.2c-0.4-0.1-0.7-0.4-0.7-0.8c0-0.4,0.3-0.7,0.7-0.8c3.8-1.2,6.2-4,6.2-7.2c0-3.2-2.4-6-6.2-7.2
		c-0.4-0.1-0.7-0.5-0.7-0.8c0-0.4,0.3-0.7,0.7-0.8c0.7-0.2,1.3-0.5,1.7-0.7c0.6-0.3,1.1-0.6,1.5-1c1.9-1.5,2.9-3.5,2.9-5.5
		c0-0.4-0.1-0.9-0.2-1.5c-0.2-0.6-0.3-1-0.6-1.4c-0.2-0.5-0.5-0.9-0.9-1.4c-0.3-0.4-0.7-0.8-1.2-1.2c-0.4-0.3-0.9-0.7-1.5-1
		c-0.5-0.3-1.1-0.5-1.7-0.7c-0.6-0.2-1.2-0.3-1.8-0.4c-1.3-0.2-2.6-0.2-3.9,0c-0.6,0.1-1.2,0.2-1.9,0.4c-0.6,0.2-1.2,0.4-1.7,0.7
		c-0.6,0.3-1.1,0.6-1.5,1c-0.5,0.4-0.9,0.8-1.2,1.2c-0.2,0.2-0.4,0.5-0.6,0.7c-0.2,0.3-0.6,0.5-1,0.5c-0.4,0-0.8-0.2-1-0.5
		c-1.7-2.6-5.1-4.2-8.8-4.2c-3.7,0-7.1,1.6-8.8,4.1c-0.4,0.6-1.6,0.6-2,0c-1.7-2.5-5.1-4.1-8.8-4.1c-3.7,0-7.1,1.6-8.8,4.1
		c-0.2,0.3-0.6,0.5-1,0.5c-0.4,0-0.8-0.2-1-0.5c-1.7-2.5-5.1-4.1-8.8-4.1c-3.7,0-7.1,1.6-8.8,4.1c-0.4,0.6-1.6,0.6-2,0
		c-1.7-2.5-5.1-4.1-8.8-4.1c-3.7,0-7.1,1.6-8.8,4.1c-0.2,0.3-0.6,0.5-1,0.5c-0.4,0-0.8-0.2-1-0.5c-1.7-2.5-5.1-4.1-8.8-4.1
		c-3.7,0-7.1,1.6-8.8,4.1c-0.2,0.3-0.6,0.5-1,0.5c-0.4,0-0.8-0.2-1-0.5c-1.7-2.5-5.1-4.1-8.8-4.1c-3.7,0-7.1,1.6-8.8,4.1
		c-0.4,0.6-1.6,0.6-2,0c-1.7-2.5-5.1-4.1-8.8-4.1c-3.7,0-7.1,1.6-8.8,4.1c-0.2,0.3-0.6,0.4-1,0.5c-0.4,0-0.8-0.2-1-0.5
		c-1.7-2.5-5.1-4.1-8.8-4.1c-3.7,0-7.1,1.6-8.8,4.1c-0.2,0.3-0.6,0.5-1,0.5c-0.4,0-0.8-0.2-1-0.5c-1.7-2.5-5.1-4.1-8.8-4.1
		c-3.7,0-7.1,1.6-8.8,4.1c-0.4,0.6-1.6,0.6-2,0c-1.7-2.5-5.1-4.1-8.8-4.1c-3.7,0-7.1,1.6-8.8,4.1c-0.4,0.6-1.6,0.6-2,0
		c-1.7-2.5-5.1-4.1-8.8-4.1c-3.7,0-7.1,1.6-8.8,4.1c-0.4,0.6-1.6,0.6-2,0c-1.7-2.5-5.1-4.1-8.8-4.1c-3.7,0-7.1,1.6-8.8,4.2
		c-0.2,0.3-0.6,0.5-1,0.5s-0.8-0.2-1-0.5c-0.5-0.8-1.1-1.4-1.7-1.9c-2.3-1.8-5.8-2.7-9-2.1c-0.6,0.1-1.2,0.2-1.9,0.4
		c-0.6,0.2-1.2,0.4-1.7,0.7c-0.6,0.3-1.1,0.6-1.5,1c-0.5,0.4-0.9,0.8-1.2,1.2c-0.3,0.4-0.6,0.8-0.9,1.4c-0.2,0.5-0.4,1-0.6,1.4
		c-0.1,0.5-0.2,1-0.2,1.5c0,2.1,1.1,4.1,2.9,5.5c0.5,0.4,1,0.7,1.5,1c0.5,0.3,1.1,0.5,1.7,0.7c0.4,0.1,0.7,0.5,0.7,0.8
		c0,0.3-0.2,0.7-0.6,0.8c-3.8,1.2-6.2,4-6.2,7.2c0,3.2,2.4,6,6.2,7.2c0.4,0.1,0.7,0.4,0.7,0.8c0,0.3-0.3,0.7-0.7,0.8
		c-3.8,1.2-6.2,4-6.2,7.2c0,3.2,2.4,6,6.2,7.2c0.4,0.1,0.7,0.4,0.7,0.8c0,0.4-0.3,0.7-0.7,0.8c-3.8,1.2-6.2,4-6.2,7.2
		c0,3.2,2.4,6,6.2,7.2c0.4,0.1,0.7,0.4,0.7,0.8c0,0.3-0.3,0.7-0.7,0.8c-3.8,1.2-6.2,4-6.2,7.2c0,3.2,2.4,6,6.2,7.2
		c0.4,0.1,0.7,0.4,0.7,0.8c0,0.4-0.3,0.7-0.7,0.8c-3.8,1.2-6.2,4-6.2,7.2c0,3.2,2.4,6,6.2,7.2c0.4,0.1,0.7,0.4,0.7,0.8
		c0,0.4-0.3,0.7-0.7,0.8c-3.8,1.2-6.2,4-6.2,7.2c0,3.2,2.4,6,6.2,7.2c0.4,0.1,0.7,0.5,0.7,0.8c0,0.4-0.3,0.7-0.8,0.8
		c-0.6,0.2-1.2,0.4-1.7,0.7c-0.6,0.3-1.1,0.6-1.5,1c-0.5,0.4-0.9,0.8-1.2,1.2c-0.3,0.4-0.6,0.8-0.9,1.4c-0.3,0.5-0.4,1-0.6,1.4
		c-0.1,0.5-0.2,1-0.2,1.5s0.1,1,0.2,1.5c0.1,0.5,0.3,0.9,0.6,1.5c0.3,0.5,0.6,0.9,0.9,1.3c0.4,0.4,0.8,0.8,1.2,1.2
		c0.5,0.4,1,0.7,1.5,1c0.5,0.2,1,0.5,1.7,0.7c0.6,0.2,1.2,0.3,1.8,0.4c1.2,0.2,2.7,0.2,3.9,0c0.6-0.1,1.2-0.2,1.9-0.4
		c0.6-0.2,1.2-0.4,1.7-0.7c0.5-0.3,1-0.6,1.5-1c0.4-0.3,0.9-0.7,1.3-1.2c0.2-0.2,0.3-0.4,0.5-0.7c0.2-0.3,0.6-0.5,1-0.5
		c0.4,0,0.8,0.2,1,0.5c1.7,2.6,5.1,4.2,8.8,4.2c3.7,0,7.1-1.6,8.8-4.1c0.4-0.6,1.6-0.6,2,0c1.7,2.5,5.1,4.1,8.8,4.1
		c3.7,0,7.1-1.6,8.8-4.1c0.4-0.6,1.6-0.6,2,0c1.7,2.5,5.1,4.1,8.8,4.1c3.7,0,7.1-1.6,8.8-4.1c0.4-0.6,1.6-0.6,2,0
		c1.7,2.5,5.1,4.1,8.8,4.1c3.7,0,7.1-1.6,8.8-4.1c0.2-0.3,0.6-0.5,1-0.5c0.4,0,0.8,0.2,1,0.5c1.7,2.5,5.1,4.1,8.8,4.1
		c3.7,0,7.1-1.6,8.8-4.1c0.2-0.3,0.6-0.5,1-0.5c0.4,0,0.8,0.2,1,0.5c1.7,2.5,5.1,4.1,8.8,4.1c3.7,0,7.1-1.6,8.8-4.1
		c0.2-0.3,0.6-0.5,1-0.5c0.4,0,0.8,0.2,1,0.5c1.7,2.5,5.1,4.1,8.8,4.1c3.7,0,7.1-1.6,8.8-4.1c0.4-0.6,1.6-0.6,2,0
		c1.7,2.5,5.1,4.1,8.8,4.1c3.7,0,7.1-1.6,8.8-4.1c0.4-0.6,1.6-0.6,2,0c1.7,2.5,5.1,4.1,8.8,4.1c3.7,0,7.1-1.6,8.8-4.1
		c0.2-0.3,0.6-0.5,1-0.5c0.4,0,0.8,0.2,1,0.5c1.7,2.5,5.1,4.1,8.8,4.1c3.7,0,7.1-1.6,8.8-4.1c0.2-0.3,0.6-0.5,1-0.5
		c0.4,0,0.8,0.2,1,0.5c1.7,2.5,5.1,4.1,8.8,4.1c3.7,0,7.1-1.6,8.8-4.1c0.4-0.6,1.6-0.6,2,0c1.7,2.5,5.1,4.1,8.8,4.1
		c3.7,0,7-1.6,8.8-4.2C289.3,186.5,289.7,186.3,290.1,186.3z"/>
	<g>
		<defs>
			<rect id="SVGID_1_" x="48.9" y="6.5" width="232" height="177"/>
		</defs>
		<clipPath id="SVGID_2_">
			<use xlink:href="#SVGID_1_"  style="overflow:visible;"/>
		</clipPath>
		<path class="st2" d="M229,34.1l6.6,1.2l-5.5-3.8l3.2-3.2l3.8,5.5l-1.2-6.6h4.5l-1.2,6.6l3.8-5.5l3.2,3.2l-5.5,3.8l6.6-1.2v4.5
			l-6.6-1.2l5.5,3.8l-3.2,3.2l-3.8-5.5l1.2,6.6h-4.5l1.2-6.6l-3.8,5.5l-3.2-3.2l5.5-3.8l-6.6,1.2V34.1z"/>
		<path class="st3" d="M277.5,177.9h-214c-1.9,0-3.4-1.5-3.4-3.4V23.3h220.8v151.2C280.9,176.4,279.4,177.9,277.5,177.9z"/>
		<path class="st4" d="M175.7,43H73.5v102.1h102.2V43z"/>
		<path class="st5" d="M280.9,23.3H60.1V9.9c0-1.9,1.5-3.4,3.4-3.4h214c1.9,0,3.4,1.5,3.4,3.4V23.3z"/>
		<path class="st5" d="M262.7,43H186v10.7h76.6V43z"/>
		<path class="st6" d="M262.7,67.8H186v5.3h76.6V67.8z"/>
		<path class="st6" d="M262.7,78.9H186v5.3h76.6V78.9z"/>
		<path class="st5" d="M258.4,144.5h-68.1c-2.3,0-4.2-1.9-4.2-4.2v-11.4c0-2.3,1.9-4.2,4.2-4.2h68.1c2.3,0,4.2,1.9,4.2,4.2v11.4
			C262.6,142.6,260.7,144.5,258.4,144.5z"/>
		<path class="st4" d="M196.7,132.4c0,0-0.1-0.1-0.3-0.2c-0.2-0.1-0.4-0.2-0.6-0.3c-0.2-0.1-0.5-0.2-0.8-0.3
			c-0.3-0.1-0.6-0.1-0.8-0.1c-0.4,0-0.6,0.1-0.9,0.2c-0.2,0.1-0.3,0.3-0.3,0.6c0,0.2,0.1,0.4,0.2,0.5c0.2,0.1,0.4,0.2,0.7,0.3
			c0.3,0.1,0.6,0.2,1.1,0.3c0.6,0.2,1.1,0.4,1.5,0.6c0.4,0.2,0.8,0.5,1,0.9c0.2,0.3,0.4,0.8,0.4,1.4c0,0.5-0.1,0.9-0.3,1.3
			c-0.2,0.4-0.4,0.7-0.8,0.9c-0.3,0.2-0.7,0.4-1.1,0.5c-0.4,0.1-0.8,0.2-1.3,0.2s-0.9,0-1.4-0.1c-0.5-0.1-0.9-0.2-1.4-0.4
			c-0.4-0.2-0.8-0.4-1.2-0.6l0.9-1.9c0,0.1,0.2,0.1,0.4,0.3c0.2,0.1,0.4,0.2,0.7,0.4c0.3,0.1,0.6,0.2,1,0.3c0.3,0.1,0.7,0.2,1,0.2
			c0.4,0,0.7-0.1,0.9-0.2c0.2-0.1,0.3-0.3,0.3-0.5c0-0.2-0.1-0.4-0.3-0.5c-0.2-0.1-0.5-0.3-0.8-0.4c-0.3-0.1-0.7-0.2-1.2-0.3
			c-0.6-0.2-1-0.4-1.4-0.6c-0.4-0.2-0.6-0.5-0.8-0.8c-0.2-0.3-0.3-0.7-0.3-1.2c0-0.7,0.2-1.2,0.5-1.6c0.3-0.4,0.7-0.8,1.2-1
			c0.5-0.2,1.1-0.3,1.7-0.3c0.4,0,0.9,0.1,1.3,0.2c0.4,0.1,0.8,0.2,1.1,0.4c0.4,0.2,0.7,0.3,0.9,0.5L196.7,132.4z"/>
		<path class="st4" d="M198.9,136.5v-4.3h2.1v3.9c0,0.4,0.1,0.7,0.3,0.9c0.2,0.2,0.4,0.3,0.7,0.3c0.2,0,0.4,0,0.5-0.1
			c0.2-0.1,0.3-0.2,0.5-0.3c0.2-0.1,0.3-0.3,0.4-0.6v-4.2h2.1v4.5c0,0.2,0,0.3,0.1,0.4c0.1,0.1,0.2,0.1,0.4,0.1v1.7
			c-0.2,0-0.4,0.1-0.5,0.1c-0.1,0-0.3,0-0.4,0c-0.4,0-0.7-0.1-0.9-0.2c-0.2-0.1-0.3-0.4-0.4-0.6l0-0.4c-0.3,0.4-0.7,0.8-1.2,1
			c-0.5,0.2-1,0.3-1.6,0.3c-0.7,0-1.2-0.2-1.6-0.7C199.1,137.9,198.9,137.3,198.9,136.5z"/>
		<path class="st4" d="M209.7,139c-0.6,0-1.1-0.1-1.7-0.3c-0.6-0.2-1-0.5-1.4-0.9l0.7-1.3c0.4,0.3,0.8,0.5,1.2,0.7
			c0.4,0.2,0.8,0.2,1.1,0.2c0.3,0,0.5,0,0.6-0.1c0.2-0.1,0.2-0.2,0.2-0.4c0-0.1,0-0.2-0.1-0.3c-0.1-0.1-0.2-0.1-0.4-0.2
			c-0.2-0.1-0.4-0.1-0.7-0.2c-0.5-0.2-1-0.3-1.3-0.5c-0.4-0.2-0.6-0.4-0.8-0.6c-0.2-0.2-0.3-0.5-0.3-0.9c0-0.5,0.1-0.8,0.3-1.2
			c0.2-0.3,0.6-0.6,1-0.8c0.4-0.2,0.9-0.3,1.5-0.3c0.5,0,0.9,0.1,1.4,0.2c0.4,0.2,0.9,0.4,1.3,0.8l-0.8,1.3c-0.4-0.3-0.7-0.5-1-0.6
			c-0.3-0.1-0.6-0.2-0.9-0.2c-0.2,0-0.3,0-0.4,0.1c-0.1,0-0.2,0.1-0.3,0.2c-0.1,0.1-0.1,0.2-0.1,0.3c0,0.1,0,0.2,0.1,0.3
			c0.1,0.1,0.2,0.2,0.4,0.2c0.2,0.1,0.4,0.1,0.6,0.2c0.6,0.2,1,0.3,1.4,0.5c0.4,0.2,0.7,0.4,0.9,0.6c0.2,0.3,0.3,0.6,0.3,1
			c0,0.7-0.3,1.2-0.8,1.6C211.3,138.8,210.6,139,209.7,139z"/>
		<path class="st4" d="M216.9,139c-0.6,0-1.1-0.1-1.6-0.3c-0.4-0.2-0.8-0.4-1.2-0.8c-0.3-0.3-0.6-0.7-0.7-1.1
			c-0.2-0.4-0.3-0.9-0.3-1.3c0-0.6,0.1-1.2,0.4-1.7c0.3-0.5,0.7-0.9,1.3-1.3c0.5-0.3,1.2-0.5,2-0.5c0.8,0,1.5,0.2,2,0.5
			c0.5,0.3,1,0.8,1.2,1.3l-2,0.6c-0.1-0.2-0.3-0.4-0.5-0.5c-0.2-0.1-0.4-0.2-0.7-0.2c-0.3,0-0.5,0.1-0.8,0.2
			c-0.2,0.2-0.4,0.3-0.5,0.6c-0.1,0.3-0.2,0.6-0.2,0.9s0.1,0.7,0.2,0.9c0.1,0.3,0.3,0.5,0.6,0.6c0.2,0.1,0.5,0.2,0.8,0.2
			c0.2,0,0.3,0,0.5-0.1c0.2-0.1,0.3-0.1,0.4-0.2c0.1-0.1,0.2-0.2,0.3-0.3l2,0.6c-0.2,0.4-0.4,0.7-0.7,0.9c-0.3,0.3-0.7,0.5-1.1,0.6
			C217.9,138.9,217.4,139,216.9,139z"/>
		<path class="st4" d="M225.4,133.8c-0.5,0-1,0.1-1.4,0.2c-0.4,0.2-0.7,0.4-0.9,0.7v4.1H221v-6.8h1.9v1.3c0.2-0.5,0.6-0.8,0.9-1.1
			c0.4-0.3,0.8-0.4,1.2-0.4c0.1,0,0.2,0,0.2,0c0,0,0.1,0,0.1,0V133.8z"/>
		<path class="st4" d="M226.3,131.3v-1.9h2.1v1.9H226.3z M226.3,138.9V132h2.1v6.8H226.3z"/>
		<path class="st4" d="M233.9,139c-0.5,0-1-0.1-1.4-0.3c-0.4-0.2-0.7-0.5-0.9-0.9v1.1h-1.8v-9.5h2.1v3.9c0.2-0.4,0.5-0.7,0.9-0.9
			c0.4-0.2,0.8-0.3,1.4-0.3c0.4,0,0.8,0.1,1.2,0.3c0.4,0.2,0.7,0.4,0.9,0.8c0.3,0.3,0.5,0.7,0.6,1.1c0.1,0.4,0.2,0.9,0.2,1.4
			c0,0.5-0.1,0.9-0.2,1.4c-0.2,0.4-0.4,0.8-0.7,1.1c-0.3,0.3-0.6,0.6-1,0.7C234.8,138.9,234.3,139,233.9,139z M233.3,137.3
			c0.2,0,0.5,0,0.7-0.1c0.2-0.1,0.4-0.2,0.5-0.4c0.2-0.2,0.3-0.3,0.3-0.5c0.1-0.2,0.1-0.4,0.1-0.7c0-0.3-0.1-0.6-0.2-0.9
			c-0.1-0.3-0.3-0.5-0.5-0.7c-0.2-0.2-0.5-0.3-0.8-0.3c-0.2,0-0.4,0.1-0.6,0.2c-0.2,0.1-0.4,0.2-0.5,0.4c-0.2,0.2-0.3,0.4-0.4,0.6
			v1.4c0.1,0.1,0.2,0.3,0.3,0.4c0.1,0.1,0.2,0.2,0.3,0.3c0.1,0.1,0.3,0.1,0.4,0.2C233,137.2,233.2,137.3,233.3,137.3z"/>
		<path class="st4" d="M238.1,131.3v-1.9h2.1v1.9H238.1z M238.1,138.9V132h2.1v6.8H238.1z"/>
		<path class="st4" d="M246,133.8c-0.5,0-1,0.1-1.4,0.2c-0.4,0.2-0.7,0.4-0.9,0.7v4.1h-2.1v-6.8h1.9v1.3c0.2-0.5,0.6-0.8,0.9-1.1
			c0.4-0.3,0.8-0.4,1.2-0.4c0.1,0,0.2,0,0.2,0c0,0,0.1,0,0.1,0V133.8z"/>
		<path class="st4" d="M249.5,139c-0.6,0-1.1-0.1-1.7-0.3c-0.6-0.2-1-0.5-1.4-0.9l0.7-1.3c0.4,0.3,0.8,0.5,1.2,0.7
			c0.4,0.2,0.8,0.2,1.1,0.2c0.3,0,0.5,0,0.6-0.1c0.2-0.1,0.2-0.2,0.2-0.4c0-0.1,0-0.2-0.1-0.3c-0.1-0.1-0.2-0.1-0.4-0.2
			c-0.2-0.1-0.4-0.1-0.7-0.2c-0.5-0.2-1-0.3-1.3-0.5c-0.4-0.2-0.6-0.4-0.8-0.6c-0.2-0.2-0.3-0.5-0.3-0.9c0-0.5,0.1-0.8,0.3-1.2
			c0.2-0.3,0.6-0.6,1-0.8c0.4-0.2,0.9-0.3,1.5-0.3c0.5,0,0.9,0.1,1.4,0.2c0.4,0.2,0.9,0.4,1.3,0.8l-0.8,1.3c-0.4-0.3-0.7-0.5-1-0.6
			c-0.3-0.1-0.6-0.2-0.9-0.2c-0.2,0-0.3,0-0.4,0.1c-0.1,0-0.2,0.1-0.3,0.2c-0.1,0.1-0.1,0.2-0.1,0.3c0,0.1,0,0.2,0.1,0.3
			c0.1,0.1,0.2,0.2,0.3,0.2c0.2,0.1,0.4,0.1,0.6,0.2c0.6,0.2,1,0.3,1.4,0.5c0.4,0.2,0.7,0.4,0.9,0.6c0.2,0.3,0.3,0.6,0.3,1
			c0,0.7-0.3,1.2-0.8,1.6C251,138.8,250.3,139,249.5,139z"/>
		<path class="st4" d="M256.6,139c-0.6,0-1.1-0.1-1.6-0.3c-0.4-0.2-0.8-0.4-1.2-0.8c-0.3-0.3-0.6-0.7-0.7-1.1
			c-0.2-0.4-0.3-0.9-0.3-1.3c0-0.7,0.1-1.2,0.4-1.8c0.3-0.5,0.7-1,1.3-1.3c0.5-0.3,1.2-0.5,2-0.5c0.8,0,1.4,0.2,2,0.5
			c0.5,0.3,1,0.8,1.2,1.3c0.3,0.5,0.4,1.1,0.4,1.7c0,0.1,0,0.2,0,0.3c0,0.1,0,0.2,0,0.3h-5.1c0,0.3,0.1,0.5,0.3,0.7
			c0.1,0.2,0.3,0.4,0.6,0.5c0.2,0.1,0.5,0.2,0.7,0.2c0.3,0,0.6-0.1,0.9-0.2c0.3-0.2,0.5-0.3,0.6-0.6l1.8,0.5
			c-0.2,0.4-0.4,0.7-0.7,0.9c-0.3,0.3-0.7,0.5-1.1,0.6C257.6,138.9,257.1,139,256.6,139z M255.1,134.9h3c0-0.3-0.1-0.5-0.3-0.7
			c-0.1-0.2-0.3-0.4-0.5-0.5c-0.2-0.1-0.4-0.2-0.7-0.2c-0.3,0-0.5,0.1-0.7,0.2c-0.2,0.1-0.4,0.3-0.5,0.5
			C255.2,134.3,255.1,134.6,255.1,134.9z"/>
		<path class="st7" d="M265.7,148.1l-4.6,4.1l13.6,15.3l4.6-4.1L265.7,148.1z"/>
		<path class="st7" d="M278.2,151.3l-12.5,1.4l-2.8,12.2l-7.1-23.4L278.2,151.3z"/>
		<path class="st7" d="M252.5,128.3l-1.2,0.2l1,6.3l1.2-0.2L252.5,128.3z"/>
		<path class="st7" d="M244.1,134.4l-0.4,1.1l6,2.3l0.4-1.1L244.1,134.4z"/>
		<path class="st7" d="M250.2,140.6l-4.9,4l0.8,0.9l4.9-4L250.2,140.6z"/>
		<path class="st7" d="M254.8,142.3l-1.2,0.2l1,6.3l1.2-0.2L254.8,142.3z"/>
		<path class="st7" d="M257.4,139.4l-0.4,1.1l6,2.3l0.4-1.1L257.4,139.4z"/>
		<path class="st7" d="M261.1,131.6l-4.9,4l0.8,0.9l4.9-4L261.1,131.6z"/>
		<path class="st7" d="M144,83.7h-10.8h-0.5h-10.8l1.3,51.1c0,0,2,0.6,9.6,0.6c0,0,0.3,0,0.4,0s0.4,0,0.4,0c7.2,0,9.4-0.6,9.4-0.6
			L144,83.7z"/>
		<path class="st5" d="M154.7,74.2c0,0-7.9-5.4-12.2-10.6c0.8-4,1.3-6.6,1.4-7c0.3-2.8-1.3-0.2-1.3-0.2l-1.5,7
			c-2.1,1.1-8.1,3.8-16.1,5c0,0,5.4,5,13.6,6.9l-11.4,55.3l0.6,0.9c0,0,7.3-33.7,12.1-55.9C144.3,76.4,149.3,76.3,154.7,74.2z"/>
		<path class="st8" d="M126.2,94.5c2.2-5.4-3.2-27.2-3.2-27.2h-8.1h-0.3h-8.1c0,0-5.4,21.8-3.2,27.2c2.2,5.4,9.3,10.1,9.8,16.2
			c0.5,6.1,0.8,17.2-0.6,19.7c-1.5,2.6-8.2,2.3-8.2,4c0,2.4,9.1,1.9,10.4,1.8c1.3,0.1,10.4,0.6,10.4-1.8c0-1.8-6.7-1.5-8.2-4
			c-1.5-2.6-1.1-13.6-0.6-19.7C116.9,104.6,124,99.9,126.2,94.5z"/>
		<path class="st7" d="M104.9,133.5c-4.1-0.7-5.1-3.6-5.1-3.6v-12.1c0-6.5,2.1-9,2.1-9L113,93.9H98.6H84.1l11.1,14.8
			c0,0,2.1,2.5,2.1,9v12.1c0,0-0.9,2.9-5.1,3.6c-4.1,0.7-1.4,1.6-1.4,1.6s2.7,0.6,7.8,0.6c5.1,0,7.8-0.6,7.8-0.6
			S109,134.2,104.9,133.5z"/>
	</g>
</g>
</svg>
