<svg width="347" height="213" viewBox="0 0 347 213" fill="none" xmlns="http://www.w3.org/2000/svg">
<path d="M242 205.485C240.484 209.751 236.392 212.78 231.604 212.78C226.824 212.78 222.759 209.751 221.225 205.485C219.691 209.751 215.626 212.78 210.829 212.78C206.04 212.78 201.966 209.751 200.432 205.485C198.899 209.751 194.824 212.78 190.036 212.78C185.248 212.78 181.173 209.751 179.639 205.485C178.106 209.751 174.04 212.78 169.243 212.78C164.464 212.78 160.398 209.751 158.846 205.485C157.313 209.751 153.247 212.78 148.468 212.78C143.68 212.78 139.605 209.751 138.072 205.485C136.538 209.751 132.454 212.78 127.675 212.78C122.887 212.78 118.812 209.751 117.279 205.485C115.745 209.751 111.679 212.78 106.882 212.78C102.094 212.78 98.0195 209.751 96.4858 205.485C94.9522 209.751 90.8775 212.78 86.0894 212.78C81.1587 212.78 76.9948 209.555 75.5682 205.111C73.6601 209.743 68.7651 212.637 63.6025 211.809C58.3151 210.954 54.5079 206.483 54.3117 201.326C51.084 205.351 45.3687 206.679 40.6163 204.211C35.8639 201.744 33.6616 196.311 35.0971 191.377C30.7727 194.173 24.9414 193.657 21.1966 189.836C17.4517 186.015 17.0594 180.172 19.9572 175.923C14.973 177.25 9.58754 174.934 7.21581 170.134C4.84407 165.333 6.28851 159.65 10.39 156.506C5.2453 156.203 0.840648 152.311 0.109511 147.02C-0.639459 141.73 2.52583 136.786 7.38522 135.094C2.59716 133.206 -0.371969 128.147 0.582075 122.891C1.53612 117.619 6.0656 113.896 11.2281 113.78C7.2693 110.484 6.03885 104.766 8.58892 100.063C11.1479 95.3603 16.6136 93.2494 21.5354 94.7636C18.807 90.3903 19.4222 84.5741 23.3187 80.9045C27.2151 77.2259 33.0642 76.932 37.2727 79.898C36.0333 74.9101 38.4318 69.5571 43.2733 67.2769C48.1238 64.9879 53.7946 66.5287 56.8618 70.6794C57.2452 65.5401 61.2219 61.2202 66.536 60.57C71.6539 59.9466 76.3885 62.9304 78.1718 67.5174C79.634 63.1441 83.7623 60 88.6395 60C93.4276 60 97.5023 63.0462 99.0359 67.2947C100.57 63.0462 104.635 60 109.432 60C114.22 60 118.295 63.0462 119.829 67.2947C121.362 63.0462 125.437 60 130.225 60C135.004 60 139.07 63.0462 140.622 67.2947C142.155 63.0462 146.221 60 151 60C155.788 60 159.863 63.0462 161.397 67.2947C162.93 63.0462 167.014 60 171.793 60C176.581 60 180.656 63.0462 182.189 67.2947C183.723 63.0462 187.798 60 192.586 60C197.374 60 201.449 63.0462 202.982 67.2947C204.516 63.0462 208.582 60 213.379 60C218.158 60 222.241 63.0462 223.775 67.2947C225.309 63.0462 229.383 60 234.171 60C238.951 60 243.016 63.0462 244.55 67.2947C246.093 63.0462 250.167 60 254.946 60C255.098 60 255.25 60 255.401 60.0178C255.499 60.0178 255.597 60.0178 255.695 60.0178V60.0356C260.929 60.2583 265.156 64.0794 266.074 68.996C268.615 64.6138 273.929 62.4049 278.967 63.9903C284.058 65.6024 287.17 70.5547 286.626 75.6583C290.407 72.1401 296.291 71.6769 300.634 74.8211C304.994 77.9919 306.358 83.7458 304.138 88.4486C308.899 86.3644 314.614 87.8874 317.664 92.3231C320.704 96.732 320.062 102.584 316.451 106.28C321.587 105.87 326.473 109.095 327.953 114.225C329.433 119.338 327.026 124.646 322.487 127.033C327.472 128.182 331.154 132.689 331.047 138.006C330.94 143.333 327.088 147.688 322.051 148.623C326.491 151.189 328.675 156.604 326.99 161.654C325.296 166.74 320.267 169.76 315.149 169.118C318.618 172.966 318.983 178.853 315.747 183.138C312.501 187.422 306.723 188.678 302.051 186.38C304.057 191.181 302.426 196.872 297.923 199.838C293.456 202.786 287.616 202.056 283.996 198.377C284.317 203.49 281.018 208.291 275.864 209.698C270.782 211.087 265.548 208.674 263.194 204.211C262.079 209.119 257.684 212.771 252.423 212.771C247.617 212.78 243.534 209.743 242 205.485Z" fill="#FF3600"/>
<path d="M75.8624 194.85C43.5943 194.85 17.3447 168.628 17.3447 136.394C17.3447 104.16 43.5943 77.9385 75.8624 77.9385H254.786C272.966 78.6867 288.106 85.2867 298.583 97.0259C307.945 107.509 313.099 121.493 313.09 136.394C313.09 151.304 307.927 165.288 298.565 175.772C288.088 187.511 272.948 194.102 254.777 194.85H75.8624Z" fill="#F1DAAE"/>
<g clip-path="url(#clip0_227_1578)">
<path d="M45.9232 10.2568H197.571C200.399 10.2568 202.683 12.5483 202.683 15.3852V143.17H40.811V15.3852C40.811 12.5483 43.0952 10.2568 45.9232 10.2568Z" fill="#04382B"/>
<path d="M211.091 25.4784H259.157C266.151 25.4784 272.242 30.2358 273.971 37.0228L286.969 88.1759C287.285 89.4089 287.448 90.6855 287.448 91.9622V148.015H202.683V33.913C202.683 29.2538 206.447 25.4784 211.091 25.4784Z" fill="#FA003C"/>
<path d="M292.093 157.671H34.8287C32.7186 157.671 31 155.958 31 153.83V147C31 144.883 32.7077 143.159 34.8287 143.159H292.104C294.214 143.159 295.932 144.872 295.932 147V153.83C295.921 155.947 294.203 157.671 292.093 157.671Z" fill="#04382B"/>
<path d="M109.587 172.033C121.493 160.089 121.497 140.727 109.595 128.787C97.6924 116.848 78.3919 116.851 66.4856 128.795C54.5792 140.739 54.5758 160.101 66.4779 172.041C78.38 183.98 97.6805 183.977 109.587 172.033Z" fill="#04382B"/>
<path d="M100.034 162.45C106.661 155.803 106.661 145.025 100.034 138.378C93.4078 131.73 82.6642 131.73 76.0378 138.378C69.4113 145.025 69.4113 155.803 76.0378 162.45C82.6642 169.097 93.4077 169.097 100.034 162.45Z" fill="#DCEDFB"/>
<path d="M99.6668 150.415C99.6668 156.853 94.4566 162.079 88.0392 162.079C81.6217 162.079 76.4116 156.853 76.4116 150.415C76.4116 143.977 81.6217 138.751 88.0392 138.751C94.4566 138.751 99.6668 143.977 99.6668 150.415Z" fill="#FDECE9"/>
<path d="M279.391 157.398C283.232 140.952 273.061 124.498 256.673 120.646C240.285 116.795 223.887 127.004 220.046 143.45C216.205 159.895 226.376 176.35 242.764 180.201C259.152 184.053 275.551 173.843 279.391 157.398Z" fill="#04382B"/>
<path d="M266.24 154.297C268.384 145.145 262.727 135.983 253.604 133.832C244.481 131.681 235.347 137.356 233.203 146.508C231.059 155.66 236.716 164.823 245.839 166.973C254.962 169.124 264.096 163.449 266.24 154.297Z" fill="#DCEDFB"/>
<path d="M261.354 150.415C261.354 156.853 256.144 162.079 249.727 162.079C243.309 162.079 238.099 156.853 238.099 150.415C238.099 143.977 243.309 138.751 249.727 138.751C256.144 138.751 261.354 143.977 261.354 150.415Z" fill="#FDECE9"/>
<path d="M219.325 83.2112H256.59C259.472 83.2112 261.811 80.8652 261.811 77.9736V40.5799C261.811 37.6884 259.472 35.3424 256.59 35.3424H219.325C216.443 35.3424 214.104 37.6884 214.104 40.5799V77.9627C214.104 80.8652 216.443 83.2112 219.325 83.2112Z" fill="#DCEDFB"/>
<path d="M253.229 35.3531H242.123C237.729 39.685 233.335 44.0169 228.973 48.3924C224.274 53.1171 219.532 57.7981 214.909 62.5992L214.104 63.4394V74.6018C214.104 77.297 215.366 79.6757 217.291 81.2469C217.596 80.9523 217.889 80.6577 218.194 80.3631C220.63 77.9844 223.067 75.6057 225.514 73.227C230.289 68.5787 234.944 63.8103 239.643 59.0966C246.42 52.2878 253.131 45.4136 259.82 38.5175C258.254 36.5971 255.904 35.3531 253.229 35.3531Z" fill="#FDECE9"/>
<path d="M226.362 35.3533C222.316 39.6088 218.216 43.8097 214.104 47.9998V55.9324C221.109 49.0036 228.135 42.0857 235.325 35.3424H226.362V35.3533Z" fill="#FDECE9"/>
<path d="M227.015 93.2279C224.535 93.2279 222.044 93.206 219.564 93.2715C219.075 93.2606 218.596 93.4024 218.172 93.6425C217.911 93.7734 217.672 93.9371 217.465 94.1444C217.335 94.2754 217.215 94.4281 217.106 94.5918C216.769 95.0719 216.573 95.6502 216.595 96.2503C216.628 96.9596 216.889 97.6034 217.291 98.1053C217.824 98.7927 218.618 99.251 219.553 99.2183C222.033 99.2837 224.524 99.2619 227.004 99.2619C228.571 99.2619 230.082 97.8762 230.006 96.2503C229.941 94.6136 228.701 93.2279 227.015 93.2279Z" fill="#04382B"/>
<path d="M274.243 73.3035C274.243 72.4197 273.971 71.514 273.504 70.7393C273.46 70.6738 273.438 70.5865 273.384 70.5211C273.297 70.3792 273.177 70.2701 273.08 70.1392C272.862 69.6591 272.568 69.2008 272.22 68.8625C271.491 68.1315 270.295 67.5859 269.251 67.6295C267.543 67.7059 266.14 68.6661 265.476 70.0955C264.737 71.0121 264.269 72.0923 264.269 73.3035C264.269 74.9948 264.193 76.7297 264.28 78.4428L264.291 80.9197C264.291 81.7927 264.563 82.6874 265.02 83.4621C265.063 83.5385 265.096 83.6149 265.139 83.6912C265.313 83.964 265.52 84.215 265.748 84.4441C266.608 85.3062 268.022 85.9608 269.262 85.9063C270.545 85.8517 271.872 85.4262 272.775 84.4441C273.667 83.473 274.232 82.2728 274.232 80.9197C274.232 80.0905 274.232 79.2721 274.243 78.4428C274.32 76.7297 274.243 75.0057 274.243 73.3035Z" fill="#04382B"/>
<path d="M284.827 108.493C284.838 107.446 284.37 106.333 283.63 105.591C283.446 105.405 283.217 105.231 282.978 105.078C282.902 105.012 282.826 104.947 282.739 104.881C282.151 104.467 281.455 104.227 280.737 104.259C279.867 104.303 279.106 104.609 278.496 105.111C277.398 105.831 276.658 107.042 276.647 108.493C276.626 111.548 276.615 114.593 276.615 117.648C276.615 118.706 277.072 119.819 277.822 120.572C278.54 121.292 279.715 121.827 280.737 121.783C282.967 121.685 284.86 119.961 284.86 117.648C284.87 114.593 284.849 111.537 284.827 108.493Z" fill="#FDECE9"/>
<path d="M128.719 106.278L105.442 94.81C104.67 94.4281 104.181 93.6425 104.181 92.7914V58.6056C104.181 56.9362 105.921 55.845 107.422 56.587L130.699 68.055C131.471 68.4369 131.961 69.2225 131.961 70.0736V104.259C131.95 105.929 130.209 107.02 128.719 106.278Z" fill="#FDECE9"/>
<path d="M141.717 106.278L164.994 94.81C165.767 94.4281 166.256 93.6425 166.256 92.7914V58.6056C166.256 56.9362 164.516 55.845 163.015 56.587L139.738 68.055C138.966 68.4369 138.476 69.2225 138.476 70.0736V104.259C138.487 105.929 140.227 107.02 141.717 106.278Z" fill="#FDECE9"/>
<path d="M134.223 38.5176L111.555 49.691C109.88 50.5202 109.88 52.9099 111.555 53.7391L134.223 64.9125C134.843 65.218 135.583 65.218 136.203 64.9125L158.881 53.7391C160.556 52.9099 160.556 50.5202 158.881 49.691L136.213 38.5176C135.583 38.2121 134.854 38.2121 134.223 38.5176Z" fill="#FDECE9"/>
<path d="M116.711 40.5799C105.693 40.4489 94.6632 40.5362 83.6339 40.5471C82.9704 40.5471 82.644 41.06 82.644 41.5728C82.644 42.0857 82.9704 42.6094 83.6339 42.5985C94.6523 42.6094 105.693 42.6967 116.711 42.5658C117.353 42.5767 117.668 42.0747 117.668 41.5728C117.668 41.0818 117.353 40.5799 116.711 40.5799Z" fill="#FDECE9"/>
<path d="M98.231 50.1602C91.9005 50.1602 85.5701 50.1493 79.2397 50.1493C78.9677 50.1493 78.7611 50.2475 78.587 50.3675C78.3369 50.3675 78.0867 50.3784 77.8474 50.3784C77.2274 50.3784 76.9229 50.8585 76.9229 51.3386C76.9229 51.8188 77.2274 52.2989 77.8474 52.2989C78.0976 52.2989 78.3477 52.3098 78.587 52.3098C78.7611 52.4407 78.9677 52.528 79.2397 52.528L98.231 52.5171C99.732 52.5171 99.7429 50.1602 98.231 50.1602Z" fill="#FDECE9"/>
<path d="M120.518 107.26C114.884 107.271 109.239 107.282 103.604 107.293C102.984 107.293 102.669 107.784 102.669 108.264C102.669 108.755 102.984 109.235 103.604 109.235C109.239 109.246 114.884 109.257 120.518 109.268C121.813 109.268 121.813 107.26 120.518 107.26Z" fill="#FDECE9"/>
<path d="M102.81 97.9198C92.6835 97.9198 82.557 97.9198 72.4413 97.9307C71.0599 97.9307 71.0599 100.08 72.4413 100.08C82.5678 100.091 92.6944 100.091 102.81 100.091C104.202 100.091 104.213 97.9198 102.81 97.9198Z" fill="#FDECE9"/>
<path d="M95.7729 84.215H95.0768C90.6934 84.215 86.3099 84.2041 81.9265 84.2259C81.263 84.2259 80.9367 84.7388 80.9475 85.2516C80.9475 85.7644 81.2738 86.2773 81.9265 86.2773C86.3099 86.31 90.6934 86.2882 95.0768 86.2882C95.3052 86.2882 95.5445 86.2882 95.7729 86.2882C96.4364 86.2882 96.7736 85.7753 96.7736 85.2516C96.7736 84.7278 96.4473 84.2041 95.7729 84.215Z" fill="#FDECE9"/>
<path d="M96.3273 66.3965C87.0818 66.3965 77.8255 66.5383 68.58 66.5492C67.3835 66.5492 67.3835 68.4151 68.58 68.4151C77.8255 68.426 87.0818 68.5679 96.3273 68.5679C97.7196 68.5679 97.7196 66.3965 96.3273 66.3965Z" fill="#FDECE9"/>
<path d="M53.9399 7.50711L46.6631 8.89287L52.7869 4.70286L49.2518 1.16753L45.0751 7.31071L46.4564 0H41.4639L42.8453 7.31071L38.6685 1.16753L35.1334 4.70286L41.2572 8.89287L33.9805 7.50711V12.5155L41.2572 11.1406L35.1334 15.3307L38.6685 18.866L42.8453 12.7228L41.4639 20.0335H46.4564L45.0751 12.7228L49.2518 18.866L52.7869 15.3307L46.6631 11.1406L53.9399 12.5155V7.50711Z" fill="#FFAD03"/>
</g>
<defs>
<clipPath id="clip0_227_1578">
<rect width="316" height="181" fill="white" transform="translate(31)"/>
</clipPath>
</defs>
</svg>
