<?xml version="1.0" encoding="utf-8"?>
<!-- Generator: Adobe Illustrator 25.0.0, SVG Export Plug-In . SVG Version: 6.00 Build 0)  -->
<svg version="1.1" xmlns="http://www.w3.org/2000/svg" xmlns:xlink="http://www.w3.org/1999/xlink" x="0px" y="0px"
	 viewBox="0 0 309 206" style="enable-background:new 0 0 309 206;" xml:space="preserve">
<style type="text/css">
	.st0{fill:#FF3600;}
	.st1{fill:#E02A00;}
	.st2{fill:#F4E8D2;}
	.st3{fill:#FA003C;}
	.st4{fill:#04382B;}
	.st5{fill:#0E2D28;}
	.st6{fill:#FDECE9;}
	.st7{fill:#FFAD03;}
</style>
<g id="Capa_1">
	<path class="st0" d="M146,205.4c80.6,0,146-34.8,146-77.7S226.6,50,146,50C65.4,50,0,84.8,0,127.7S65.4,205.4,146,205.4z"/>
	<path class="st1" d="M213.1,51h-86.7c1.1,0.9,2.2,1.8,3,3c0.4,0.5-1,1.4-1.4,1.3c-2.2-0.3-4.4,0.5-6.6,0.8
		c-2.4,0.3-4.8,0.7-7.3,0.8c-4.2,0.2-8.4,0.1-12.6,0.3c-4.2,0.2-8.5,0.7-12.7,1.3c-4.2,0.6-8.5,1.3-12.7,2.1c-2,0.4-4,0.8-6,1.2
		c-1.9,0.4-3.7,1.2-5.6,1.7v18.9C64.5,88.2,69.2,93,75,93h1.5v76.3c0,5.9,4.7,10.6,10.5,10.6h114.1c5.8,0,10.5-4.8,10.5-10.6V93h1.5
		c5.8,0,10.5-4.8,10.5-10.6V61.6C223.6,55.7,218.9,51,213.1,51z"/>
	<path class="st2" d="M146,193c-37,0-71.6-7.6-97.4-21.3c-23-12.2-36.2-28.3-36.2-44c0-15.7,13.2-31.7,36.2-44
		C74.4,70,109,62.4,146,62.4c37,0,71.6,7.6,97.4,21.3c23,12.2,36.2,28.3,36.2,44c0,15.7-13.2,31.7-36.2,44
		C217.6,185.4,183,193,146,193z M146,64.1c-36.7,0-71,7.5-96.6,21.1c-22.4,11.9-35.3,27.4-35.3,42.5s12.9,30.6,35.3,42.5
		c25.6,13.6,59.9,21.1,96.6,21.1c36.7,0,71-7.5,96.6-21.1c22.4-11.9,35.3-27.4,35.3-42.5S265,97.1,242.6,85.2
		C217,71.6,182.7,64.1,146,64.1z"/>
	<g>
		<path class="st0" d="M129.1,65c1.4,4.8,2.6,6.5,6,8.5c-3.4,2-4.6,3.6-6,8.5c-1.4-4.8-2.6-6.5-6-8.5
			C126.5,71.5,127.7,69.8,129.1,65z M144.2,81.2c2.1,1.2,2.8,2.2,3.7,5.2c0.9-3,1.6-4,3.7-5.2c-2.1-1.2-2.8-2.2-3.7-5.2
			C147.1,78.9,146.4,79.9,144.2,81.2z M134.1,58.6c4.9,2.9,6.6,5.2,8.6,12.1c2-6.9,3.7-9.2,8.6-12.1c-4.9-2.9-6.6-5.2-8.6-12.1
			C140.7,53.4,139,55.7,134.1,58.6z"/>
		<path class="st3" d="M206.8,8c-6.2-5.3-14.3-9.2-22.6-7.7c-8.3,1.5-15.5,7.8-21.4,13.5c-5.6,5.4-10.7,11.5-14.9,18.1
			c-0.5,0.8-1.1,1.7-1.6,2.6c-2.3-2.7-4.8-5-6.7-6.8c-7.7-7.2-17-15.2-26.4-19.9C104,3.3,93.9,4.3,87.9,13
			c-5.4,7.8-4.8,17.5,0.5,25.2c6.7,9.6,18,13.5,28.8,16.2c4.9,1.3,14.4,4.5,21.9,4.3c2.1,3.8,7.5,5,10.8,0.8
			c0.1-0.1,0.2-0.3,0.3-0.5c0.2,0.1,0.3,0.3,0.4,0.4c8.1,4.9,18.5,1,27.1-1c8.3-1.9,16.1-4.6,23.2-9.4c6.7-4.6,12.9-11.1,14.7-19.3
			C217.7,21,213.2,13.6,206.8,8z M124.7,41.9c-9.9-1.1-28.1-4.4-30-16.7c-1.3-8.2,6.7-10.1,12.8-7.1c5.7,2.8,11.1,7.8,15.6,12.2
			c3.7,3.6,7.2,7.8,10.5,11.9C129.9,42,126.5,42.1,124.7,41.9z M196.5,29.1c-3.4,3.8-8.1,6.7-12.7,8.6c-7.1,2.9-17.5,3.1-25.6,6.3
			c2.6-4.5,5.6-8.8,9-12.7c6.2-7.3,17.6-20.7,27.4-13C198.7,21.6,200.1,25,196.5,29.1z"/>
		<path class="st4" d="M213.9,92H80.8c-5.6,0-10.1-4.5-10.1-10.2V62.1c0-5.6,4.5-10.2,10.1-10.2h133.1c5.6,0,10.1,4.5,10.1,10.2
			v19.8C224,87.5,219.5,92,213.9,92z"/>
		<path class="st4" d="M202.3,76H92.4c-5.6,0-10.1,4.5-10.1,10.2v78.7c0,5.6,4.5,10.2,10.1,10.2h109.9c5.6,0,10.1-4.5,10.1-10.2
			V86.1C212.4,80.5,207.9,76,202.3,76z"/>
		<path class="st5" d="M212.9,92H82.3v22.6L212.9,92z"/>
		<path class="st3" d="M160.2,51.9h-25.7v123.3h25.7V51.9z"/>
	</g>
	<path class="st3" d="M44.7,50.2H18.2c-3,0-5.4,2.4-5.4,5.4v26.5c0,3,2.4,5.4,5.4,5.4h15.2c0,0.1,0,0.1,0.1,0.1l4.3,7.5
		c0.7,1.2,2.4,1.2,3.1,0l4.3-7.5c0-0.1,0.1-0.1,0.1-0.2c2.7-0.3,4.7-2.6,4.7-5.4V55.6C50.1,52.7,47.7,50.2,44.7,50.2z"/>
	<path class="st6" d="M25.2,64c-0.4-1.6-2-2.6-3.5-2.4c-1.6,0.2-2.8,1.6-2.8,3.2c-0.1,3.5-0.1,7.1-0.1,10.6c0,0.2,0,0.5,0.1,0.7
		c0.1,0.7,0.2,1.3,0.5,1.9c0.7,1.3,2.2,2,3.6,1.6c2-0.5,2.3-2.4,2.4-4.2C25.5,71.8,26.2,67.7,25.2,64z"/>
	<path class="st6" d="M41.8,74.1c0.1-0.1,0.3-0.2,0.4-0.3c0.1,0,1.1-0.9,0.9-0.9c0,0,0,0,0-0.1c-0.1,0.1-0.1,0.1-0.1,0.2
		c0-0.1,0.3-0.4,0.4-0.5c0.3-0.7,0.5-1.4,0.2-2.2c-0.3-1-1-1.6-1.9-2.1c0.4-0.3,0.8-0.8,1-1.3c0.1-0.2,0.1-0.4,0.1-0.6
		c0-0.1,0-0.1,0-0.3c0-0.4-0.1-0.8-0.3-1.1c-0.6-1.2-2-1.4-3.2-1.6c-0.9-0.1-1.9-0.1-2.8-0.1c0.1-0.1,0.1-0.2,0.2-0.4
		c0.6-1.3,1-2.6,1.2-4c0.1-0.8,0.2-1.7,0-2.5c-0.2-0.6-0.4-1.1-0.8-1.6c-0.7-0.7-1.9-1-2.8-0.4c-1,0.6-1.3,1.7-1.4,2.7
		c-0.1,0.7-0.3,1.4-0.5,2.1c-0.1,0.2-0.2,0.3-0.2,0.5c-0.2,0.3-0.4,0.7-0.6,1c-0.1,0.1-0.2,0.2-0.3,0.4c0,0,0,0,0,0.1
		c-0.2,0.3-0.5,0.6-0.7,0.8c-0.1,0.1-0.3,0.2-0.4,0.4c-0.2,0.1-0.4,0.3-0.6,0.4c0,0-0.1,0-0.1,0c-0.5,0.1-0.9,0.3-1.3,0.7
		c-1.4,1.5-1,4.1-0.9,5.9c0,2.4-0.4,4.9-0.1,7.3c0.4,4.1,5.3,3.8,8.4,3.8c2.2,0,4.7-0.4,6.6-1.6c1.5-0.9,1.8-2.8,0.6-4.1
		C42.4,74.6,42.1,74.3,41.8,74.1z"/>
	<path class="st7" d="M289.7,71.2h-27.5c-3.1,0-5.6,2.5-5.6,5.7v27.6c0,3.1,2.5,5.7,5.6,5.7h0.9c0,0.1,0,0.1,0.1,0.2l4.5,7.8
		c0.7,1.3,2.5,1.3,3.3,0l4.5-7.8c0,0,0-0.1,0.1-0.2h14.3c3.1,0,5.6-2.5,5.6-5.7V76.9C295.3,73.7,292.8,71.2,289.7,71.2z"/>
	<path class="st6" d="M289.8,84.3c-1.7-4-6.3-4.2-9.6-2.5c-1.7,0.9-3.2,2.1-4.3,3.6c-0.9-1.4-2-2.8-3.2-4c-1.9-2-5.1-3.2-7.4-1
		c-1.8,1.7-3,4.6-3.1,7.1c-0.1,2.6,1.5,5.2,2.9,7.3c2,2.9,4.8,6.4,8.1,7.9c1.9,0.9,3,0.8,4.6-0.5c3-2.4,5.6-5.3,8.4-7.9
		C289,91.9,291.5,88.3,289.8,84.3z"/>
</g>
<g id="OBJECTS">
</g>
</svg>
