<?xml version="1.0" encoding="utf-8"?>
<!-- Generator: Adobe Illustrator 25.0.0, SVG Export Plug-In . SVG Version: 6.00 Build 0)  -->
<svg version="1.1" xmlns="http://www.w3.org/2000/svg" xmlns:xlink="http://www.w3.org/1999/xlink" x="0px" y="0px"
	 viewBox="0 0 346.2 212" style="enable-background:new 0 0 346.2 212;" xml:space="preserve">
<style type="text/css">
	.st0{fill:#FA003C;}
	.st1{fill:#F1DAAE;}
	.st2{opacity:0.5;fill:#D06546;}
	.st3{fill:#F4E8D2;}
	.st4{fill:#004333;}
	.st5{fill:#FF8E90;}
	.st6{fill:#1F994A;}
	.st7{fill:#FDECE9;}
	.st8{fill:#FFAD03;}
	.st9{fill:none;stroke:#004333;stroke-miterlimit:10;}
	.st10{fill:#FF3600;}
	.st11{opacity:0.5;fill:#EDAE58;}
	.st12{fill:#606060;}
	.st13{fill:#04382B;}
	.st14{opacity:0.23;fill:#D06546;}
	.st15{opacity:0.38;}
	.st16{fill:#D06546;}
	.st17{fill:none;stroke:#004333;stroke-linecap:round;stroke-linejoin:round;stroke-miterlimit:10;}
</style>
<g id="Capa_1">
	<path class="st0" d="M-144.4-79.9v-42c0-27,21.9-48.8,48.8-48.8H22.7c27,0,48.8,21.9,48.8,48.8v42c0,27-21.9,48.8-48.8,48.8H-95.5
		C-122.5-31-144.4-52.9-144.4-79.9z"/>
	<path class="st1" d="M-143.3-83.5v-30c0-27,21.9-48.8,48.8-48.8H5.1c27,0,48.8,21.9,48.8,48.8v30c0,27-21.9,48.8-48.8,48.8h-99.6
		C-121.5-34.7-143.3-56.6-143.3-83.5z"/>
	<g>
		<path class="st2" d="M652-26.4c-7.8,0-14.4-5.6-15.9-13c-30.5-1-58.9-13.3-80.5-34.9c-25.9-25.9-38.4-61.7-34.2-98.3
			c0.9-7.5,6.8-13.4,14.2-14.2c4.6-0.5,9.2-0.8,13.8-0.8c18.8,0,37,4.3,53.3,12.5c-2.3-8.2-3.6-17.9-3.6-29.5
			c0-3.3,0.1-6.7,0.3-10.2c-2.9,1.9-5.8,3.7-8.7,5.4c-16.3,9.4-30.7,14-43.9,14c-20.4,0-37-10.9-49.4-32.5
			c-14.3-24.8-20.6-60.5,30.7-90.1c2.9-1.7,5.9-3.3,9-4.9c-3.1-1.6-6.2-3.2-9-4.9c-28.3-16.3-56.6-45.2-30.7-90.1
			c12.4-21.6,29.1-32.5,49.4-32.5c13.2,0,27.6,4.6,43.9,14c2.9,1.7,5.8,3.5,8.7,5.4c-0.2-3.5-0.3-6.9-0.3-10.2
			c0-32.7,10.9-71.6,62.7-71.6c28.6,0,62.7,12.4,62.7,71.6c0,3.3-0.1,6.7-0.3,10.2c2.9-1.9,5.8-3.7,8.7-5.4
			c16.3-9.4,30.7-14,43.9-14c20.4,0,37,10.9,49.4,32.5c9.6,16.6,12.4,31.6,8.8,45.9c-4.3,16.9-17.2,31.3-39.5,44.2
			c-2.9,1.7-5.9,3.3-9,4.9c3.1,1.6,6.2,3.2,9,4.9c22.3,12.9,35.2,27.3,39.5,44.2c3.6,14.3,0.8,29.4-8.8,45.9
			c-12.4,21.6-29.1,32.5-49.4,32.5l0,0c-13.2,0-27.6-4.6-43.9-14c-2.9-1.7-5.8-3.5-8.7-5.4c0.2,3.5,0.3,6.9,0.3,10.2
			c0,11.5-1.3,21.3-3.6,29.5c16.3-8.2,34.5-12.5,53.3-12.5c4.6,0,9.2,0.3,13.8,0.8c7.5,0.9,13.4,6.8,14.2,14.2
			c4.2,36.5-8.3,72.4-34.2,98.3c-21.6,21.6-50.1,33.9-80.5,34.9c-1.5,7.4-8,13-15.9,13H652z"/>
		<path class="st3" d="M656.2-38.3c-7.8,0-14.4-5.6-15.9-13c-30.5-1-58.9-13.3-80.5-34.9c-25.9-25.9-38.4-61.7-34.2-98.3
			c0.9-7.5,6.8-13.4,14.2-14.2c4.6-0.5,9.2-0.8,13.8-0.8c18.8,0,37,4.3,53.3,12.5c-2.3-8.2-3.6-17.9-3.6-29.5
			c0-3.3,0.1-6.7,0.3-10.2c-2.9,1.9-5.8,3.7-8.7,5.4c-16.3,9.4-30.7,14-43.9,14c-20.4,0-37-10.9-49.4-32.5
			c-14.3-24.8-20.6-60.5,30.7-90.1c2.9-1.7,5.9-3.3,9-4.9c-3.1-1.6-6.2-3.2-9-4.9c-28.3-16.3-56.6-45.2-30.7-90.1
			c12.4-21.6,29.1-32.5,49.4-32.5c13.2,0,27.6,4.6,43.9,14c2.9,1.7,5.8,3.5,8.7,5.4c-0.2-3.5-0.3-6.9-0.3-10.2
			c0-32.7,10.9-71.6,62.7-71.6c28.6,0,62.7,12.4,62.7,71.6c0,3.3-0.1,6.7-0.3,10.2c2.9-1.9,5.8-3.7,8.7-5.4
			c16.3-9.4,30.7-14,43.9-14c20.4,0,37,10.9,49.4,32.5c9.6,16.6,12.4,31.6,8.8,45.9c-4.3,16.9-17.2,31.3-39.5,44.2
			c-2.9,1.7-5.9,3.3-9,4.9c3.1,1.6,6.2,3.2,9,4.9c22.3,12.9,35.2,27.3,39.5,44.2c3.6,14.3,0.8,29.4-8.8,45.9
			c-12.4,21.6-29.1,32.5-49.4,32.5l0,0c-13.2,0-27.6-4.6-43.9-14c-2.9-1.7-5.8-3.5-8.7-5.4c0.2,3.5,0.3,6.9,0.3,10.2
			c0,11.5-1.3,21.3-3.6,29.5c16.3-8.2,34.5-12.5,53.3-12.5c4.6,0,9.2,0.3,13.8,0.8c7.5,0.9,13.4,6.8,14.2,14.2
			c4.2,36.5-8.3,72.4-34.2,98.3c-21.6,21.6-50.1,33.9-80.5,34.9c-1.5,7.4-8,13-15.9,13H656.2z"/>
		
			<rect x="656.2" y="-344.6" transform="matrix(-1 -1.224647e-16 1.224647e-16 -1 1332.2216 -399.0593)" class="st4" width="19.8" height="290.2"/>
		<path class="st5" d="M791.8-315.8c-13.4-7.7-29.8-14.3-46.1-18.9c16.3-4.5,32.7-11.1,46.1-18.9c39.2-22.6,37.6-45.8,24.8-68
			c-12.8-22.2-32.1-35.2-71.3-12.6c-13.4,7.7-27.3,18.6-39.4,30.4c4.2-16.4,6.7-33.9,6.7-49.3c0-45.2-20.8-55.4-46.5-55.4
			c-25.7,0-46.5,10.2-46.5,55.4c0,15.4,2.5,32.9,6.7,49.3c-12.1-11.8-26-22.7-39.4-30.4c-39.2-22.6-58.4-9.7-71.3,12.6
			c-12.8,22.2-14.4,45.4,24.8,68c13.4,7.7,29.8,14.3,46.1,18.9c-16.3,4.5-32.7,11.1-46.1,18.9c-39.2,22.6-37.6,45.8-24.8,68
			c12.8,22.2,32.1,35.2,71.3,12.6c13.4-7.7,27.3-18.6,39.4-30.4c-4.2,16.4-6.7,33.9-6.7,49.3c0,45.2,20.8,55.4,46.5,55.4
			c25.7,0,46.5-10.2,46.5-55.4c0-15.4-2.5-32.9-6.7-49.3c12.1,11.8,26,22.7,39.4,30.4c39.2,22.6,58.4,9.7,71.3-12.6
			C829.4-270.1,831-293.2,791.8-315.8z"/>
		
			<ellipse transform="matrix(0.2063 -0.9785 0.9785 0.2063 856.1844 386.1439)" class="st4" cx="666.1" cy="-334.7" rx="64.5" ry="64.5"/>
		<g>
			<path d="M666.1-285.3c-27.2,0-49.3-22.1-49.3-49.3h7.3c0,23.2,18.9,42.1,42.1,42.1c23.2,0,42.1-18.9,42.1-42.1h7.3
				C715.4-307.5,693.3-285.3,666.1-285.3z"/>
		</g>
		<g>
			<path class="st3" d="M662-345.7c0,13.7-6.9,24.9-15.4,24.9s-15.4-11.1-15.4-24.9c0-13.7,6.9-24.9,15.4-24.9S662-359.4,662-345.7z
				"/>
			<path d="M641.6-369.1c-6,3.4-10.4,12.5-10.4,23.4c0,10.9,4.4,20.1,10.4,23.4c6-3.4,10.4-12.5,10.4-23.4
				C652-356.6,647.6-365.8,641.6-369.1z"/>
		</g>
		<g>
			<path class="st3" d="M700.6-345.7c0,13.7-6.9,24.9-15.4,24.9c-8.5,0-15.4-11.1-15.4-24.9c0-13.7,6.9-24.9,15.4-24.9
				C693.7-370.6,700.6-359.4,700.6-345.7z"/>
			<path d="M680.3-369.1c-6,3.4-10.4,12.5-10.4,23.4c0,10.9,4.4,20.1,10.4,23.4c6-3.4,10.4-12.5,10.4-23.4
				C690.6-356.6,686.3-365.8,680.3-369.1z"/>
		</g>
		<path class="st4" d="M705.5-153c-23.2,23.2-33,54.7-29.5,85c30.3,3.5,61.8-6.3,85-29.5c23.2-23.2,33-54.7,29.5-85
			C760.2-186,728.7-176.2,705.5-153z"/>
		<path class="st4" d="M626.7-153c23.2,23.2,33,54.7,29.5,85c-30.3,3.5-61.8-6.3-85-29.5c-23.2-23.2-33-54.7-29.5-85
			C572-186,603.5-176.2,626.7-153z"/>
	</g>
	<path class="st4" d="M218.5-16.2c0,13.2,14-0.7,0.7-0.7c13.2,0-0.7-14-0.7-0.7c0-13.2-14,0.7-0.7,0.7C204.5-17,218.5-3,218.5-16.2z
		"/>
	<path class="st6" d="M160.7,409.9c0,13.2,14-0.7,0.7-0.7c13.2,0-0.7-14-0.7-0.7c0-13.2-14,0.7-0.7,0.7
		C146.8,409.2,160.7,423.2,160.7,409.9z"/>
	<circle class="st6" cx="160.7" cy="267.8" r="0.7"/>
	<path class="st7" d="M1585.7-899.3h37.3c2.9,0,5.2-2.3,5.2-5.2v-37.4c0-2.9-2.3-5.2-5.2-5.2h-37.3c-2.9,0-5.2,2.3-5.2,5.2v37.4
		C1580.5-901.6,1582.8-899.3,1585.7-899.3z"/>
	<path class="st4" d="M237.5-81.4v-10.6c0-0.7,0.6-1.4,1.4-1.4h0.3c0.7,0,1.4,0.6,1.4,1.4v10.6c0,0.7-0.6,1.4-1.4,1.4h-0.3
		C238.1-80,237.5-80.6,237.5-81.4z"/>
	<g>
		<path class="st6" d="M125.9-64.5v-44.3c0-1.5,1.3-2.8,2.8-2.8h7.4c1.5,0,2.8,1.3,2.8,2.8v44.3c0,1.5-1.3,2.8-2.8,2.8h-7.4
			C127.1-61.8,125.9-63,125.9-64.5z"/>
		<path class="st7" d="M133.8-104.7c0,0,0.1-0.1,0.1-0.2c0.1-0.1,0.1-0.3,0.2-0.4s0.1-0.3,0.2-0.5c0.1-0.2,0.1-0.4,0.1-0.5
			c0-0.3-0.1-0.4-0.1-0.6c-0.1-0.1-0.2-0.2-0.4-0.2c-0.1,0-0.3,0.1-0.3,0.1c-0.1,0.1-0.1,0.3-0.2,0.5c-0.1,0.2-0.1,0.4-0.2,0.7
			c-0.1,0.4-0.3,0.7-0.4,1c-0.1,0.3-0.3,0.5-0.6,0.6c-0.2,0.1-0.5,0.3-0.9,0.3c-0.3,0-0.6-0.1-0.9-0.2c-0.3-0.1-0.5-0.3-0.6-0.5
			c-0.1-0.2-0.3-0.5-0.3-0.7c-0.1-0.3-0.1-0.5-0.1-0.9s0-0.6,0.1-0.9c0.1-0.3,0.1-0.6,0.3-0.9c0.1-0.3,0.3-0.5,0.4-0.8l1.3,0.6
			c-0.1,0-0.1,0.1-0.2,0.3c-0.1,0.1-0.1,0.3-0.3,0.5c-0.1,0.2-0.1,0.4-0.2,0.6c-0.1,0.2-0.1,0.5-0.1,0.6c0,0.3,0.1,0.5,0.1,0.6
			c0.1,0.1,0.2,0.2,0.3,0.2s0.3-0.1,0.3-0.2c0.1-0.1,0.2-0.3,0.3-0.5c0.1-0.2,0.1-0.5,0.2-0.8c0.1-0.4,0.3-0.6,0.4-0.9
			c0.1-0.3,0.3-0.4,0.5-0.5c0.2-0.1,0.5-0.2,0.8-0.2c0.5,0,0.8,0.1,1,0.3c0.3,0.2,0.5,0.5,0.6,0.8c0.1,0.3,0.2,0.7,0.2,1.1
			c0,0.3-0.1,0.6-0.1,0.9c-0.1,0.3-0.1,0.5-0.3,0.7c-0.1,0.3-0.2,0.5-0.3,0.6L133.8-104.7z"/>
		<path class="st7" d="M131.1-103.2h2.8v1.4h-2.5c-0.3,0-0.5,0.1-0.6,0.2s-0.2,0.3-0.2,0.5c0,0.1,0,0.3,0.1,0.3
			c0.1,0.1,0.1,0.2,0.2,0.3c0.1,0.1,0.2,0.2,0.4,0.3h2.8v1.4h-2.9c-0.1,0-0.2,0-0.3,0.1c-0.1,0.1-0.1,0.1-0.1,0.3h-1.1
			c0-0.1-0.1-0.3-0.1-0.3c0-0.1,0-0.2,0-0.3c0-0.3,0.1-0.5,0.1-0.6s0.3-0.2,0.4-0.3h0.3c-0.3-0.2-0.5-0.5-0.6-0.8
			c-0.1-0.3-0.2-0.6-0.2-1c0-0.5,0.1-0.8,0.5-1C130.1-103.1,130.5-103.2,131.1-103.2z"/>
		<path class="st7" d="M129.4-96.2c0-0.4,0.1-0.7,0.2-1.1c0.1-0.4,0.3-0.6,0.6-0.9l0.9,0.5c-0.2,0.3-0.3,0.5-0.5,0.8
			c-0.1,0.3-0.1,0.5-0.1,0.7c0,0.2,0,0.3,0.1,0.4c0.1,0.1,0.1,0.1,0.3,0.1c0.1,0,0.1,0,0.2-0.1c0.1-0.1,0.1-0.1,0.1-0.3
			c0.1-0.1,0.1-0.3,0.1-0.5c0.1-0.3,0.2-0.6,0.3-0.9c0.1-0.3,0.3-0.4,0.4-0.5c0.1-0.1,0.3-0.2,0.6-0.2c0.3,0,0.5,0.1,0.8,0.2
			c0.2,0.1,0.4,0.4,0.5,0.6c0.1,0.2,0.2,0.6,0.2,1c0,0.3-0.1,0.6-0.1,0.9c-0.1,0.3-0.3,0.6-0.5,0.9l-0.9-0.5
			c0.2-0.3,0.3-0.5,0.4-0.6c0.1-0.2,0.1-0.4,0.1-0.6c0-0.1,0-0.2-0.1-0.3c0-0.1-0.1-0.1-0.1-0.2c-0.1-0.1-0.1-0.1-0.2-0.1
			s-0.1,0-0.2,0.1c-0.1,0.1-0.1,0.1-0.1,0.3c-0.1,0.1-0.1,0.3-0.1,0.4c-0.1,0.4-0.2,0.6-0.3,0.9c-0.2,0.3-0.3,0.5-0.4,0.6
			c-0.2,0.1-0.4,0.2-0.6,0.2c-0.5,0-0.8-0.2-1-0.5C129.6-95.2,129.4-95.7,129.4-96.2z"/>
		<path class="st7" d="M129.4-91.5c0-0.4,0.1-0.7,0.2-1c0.1-0.3,0.3-0.5,0.5-0.8c0.2-0.2,0.5-0.4,0.7-0.5c0.3-0.1,0.6-0.2,0.9-0.2
			c0.4,0,0.8,0.1,1.1,0.3c0.3,0.2,0.6,0.5,0.9,0.9c0.2,0.3,0.3,0.8,0.3,1.3c0,0.5-0.1,1-0.3,1.3c-0.2,0.3-0.5,0.6-0.9,0.8l-0.4-1.3
			c0.1-0.1,0.3-0.2,0.3-0.3c0.1-0.1,0.1-0.3,0.1-0.5c0-0.2-0.1-0.3-0.1-0.5c-0.1-0.1-0.2-0.3-0.4-0.3c-0.2-0.1-0.4-0.1-0.6-0.1
			c-0.2,0-0.5,0.1-0.6,0.1c-0.2,0.1-0.3,0.2-0.4,0.4c-0.1,0.1-0.1,0.3-0.1,0.5c0,0.1,0,0.2,0.1,0.3c0.1,0.1,0.1,0.2,0.1,0.3
			c0.1,0.1,0.1,0.1,0.2,0.2l-0.4,1.3c-0.3-0.1-0.5-0.3-0.6-0.5c-0.2-0.2-0.3-0.5-0.4-0.7C129.5-90.9,129.4-91.2,129.4-91.5z"/>
		<path class="st7" d="M132.8-86c0-0.3-0.1-0.6-0.1-0.9c-0.1-0.3-0.3-0.5-0.5-0.6h-2.6v-1.4h4.4v1.3h-0.9c0.3,0.1,0.5,0.4,0.7,0.6
			c0.2,0.3,0.3,0.5,0.3,0.8c0,0.1,0,0.1,0,0.1v0.1L132.8-86L132.8-86z"/>
		<path class="st7" d="M134.4-85.4h1.3v1.4h-1.3V-85.4z M129.5-85.4h4.5v1.4h-4.4L129.5-85.4L129.5-85.4z"/>
		<path class="st7" d="M129.4-80.5c0-0.3,0.1-0.6,0.2-0.9c0.1-0.3,0.3-0.5,0.6-0.6h-0.7v-1.1h6.2v1.4h-2.5c0.3,0.1,0.5,0.3,0.6,0.6
			s0.2,0.5,0.2,0.9c0,0.3-0.1,0.5-0.2,0.8c-0.1,0.3-0.3,0.5-0.5,0.6c-0.2,0.2-0.5,0.3-0.7,0.4c-0.3,0.1-0.6,0.1-0.9,0.1
			s-0.6-0.1-0.9-0.1c-0.3-0.1-0.5-0.3-0.7-0.5c-0.2-0.2-0.4-0.4-0.5-0.6C129.5-79.9,129.4-80.2,129.4-80.5z M130.5-80.9
			c0,0.1,0,0.3,0.1,0.5c0.1,0.1,0.1,0.3,0.3,0.3c0.1,0.1,0.2,0.2,0.3,0.2c0.1,0.1,0.3,0.1,0.5,0.1c0.2,0,0.4-0.1,0.6-0.1
			c0.2-0.1,0.3-0.2,0.5-0.3c0.1-0.1,0.2-0.3,0.2-0.5c0-0.1-0.1-0.3-0.1-0.4c-0.1-0.1-0.1-0.3-0.3-0.3c-0.1-0.1-0.3-0.2-0.4-0.3h-0.9
			c-0.1,0.1-0.2,0.1-0.3,0.2c-0.1,0.1-0.1,0.1-0.2,0.2c-0.1,0.1-0.1,0.2-0.1,0.3C130.6-81.1,130.5-80.9,130.5-80.9z"/>
		<path class="st7" d="M134.4-77.7h1.3v1.4h-1.3V-77.7z M129.5-77.7h4.5v1.4h-4.4L129.5-77.7L129.5-77.7z"/>
		<path class="st7" d="M132.8-72.6c0-0.3-0.1-0.6-0.1-0.9c-0.1-0.3-0.3-0.5-0.5-0.6h-2.6v-1.4h4.4v1.3h-0.9c0.3,0.1,0.5,0.4,0.7,0.6
			c0.2,0.3,0.3,0.5,0.3,0.8c0,0.1,0,0.1,0,0.1v0.1L132.8-72.6L132.8-72.6z"/>
		<path class="st7" d="M129.4-70.3c0-0.4,0.1-0.7,0.2-1.1c0.1-0.4,0.3-0.6,0.6-0.9l0.9,0.5c-0.2,0.3-0.3,0.5-0.5,0.8
			c-0.1,0.3-0.1,0.5-0.1,0.7c0,0.2,0,0.3,0.1,0.4c0.1,0.1,0.1,0.1,0.3,0.1c0.1,0,0.1,0,0.2-0.1c0.1-0.1,0.1-0.1,0.1-0.3
			c0.1-0.1,0.1-0.3,0.1-0.5c0.1-0.3,0.2-0.6,0.3-0.9c0.1-0.3,0.3-0.4,0.4-0.5c0.1-0.1,0.3-0.2,0.6-0.2c0.3,0,0.5,0.1,0.8,0.2
			c0.2,0.1,0.4,0.4,0.5,0.6c0.1,0.3,0.2,0.6,0.2,1c0,0.3-0.1,0.6-0.1,0.9c-0.1,0.3-0.3,0.6-0.5,0.9l-0.9-0.5
			c0.2-0.3,0.3-0.5,0.4-0.6c0.1-0.2,0.1-0.4,0.1-0.6c0-0.1,0-0.2-0.1-0.3c0-0.1-0.1-0.1-0.1-0.2c-0.1-0.1-0.1-0.1-0.2-0.1
			s-0.1,0-0.2,0.1c-0.1,0.1-0.1,0.1-0.1,0.2c-0.1,0.1-0.1,0.3-0.1,0.4c-0.1,0.4-0.2,0.6-0.3,0.9c-0.1,0.3-0.3,0.5-0.4,0.6
			c-0.2,0.1-0.4,0.2-0.6,0.2c-0.5,0-0.8-0.2-1-0.5C129.6-69.3,129.4-69.8,129.4-70.3z"/>
		<path class="st7" d="M129.4-65.7c0-0.4,0.1-0.7,0.2-1c0.1-0.3,0.3-0.5,0.5-0.8c0.2-0.2,0.5-0.4,0.7-0.5c0.3-0.1,0.6-0.2,0.9-0.2
			c0.5,0,0.8,0.1,1.1,0.3c0.3,0.2,0.6,0.5,0.9,0.9c0.2,0.3,0.3,0.8,0.3,1.3s-0.1,0.9-0.3,1.3c-0.2,0.3-0.5,0.6-0.9,0.8
			c-0.3,0.2-0.7,0.3-1.1,0.3c-0.1,0-0.1,0-0.2,0s-0.1,0-0.2,0v-3.3c-0.2,0-0.3,0.1-0.5,0.2c-0.1,0.1-0.3,0.2-0.3,0.4
			c-0.1,0.1-0.1,0.3-0.1,0.5c0,0.2,0.1,0.4,0.1,0.6c0.1,0.2,0.2,0.3,0.4,0.4l-0.3,1.1c-0.3-0.1-0.5-0.3-0.6-0.5
			c-0.2-0.2-0.3-0.5-0.4-0.7C129.5-65,129.4-65.4,129.4-65.7z M132.1-66.7v2c0.2,0,0.3-0.1,0.5-0.2c0.1-0.1,0.3-0.2,0.3-0.3
			c0.1-0.1,0.1-0.3,0.1-0.5s-0.1-0.3-0.1-0.5c-0.1-0.1-0.2-0.3-0.3-0.3C132.5-66.6,132.3-66.7,132.1-66.7z"/>
	</g>
	<ellipse class="st6" cx="249.8" cy="-496.3" rx="138.6" ry="89.1"/>
	<path class="st8" d="M338-50.4h-18c-2,0-3.7,1.6-3.7,3.7v18.1c0,2,1.6,3.7,3.7,3.7h0.6c0,0.1,0,0.1,0.1,0.1l2.9,5.1
		c0.5,0.9,1.6,0.9,2.2,0l2.9-5.1c0,0,0-0.1,0.1-0.1h9.4c2,0,3.7-1.6,3.7-3.7v-18.1C341.7-48.8,340.1-50.4,338-50.4z"/>
	
		<image style="overflow:visible;" width="533" height="323" xlink:href="BAC32981.jpg"  transform="matrix(0.2519 0 0 0.2519 390.1146 -52.8379)">
	</image>
</g>
<g id="OBJECTS">
	<path class="st0" d="M-323.1,98.3c-28.5,0-51.6-29.8-51.6-66.5s23.2-66.5,51.6-66.5h157.9c16,0.9,29.4,8.4,38.6,21.7
		c8.3,11.9,12.8,27.8,12.8,44.8c0,17-4.6,32.9-12.8,44.8c-9.2,13.3-22.6,20.9-38.6,21.7H-323.1z"/>
	<path class="st1" d="M-316.8,91.9c-26.1,0-47.4-26.5-47.4-59.1s21.3-59.1,47.4-59.1h144.9c14.7,0.8,27,7.4,35.5,19.3
		c7.6,10.6,11.8,24.7,11.8,39.8c0,15.1-4.2,29.2-11.8,39.8c-8.5,11.9-20.8,18.5-35.5,19.3H-316.8z"/>
	<path class="st9" d="M-344.1,72.8c-20.3-30.3-15.5-69.3,10.6-86.8"/>
	<g>
		<path class="st9" d="M437.9,233.7c22.5,28.7,20.7,67.9-4.1,87.4"/>
		<path class="st4" d="M453.6,282.8c0.4,4.5,1.1,6.2,3.6,8.9c-3.3,0.7-4.5,1.7-6.6,5.3c-0.4-4.5-1.1-6.2-3.6-8.9
			C450.3,287.5,451.6,286.5,453.6,282.8z"/>
	</g>
	<path class="st4" d="M-353.6,13.3c0.4,4.5,1.1,6.3,3.6,9c-3.2,0.7-4.5,1.7-6.5,5.4c-0.4-4.5-1.1-6.3-3.6-9
		C-356.9,18-355.7,17-353.6,13.3z"/>
	<g>
		<path class="st4" d="M-132.2,244.7h-63.5c-7.7,0-14-6.3-14-14V114.3c0-7.7,6.3-14,14-14h63.5c7.7,0,14,6.3,14,14v116.5
			C-118.3,238.5-124.5,244.7-132.2,244.7z"/>
		<g>
			<path class="st3" d="M-132.2,237.2h-63.5c-3.6,0-6.5-2.9-6.5-6.5V114.3c0-3.6,2.9-6.5,6.5-6.5h63.5c3.6,0,6.5,2.9,6.5,6.5v116.5
				C-125.8,234.3-128.7,237.2-132.2,237.2z M-195.8,108.8c-3,0-5.5,2.5-5.5,5.5v116.5c0,3,2.5,5.5,5.5,5.5h63.5c3,0,5.5-2.5,5.5-5.5
				V114.3c0-3-2.5-5.5-5.5-5.5H-195.8z"/>
		</g>
		<g>
			<path class="st3" d="M-165,112.1c-0.4,2.6-0.2,3.6,0.9,5.3c-2.1,0.2-3,0.7-4.7,2.6c0.4-2.6,0.2-3.6-0.9-5.3
				C-167.7,114.6-166.8,114.1-165,112.1z"/>
			<path class="st3" d="M-156,117.5c-0.3,1.5-0.1,2.1,0.5,3.2c-1.2,0.1-1.8,0.4-2.8,1.5c0.3-1.5,0.1-2.1-0.5-3.2
				C-157.6,119-157.1,118.7-156,117.5z"/>
			<path class="st3" d="M-161.5,120c-0.6,3.8-0.4,5.3,1.3,7.9c-3,0.2-4.4,1-7,3.9c0.6-3.8,0.4-5.3-1.3-7.9
				C-165.4,123.6-164.1,122.9-161.5,120z"/>
		</g>
		<g>
			<path class="st2" d="M-183.3,133.9c-0.3,0.2-0.7,0.3-1.2,0.3l-7.9-0.6c-0.4,0-4.3-0.3-8.7-1.2c-6.5-1.3-14.5-3.6-18.5-10.9
				c-3.8-7-1.2-15.7,5.7-19.5c4-2.2,8.8-2.3,12.9-0.4c0.6-4.4,3.3-8.4,7.3-10.6c7-3.8,15.7-1.2,19.5,5.7c4,7.3,1.6,15.3-0.9,21.4
				c-1.7,4.1-3.5,7.6-3.7,8l-3.8,7C-182.7,133.5-183,133.7-183.3,133.9z"/>
			<path class="st3" d="M-184.3,132.6c-0.4,0.2-0.8,0.2-1.2,0.2l-7.9-1c-0.4-0.1-4.3-0.6-8.6-1.6c-6.4-1.6-14.3-4.4-17.8-11.9
				c-3.4-7.2-0.4-15.8,6.8-19.2c4.1-2,8.9-1.8,12.9,0.2c0.9-4.4,3.8-8.2,7.9-10.2c7.2-3.4,15.8-0.4,19.2,6.8
				c3.6,7.5,0.8,15.3-2,21.3c-1.9,4-3.9,7.4-4.2,7.8l-4.2,6.8C-183.6,132.2-184,132.5-184.3,132.6z"/>
			<path class="st5" d="M-211.3,101.6c4.5-2.2,9.8-1.2,13.2,2.1c-0.4-4.7,2.1-9.4,6.6-11.6c5.8-2.8,12.8-0.3,15.6,5.5
				c3,6.4,0.6,13.3-1.9,18.6c-1.7,3.7-3.6,6.8-3.8,7.2l-4,6.4l-7.5-1c-0.4-0.1-4-0.5-8-1.5c-5.7-1.4-12.6-3.9-15.7-10.2
				C-219.6,111.4-217.1,104.4-211.3,101.6z"/>
			<path class="st10" d="M-183.3,97.1c-0.8,1.2-2.4,1.6-3.7,0.8c-1.2-0.8-1.6-2.4-0.8-3.7s2.4-1.6,3.7-0.8
				C-182.8,94.2-182.5,95.9-183.3,97.1z M-181.2,97c-0.3,0.5-0.2,1.2,0.4,1.6c0.5,0.3,1.2,0.2,1.6-0.4s0.2-1.2-0.4-1.6
				C-180.2,96.3-180.9,96.5-181.2,97z"/>
		</g>
		<g>
			<path class="st11" d="M-131.6,182.3c-3.4,0.2-6.6-1.5-8.6-4.4c-1.2-1.8-2.5-5-2-10.1c-3.8,4-7.4,4.9-9.7,5c0,0,0,0,0,0
				c-5.4,0.2-9.8-3.7-10.2-9c-0.4-5.7,3.6-9.5,8.9-11.8c-5.5-1.3-8.1-4-9.3-5.9c-1.9-3-2.1-6.6-0.5-9.7c1.6-3.1,4.7-5.1,8.3-5.2
				c2.1-0.1,5.5,0.4,9.5,3.4c-1.5-5.2-0.5-8.7,0.4-10.7c1.6-3.3,4.7-5.3,8.3-5.5c3.4-0.2,6.6,1.5,8.6,4.4c1.2,1.8,2.5,5,2,10.1
				c3.8-4,7.4-4.9,9.7-5c5.4-0.2,9.8,3.7,10.2,9c0.4,5.7-3.6,9.5-8.9,11.8c7.5,1.9,10.6,6.5,10.8,10.8c0.2,5.4-3.9,9.9-9.4,10.1
				c0,0,0,0,0,0c-2.1,0.1-5.5-0.4-9.5-3.4c1.5,5.2,0.5,8.7-0.4,10.7C-124.9,180.1-128,182.2-131.6,182.3
				C-131.6,182.3-131.6,182.3-131.6,182.3z"/>
			<path class="st3" d="M-130.7,181c-3.4,0.2-6.6-1.5-8.6-4.4c-1.2-1.8-2.5-5-2-10.1c-3.8,4-7.4,4.9-9.7,5c0,0,0,0,0,0
				c-5.4,0.2-9.8-3.7-10.2-9c-0.4-5.7,3.6-9.5,8.9-11.8c-5.5-1.3-8.1-4-9.3-5.9c-1.9-3-2.1-6.6-0.5-9.7c1.6-3.1,4.7-5.1,8.3-5.2
				c2.1-0.1,5.5,0.4,9.5,3.4c-1.5-5.2-0.5-8.7,0.4-10.7c1.6-3.3,4.7-5.3,8.3-5.5c3.4-0.2,6.6,1.5,8.6,4.4c1.2,1.8,2.5,5,2,10.1
				c3.8-4,7.4-4.9,9.7-5c5.4-0.2,9.8,3.7,10.2,9c0.4,5.7-3.6,9.5-8.9,11.8c7.5,1.9,10.6,6.5,10.8,10.8c0.2,5.4-3.9,9.9-9.4,10.1
				c0,0,0,0,0,0c-2.1,0.1-5.5-0.4-9.5-3.4c1.5,5.2,0.5,8.7-0.4,10.7C-124,178.8-127.1,180.8-130.7,181
				C-130.7,181-130.7,181-130.7,181z"/>
			<path class="st10" d="M-125.6,148.3c34.5-2.9,16.6,35.1-3.2,6.7c19.8,28.4-22.1,32-7.4,0.6c-14.7,31.3-38.7-3.2-4.2-6.1
				c-34.5,2.9-16.6-35.1,3.2-6.7c-19.8-28.4,22.1-32,7.4-0.6C-115.1,110.9-91.1,145.4-125.6,148.3z"/>
			
				<ellipse transform="matrix(0.3849 -0.923 0.923 0.3849 -219.2749 -31.1161)" class="st10" cx="-133" cy="149" rx="11.2" ry="11.2"/>
			<g>
				<path d="M-133,157.6c-1.2,0-2.5-0.3-3.7-0.8c-2.1-1-3.7-2.7-4.4-4.9c-0.8-2.2-0.7-4.5,0.3-6.6l1.1,0.5c-0.8,1.8-0.9,3.8-0.3,5.6
					c0.7,1.8,2,3.3,3.8,4.2c1.8,0.8,3.8,0.9,5.6,0.3c1.8-0.7,3.3-2,4.2-3.8l1.1,0.5c-1,2.1-2.7,3.7-4.9,4.4
					C-131,157.4-132,157.6-133,157.6z"/>
			</g>
			<g>
				<path class="st3" d="M-132.8,146.9c-1,2.2-2.9,3.4-4.3,2.8c-1.3-0.6-1.6-2.9-0.6-5.1c1-2.2,2.9-3.4,4.3-2.8
					C-132.1,142.5-131.8,144.7-132.8,146.9z"/>
				<path d="M-134.3,141.7c-1.2,0.1-2.6,1.2-3.4,2.9c-0.8,1.7-0.8,3.5-0.1,4.5c1.2-0.1,2.6-1.2,3.4-2.9
					C-133.6,144.4-133.6,142.7-134.3,141.7z"/>
			</g>
			<g>
				<path class="st3" d="M-126.7,149.8c-1,2.2-2.9,3.4-4.3,2.8c-1.3-0.6-1.6-2.9-0.6-5.1c1-2.2,2.9-3.4,4.3-2.8
					C-126,145.3-125.7,147.6-126.7,149.8z"/>
				<path d="M-128.2,144.6c-1.2,0.1-2.6,1.2-3.4,2.9c-0.8,1.7-0.8,3.5-0.1,4.5c1.2-0.1,2.6-1.2,3.4-2.9
					C-127.5,147.3-127.5,145.5-128.2,144.6z"/>
			</g>
		</g>
		<g>
			<text transform="matrix(1 0 0 1 -195.3096 162.3607)"><tspan x="0" y="0" class="st10" style="font-family:'Shrikhand-Regular'; font-size:17.9599px;">I’ll</tspan><tspan x="0" y="15.9" class="st10" style="font-family:'Shrikhand-Regular'; font-size:17.9599px;">Be</tspan><tspan x="0" y="31.7" class="st10" style="font-family:'Shrikhand-Regular'; font-size:17.9599px;">There</tspan><tspan x="0" y="47.6" class="st10" style="font-family:'Shrikhand-Regular'; font-size:17.9599px;">For</tspan><tspan x="0" y="63.5" class="st10" style="font-family:'Shrikhand-Regular'; font-size:17.9599px;">You.</tspan></text>
		</g>
		<path class="st3" d="M-126.3,228.2c-1.4-4.6-2.5-6.1-5.7-8c3.3-1.9,4.4-3.4,5.7-8c1.4,4.6,2.5,6.1,5.7,8
			C-123.8,222-124.9,223.6-126.3,228.2z"/>
		<path class="st3" d="M-201.8,145.6c-0.8-2.9-1.5-3.8-3.5-5c2-1.2,2.7-2.1,3.5-5c0.8,2.9,1.5,3.8,3.6,5
			C-200.2,141.8-200.9,142.7-201.8,145.6z"/>
	</g>
	<path class="st10" d="M556,251.9h220.3c5.5,0,10,4.5,10,10v137.3c0,5.5-4.5,10-10,10H556c-5.5,0-10-4.5-10-10V261.9
		C546,256.4,550.5,251.9,556,251.9z"/>
	<g>
		<path class="st0" d="M761.4,393.4c-0.6,0-1.2-0.1-1.8-0.2c-0.5-0.1-1-0.3-1.7-0.5c-0.6-0.3-1.1-0.5-1.6-0.8
			c-0.5-0.3-1-0.7-1.4-1.1c-0.3-0.3-0.6-0.7-0.9-1c-1.7,2.3-4.4,3.7-7.3,3.7c-2.9,0-5.6-1.4-7.3-3.7c-1.7,2.3-4.4,3.7-7.3,3.7
			c-2.9,0-5.6-1.4-7.3-3.7c-1.7,2.3-4.4,3.7-7.3,3.7c-2.9,0-5.6-1.4-7.3-3.7c-1.7,2.3-4.4,3.7-7.3,3.7c-2.9,0-5.6-1.4-7.3-3.7
			c-1.7,2.3-4.4,3.7-7.3,3.7c-2.9,0-5.6-1.4-7.3-3.7c-1.7,2.3-4.4,3.7-7.3,3.7c-2.9,0-5.6-1.4-7.3-3.7c-1.7,2.3-4.4,3.7-7.3,3.7
			c-2.9,0-5.6-1.4-7.3-3.7c-1.7,2.3-4.4,3.7-7.3,3.7c-2.9,0-5.6-1.4-7.3-3.7c-1.7,2.3-4.4,3.7-7.3,3.7c-2.9,0-5.6-1.4-7.3-3.7
			c-1.7,2.3-4.4,3.7-7.3,3.7c-2.9,0-5.6-1.4-7.3-3.7c-1.7,2.3-4.4,3.7-7.3,3.7c-2.9,0-5.6-1.4-7.3-3.7c-1.7,2.3-4.4,3.7-7.3,3.7
			c-2.9,0-5.6-1.4-7.3-3.7c-0.3,0.4-0.6,0.7-0.9,1.1c-0.4,0.5-0.9,0.8-1.4,1.1c-0.4,0.3-1,0.6-1.5,0.8c-0.6,0.2-1.2,0.4-1.7,0.5
			c-1.1,0.2-2.5,0.2-3.6,0c-0.5-0.1-1.1-0.3-1.7-0.5c-0.6-0.3-1.2-0.6-1.6-0.8c-0.5-0.3-1-0.7-1.4-1.1c-0.4-0.4-0.8-0.9-1.1-1.4
			c-0.3-0.5-0.6-1-0.8-1.6c-0.2-0.6-0.4-1.2-0.5-1.7c-0.1-0.5-0.2-1.1-0.2-1.8c0-0.6,0.1-1.2,0.2-1.8c0.1-0.5,0.3-1.1,0.5-1.7
			c0.3-0.6,0.5-1.1,0.8-1.6c0.3-0.5,0.7-0.9,1.1-1.4c0.4-0.4,0.9-0.8,1.4-1.1c0,0,0.1-0.1,0.1-0.1c-2.6-1.7-4.2-4.5-4.2-7.7
			c0-3.2,1.6-6,4.2-7.7c-2.6-1.7-4.2-4.5-4.2-7.7c0-3.2,1.6-6,4.2-7.7c-2.6-1.7-4.2-4.5-4.2-7.7c0-3.2,1.6-6,4.2-7.7
			c-2.6-1.7-4.2-4.5-4.2-7.7c0-3.2,1.6-6,4.2-7.7c-2.6-1.7-4.2-4.5-4.2-7.7c0-3.2,1.6-6,4.2-7.7c-2.6-1.7-4.2-4.5-4.2-7.7
			c0-3.2,1.6-6,4.2-7.7c0,0-0.1-0.1-0.1-0.1c-0.5-0.3-1-0.7-1.4-1.1c-1.7-1.7-2.7-4.1-2.7-6.5c0-0.6,0.1-1.2,0.2-1.8
			c0.1-0.5,0.3-1.1,0.5-1.7c0.3-0.6,0.5-1.1,0.8-1.6c0.3-0.5,0.7-0.9,1.1-1.4c0.4-0.4,0.9-0.8,1.4-1.1c0.5-0.3,1-0.6,1.6-0.8
			c0.7-0.3,1.2-0.4,1.7-0.5c2.9-0.6,6.1,0.4,8.2,2.5c0.3,0.3,0.6,0.7,0.9,1.1c1.7-2.3,4.4-3.7,7.3-3.7c2.9,0,5.6,1.4,7.3,3.7
			c1.7-2.3,4.4-3.7,7.3-3.7c2.9,0,5.6,1.4,7.3,3.7c1.7-2.3,4.4-3.7,7.3-3.7c2.9,0,5.6,1.4,7.3,3.7c1.7-2.3,4.4-3.7,7.3-3.7
			c2.9,0,5.6,1.4,7.3,3.7c1.7-2.3,4.4-3.7,7.3-3.7c2.9,0,5.6,1.4,7.3,3.7c1.7-2.3,4.4-3.7,7.3-3.7c2.9,0,5.6,1.4,7.3,3.7
			c1.7-2.3,4.4-3.7,7.3-3.7c2.9,0,5.6,1.4,7.3,3.7c1.7-2.3,4.4-3.7,7.3-3.7c2.9,0,5.6,1.4,7.3,3.7c1.7-2.3,4.4-3.7,7.3-3.7
			c2.9,0,5.6,1.4,7.3,3.7c1.7-2.3,4.4-3.7,7.3-3.7c2.9,0,5.6,1.4,7.3,3.7c1.7-2.3,4.4-3.7,7.3-3.7c2.9,0,5.6,1.4,7.3,3.7
			c1.7-2.3,4.4-3.7,7.3-3.7c2.9,0,5.6,1.4,7.3,3.7c0.3-0.4,0.6-0.7,0.9-1c0.4-0.4,0.8-0.8,1.4-1.1c0.5-0.3,1-0.6,1.6-0.8
			c0.6-0.2,1.2-0.4,1.7-0.5c1.2-0.2,2.4-0.2,3.6,0c0.5,0.1,1.1,0.3,1.7,0.5c0.6,0.3,1.1,0.5,1.6,0.8c0.5,0.4,1,0.8,1.4,1.1
			c0.5,0.5,0.8,0.9,1.1,1.4c0.3,0.5,0.6,1.1,0.8,1.6c0.2,0.5,0.4,1,0.5,1.7c0.1,0.7,0.2,1.3,0.2,1.8c0,2.4-1,4.8-2.7,6.5
			c-0.4,0.4-0.9,0.8-1.4,1.1c0,0-0.1,0.1-0.1,0.1c2.6,1.7,4.2,4.5,4.2,7.7c0,3.1-1.6,6-4.2,7.7c2.6,1.7,4.2,4.5,4.2,7.7
			c0,3.2-1.6,6-4.2,7.7c2.6,1.7,4.2,4.5,4.2,7.7c0,3.2-1.6,6-4.2,7.7c2.6,1.7,4.2,4.5,4.2,7.7c0,3.2-1.6,6-4.2,7.7
			c2.6,1.7,4.2,4.5,4.2,7.7c0,3.2-1.6,6-4.2,7.7c2.6,1.7,4.2,4.5,4.2,7.7c0,3.2-1.6,6-4.2,7.7c0.6,0.4,1.1,0.8,1.5,1.2
			c0.5,0.5,0.8,0.9,1.1,1.4c0.3,0.5,0.6,1,0.8,1.6c0.2,0.5,0.4,1,0.5,1.7c0.1,0.6,0.2,1.2,0.2,1.8c0,0.6-0.1,1.2-0.2,1.8
			c-0.1,0.7-0.3,1.2-0.5,1.7c-0.2,0.5-0.5,1-0.8,1.6c-0.3,0.5-0.7,1-1.1,1.4c-0.5,0.5-0.9,0.8-1.4,1.1c-0.4,0.3-1,0.6-1.5,0.8
			c-0.6,0.2-1.2,0.4-1.7,0.5C762.6,393.4,762,393.4,761.4,393.4z M760.2,391.3C760.2,391.3,760.2,391.3,760.2,391.3
			c0.3,0,0.6,0.2,0.8,0.5c0.1,0.3,0.3,0.5,0.4,0.7c0.3,0.4,0.6,0.9,1,1.2c0.4,0.4,0.8,0.7,1.2,1c0.4,0.3,0.9,0.5,1.4,0.7
			c0.5,0.2,1,0.4,1.5,0.4c1,0.2,2.2,0.2,3.1,0c0.5-0.1,1-0.2,1.5-0.5c0.5-0.2,1-0.5,1.4-0.7c0.4-0.3,0.8-0.6,1.2-1
			c0.4-0.4,0.7-0.8,1-1.2c0.3-0.5,0.6-0.9,0.7-1.4c0.2-0.5,0.3-0.9,0.5-1.5c0.1-0.5,0.1-1,0.1-1.6c0-0.5,0-1-0.1-1.6
			c-0.1-0.6-0.3-1.1-0.5-1.5c-0.2-0.5-0.4-0.9-0.7-1.4c-0.3-0.4-0.6-0.8-1-1.2c-0.7-0.7-1.6-1.3-2.6-1.7c-0.3-0.1-0.6-0.5-0.6-0.8
			c0-0.4,0.2-0.7,0.6-0.8c3-1.2,5-4.1,5-7.4c0-3.3-2-6.2-5-7.4c-0.3-0.1-0.5-0.5-0.5-0.8c0-0.4,0.2-0.7,0.5-0.8c3-1.2,5-4.2,5-7.4
			c0-3.3-2-6.2-5-7.4c-0.3-0.1-0.6-0.5-0.6-0.8c0-0.4,0.2-0.7,0.5-0.8c3-1.2,5-4.2,5-7.4c0-3.3-2-6.2-5-7.4
			c-0.3-0.1-0.5-0.5-0.5-0.8c0-0.4,0.2-0.7,0.5-0.8c3-1.2,5-4.2,5-7.4c0-3.3-2-6.2-5-7.4c-0.3-0.1-0.6-0.5-0.6-0.8
			c0-0.4,0.2-0.7,0.5-0.8c3-1.2,5-4.2,5-7.4c0-3.3-2-6.2-5-7.4c-0.3-0.1-0.5-0.5-0.5-0.8c0-0.4,0.2-0.7,0.5-0.8c3-1.2,5-4.1,5-7.4
			c0-3.3-2-6.2-5-7.4c-0.3-0.1-0.6-0.5-0.6-0.8c0-0.4,0.2-0.7,0.6-0.8c0.6-0.2,1-0.5,1.4-0.7c0.4-0.3,0.9-0.6,1.2-1
			c1.5-1.5,2.3-3.6,2.3-5.7c0-0.5-0.1-1-0.2-1.6c-0.1-0.6-0.3-1-0.5-1.5c-0.2-0.5-0.4-0.9-0.7-1.4c-0.3-0.4-0.6-0.8-1-1.2
			c-0.3-0.3-0.8-0.7-1.2-1c-0.4-0.3-0.8-0.5-1.4-0.7c-0.5-0.2-1-0.3-1.5-0.4c-1-0.2-2.1-0.2-3.1,0c-0.5,0.1-1,0.2-1.5,0.5
			c-0.5,0.2-1,0.5-1.4,0.7c-0.5,0.3-0.9,0.7-1.2,1c-0.4,0.4-0.7,0.8-1,1.2c-0.2,0.2-0.3,0.5-0.4,0.7c-0.2,0.3-0.5,0.5-0.8,0.5h0
			c-0.3,0-0.6-0.2-0.8-0.5c-1.4-2.6-4.1-4.3-7-4.3c-3,0-5.7,1.6-7.1,4.2c-0.3,0.6-1.3,0.6-1.6,0c-1.4-2.6-4.1-4.2-7.1-4.2
			c-3,0-5.7,1.6-7.1,4.2c-0.2,0.3-0.5,0.5-0.8,0.5c0,0,0,0,0,0c-0.3,0-0.6-0.2-0.8-0.5c-1.4-2.6-4.1-4.2-7.1-4.2
			c-3,0-5.7,1.6-7.1,4.2c-0.3,0.6-1.3,0.6-1.6,0c-1.4-2.6-4.1-4.2-7.1-4.2c-3,0-5.7,1.6-7.1,4.2c-0.2,0.3-0.5,0.5-0.8,0.5l0,0
			c-0.3,0-0.6-0.2-0.8-0.5c-1.4-2.6-4.1-4.2-7.1-4.2c-3,0-5.7,1.6-7.1,4.2c-0.2,0.3-0.5,0.5-0.8,0.5l0,0c-0.3,0-0.6-0.2-0.8-0.5
			c-1.4-2.6-4.1-4.2-7.1-4.2c-3,0-5.7,1.6-7,4.2c-0.3,0.6-1.3,0.6-1.6,0c-1.4-2.6-4.1-4.2-7.1-4.2c-3,0-5.7,1.6-7.1,4.2
			c-0.2,0.3-0.5,0.5-0.8,0.5c-0.3,0-0.6-0.2-0.8-0.5c-1.4-2.6-4.1-4.2-7.1-4.2c-3,0-5.7,1.6-7.1,4.2c-0.2,0.3-0.5,0.5-0.8,0.5
			c0,0,0,0,0,0c-0.3,0-0.6-0.2-0.8-0.5c-1.4-2.6-4.1-4.2-7.1-4.2s-5.7,1.6-7.1,4.2c-0.3,0.6-1.3,0.6-1.6,0c-1.4-2.6-4.1-4.2-7.1-4.2
			c-3,0-5.7,1.6-7.1,4.2c-0.3,0.6-1.3,0.6-1.6,0c-1.4-2.6-4.1-4.2-7.1-4.2c-3,0-5.7,1.6-7.1,4.2c-0.3,0.6-1.3,0.6-1.6,0
			c-1.4-2.6-4.1-4.2-7.1-4.2c-3,0-5.7,1.7-7.1,4.3c-0.2,0.3-0.5,0.5-0.8,0.5h0c-0.3,0-0.6-0.2-0.8-0.5c-0.4-0.8-0.9-1.5-1.4-2
			c-1.9-1.9-4.6-2.7-7.2-2.2c-0.5,0.1-1,0.2-1.5,0.5c-0.5,0.2-0.9,0.5-1.4,0.7c-0.5,0.3-0.9,0.7-1.2,1c-0.4,0.4-0.7,0.8-1,1.2
			c-0.3,0.4-0.5,0.9-0.7,1.4c-0.2,0.5-0.4,1-0.4,1.5c-0.1,0.5-0.2,1-0.2,1.6c0,2.1,0.9,4.2,2.3,5.7c0.4,0.4,0.8,0.7,1.2,1
			c0.4,0.3,0.9,0.5,1.4,0.7c0.3,0.1,0.6,0.5,0.6,0.8c0,0.4-0.2,0.7-0.5,0.8c-3,1.2-5,4.1-5,7.4c0,3.2,1.9,6.1,5,7.4
			c0.3,0.1,0.5,0.5,0.5,0.8c0,0.4-0.2,0.7-0.5,0.8c-3,1.2-5,4.1-5,7.4c0,3.3,1.9,6.2,5,7.4c0.3,0.1,0.6,0.5,0.5,0.8
			c0,0.4-0.2,0.7-0.6,0.8c-3,1.2-5,4.1-5,7.4c0,3.3,1.9,6.2,5,7.4c0.3,0.1,0.5,0.5,0.5,0.8c0,0.4-0.2,0.7-0.5,0.8
			c-3,1.2-5,4.1-5,7.4c0,3.3,1.9,6.2,5,7.4c0.3,0.1,0.6,0.5,0.5,0.8c0,0.4-0.2,0.7-0.6,0.8c-3,1.2-5,4.1-5,7.4c0,3.3,1.9,6.2,5,7.4
			c0.3,0.1,0.5,0.5,0.5,0.8c0,0.4-0.2,0.7-0.5,0.8c-3,1.2-5,4.1-5,7.4c0,3.3,2,6.2,5,7.4c0.3,0.1,0.6,0.5,0.6,0.9
			c0,0.4-0.3,0.7-0.6,0.8c-0.5,0.2-0.9,0.4-1.3,0.7c-0.5,0.3-0.9,0.6-1.2,1c-0.4,0.4-0.7,0.8-1,1.2c-0.3,0.4-0.5,0.9-0.7,1.4
			c-0.2,0.5-0.4,1-0.4,1.5c-0.1,0.5-0.2,1-0.2,1.6c0,0.6,0.1,1.1,0.2,1.6c0.1,0.5,0.2,1,0.5,1.5c0.2,0.5,0.5,1,0.7,1.4
			c0.3,0.4,0.6,0.9,1,1.2c0.4,0.4,0.8,0.7,1.2,1c0.4,0.3,0.8,0.5,1.4,0.7c0.5,0.2,1,0.4,1.5,0.4c1,0.2,2.1,0.2,3.1,0
			c0.5-0.1,1-0.2,1.5-0.5c0.5-0.2,1-0.5,1.4-0.7c0.4-0.3,0.8-0.6,1.2-1c0.3-0.3,0.7-0.8,1-1.2c0.1-0.2,0.3-0.5,0.4-0.7
			c0.2-0.3,0.5-0.5,0.8-0.5c0,0,0,0,0,0c0.3,0,0.6,0.2,0.8,0.5c1.4,2.6,4.1,4.3,7,4.3c3,0,5.7-1.6,7.1-4.2c0.3-0.6,1.3-0.6,1.6,0
			c1.4,2.6,4.1,4.2,7.1,4.2c3,0,5.7-1.6,7.1-4.2c0.3-0.6,1.3-0.6,1.6,0c1.4,2.6,4.1,4.2,7.1,4.2c3,0,5.7-1.6,7.1-4.2
			c0.3-0.6,1.3-0.6,1.6,0c1.4,2.6,4.1,4.2,7.1,4.2s5.7-1.6,7.1-4.2c0.2-0.3,0.5-0.5,0.8-0.5c0,0,0,0,0,0c0.3,0,0.6,0.2,0.8,0.5
			c1.4,2.6,4.1,4.2,7.1,4.2c3,0,5.7-1.6,7.1-4.2c0.2-0.3,0.5-0.5,0.8-0.5l0,0c0.3,0,0.6,0.2,0.8,0.5c1.4,2.6,4.1,4.2,7.1,4.2
			c3,0,5.7-1.6,7.1-4.2c0.2-0.3,0.5-0.5,0.8-0.5l0,0c0.3,0,0.6,0.2,0.8,0.5c1.4,2.6,4.1,4.2,7,4.2c3,0,5.7-1.6,7.1-4.2
			c0.3-0.6,1.3-0.6,1.6,0c1.4,2.6,4.1,4.2,7.1,4.2c3,0,5.7-1.6,7.1-4.2c0.3-0.6,1.3-0.6,1.6,0c1.4,2.6,4.1,4.2,7.1,4.2
			c3,0,5.7-1.6,7.1-4.2c0.2-0.3,0.5-0.5,0.8-0.5c0,0,0,0,0,0c0.3,0,0.6,0.2,0.8,0.5c1.4,2.6,4.1,4.2,7.1,4.2c3,0,5.7-1.6,7.1-4.2
			c0.2-0.3,0.5-0.5,0.8-0.5c0,0,0,0,0,0c0.3,0,0.6,0.2,0.8,0.5c1.4,2.6,4.1,4.2,7.1,4.2s5.7-1.6,7.1-4.2c0.3-0.6,1.3-0.6,1.6,0
			c1.4,2.6,4.1,4.2,7.1,4.2c2.9,0,5.6-1.6,7-4.3C759.6,391.5,759.9,391.3,760.2,391.3z"/>
	</g>
	<path class="st2" d="M442.3-127.5h-2.7c0-10.3,0.1-20.5,0.1-30.8c0-26.5,0-53,0-79.5c0-4.7-3.2-7.9-7.8-7.9c-10,0-19.8,0-29.8,0
		c-27.1,0-54.3,0.1-81.4,0.1c-22.5,0-44.9,0-67.4-0.1c-4.3,0.1-7.6,3.4-7.6,7.9c0,10.5,0,21,0,31.5c0,26.3,0,52.5,0,78.8h-4.2
		c-1.3,0-2.5,1.1-2.5,2.5v5.2c0,1.3,1.1,2.5,2.5,2.5h200.8c1.4,0,2.5-1.1,2.5-2.5v-5.2C444.7-126.3,443.6-127.5,442.3-127.5z"/>
	<rect x="256.2" y="-243.7" class="st1" width="183.4" height="112"/>
	<g>
		<path class="st12" d="M443.3-161.6c0-26.5,0-53,0-79.5c0-4.7-3.2-7.9-7.8-7.9c-10,0-19.8,0-29.8,0c-27.1,0-54.3,0.1-81.4,0.1
			c-22.5,0-44.9,0-67.4-0.1c-4.3,0.1-7.6,3.4-7.6,7.9c0,10.5,0,21,0,31.5c0,27,0,53.9,0,80.9c0,0.4,0,0.7,0,1.1h193.9
			C443.3-139.1,443.3-150.3,443.3-161.6z M435.8-134.5c-59.6,0-119.2,0-179,0c0-35.7,0-71.2,0-106.7c59.7,0,119.3,0,179,0
			C435.8-205.7,435.8-170.2,435.8-134.5z"/>
	</g>
	<path class="st13" d="M445.9-120.8H245.1c-1.3,0-2.5-1.1-2.5-2.5v-5.2c0-1.3,1.1-2.5,2.5-2.5h200.8c1.3,0,2.5,1.1,2.5,2.5v5.2
		C448.4-121.9,447.3-120.8,445.9-120.8z"/>
	<g>
		<path class="st0" d="M430.8,96.6c-0.1,0.2-0.2,0.4-0.3,0.4c-0.9,0.9-1.9,1.9-2.8,2.8c-0.2,0.2-0.5,0.2-0.8,0.1
			c-0.2-0.2-0.2-0.5,0.1-0.8c0.9-0.9,1.9-1.9,2.8-2.8c0.2-0.2,0.4-0.2,0.6-0.1C430.6,96.3,430.7,96.4,430.8,96.6z"/>
		<path class="st0" d="M418.6,99.9c-0.2,0.2-0.5,0.2-0.8,0c-0.9-0.9-1.9-1.9-2.9-2.9c-0.1-0.1-0.1-0.4-0.1-0.6
			c0.1-0.2,0.3-0.2,0.4-0.4c0.2,0.1,0.4,0.2,0.4,0.3c0.9,0.9,1.9,1.9,2.8,2.8C418.9,99.4,418.9,99.7,418.6,99.9z"/>
		<path class="st0" d="M423.3,93.7c0,1.3,0,2.6,0,3.9c0,0.4-0.2,0.6-0.5,0.6c-0.3,0-0.5-0.2-0.5-0.6c0-0.6,0-1.3,0-1.9v-1.9
			c0-0.4,0.2-0.6,0.5-0.6S423.3,93.3,423.3,93.7z"/>
		<path class="st0" d="M416.9,104.1c0,0.4-0.2,0.5-0.6,0.5c-0.6,0-1.2,0-1.9,0s-1.3,0-1.9,0c-0.4,0-0.6-0.2-0.6-0.5
			c0-0.3,0.2-0.5,0.6-0.5c1.3,0,2.5,0,3.8,0C416.6,103.6,416.9,103.7,416.9,104.1z"/>
		<path class="st0" d="M433.8,104.1c0,0.4-0.2,0.5-0.6,0.5c-1.3,0-2.6,0-3.9,0c-0.4,0-0.6-0.2-0.6-0.5c0-0.3,0.2-0.5,0.6-0.5
			c0.6,0,1.3,0,1.9,0s1.3,0,1.9,0C433.6,103.6,433.8,103.7,433.8,104.1z"/>
		<path class="st0" d="M441.8,133.1c-0.1,2.6-1.2,5-3.2,6.8c-1.5,1.4-3.3,2.1-5.3,2.1c-2.3,0-4.7,0.1-7,0c-3.4-0.1-5.9-1.8-7.5-4.8
			c-1-1.9-1.9-3.8-2.9-5.6c-1-1.9-2.2-3.6-3.8-5.1c-0.7-0.6-1.1-1.4-1.2-2.3c-0.1-1.5,0.7-2.8,1.9-3.4c1.3-0.6,2.9-0.4,3.9,0.6
			c0.9,0.9,1.8,1.8,2.6,2.7c0.1,0.1,0.2,0.2,0.4,0.4c0.1,0,0.1,0,0.1-0.1v-0.7c0-6.2,0-12.4,0-18.6c0-0.5,0-1.1,0.1-1.6
			c0.2-1.5,1.4-2.6,2.8-2.8c1.4-0.2,2.8,0.7,3.3,2.1c0.1,0.4,0.2,0.8,0.2,1.3c0,4.2,0,8.3,0,12.5v0.5c1-0.8,2.1-1.1,3.2-0.6
			c1.2,0.5,1.8,1.4,2,2.6c1-0.8,2.1-1,3.3-0.5s1.8,1.5,1.9,2.7c0.1-0.1,0.2-0.2,0.3-0.2c1-0.7,2.1-0.8,3.1-0.4
			c1.1,0.5,1.8,1.4,1.8,2.6C441.8,126.5,441.9,129.8,441.8,133.1z"/>
	</g>
	<g>
		<g id="XMLID_1_">
			<path class="st13" d="M277.5,104.4c0.1,8.5-17.9,19.3-20.4,27.5c-2.5,8.2,6.3,27.2,1.4,34.2c-4.9,7-25.8,5.1-32.6,10.3
				c-6.8,5.1-10.9,25.7-19,28.5c-8.1,2.8-23.9-11-32.4-10.9c-8.6,0.1-23.9,14.4-32.1,11.9c-8.2-2.5-12.8-22.9-19.8-27.9
				c-7-4.9-27.8-2.4-32.9-9.2c-5.1-6.8,3.1-26.1,0.3-34.2c-2.8-8.1-21.1-18.3-21.2-26.8c-0.1-8.6,17.9-19.3,20.4-27.5
				C91.6,72,82.8,53,87.7,46c4.9-7,25.8-5.1,32.6-10.3c6.8-5.1,10.9-25.7,19-28.5c8.1-2.8,23.9,11,32.4,10.9
				c8.6-0.1,23.9-14.4,32.1-11.9c8.2,2.5,12.8,23,19.8,27.9c7,4.9,27.8,2.4,32.9,9.2c5.1,6.8-3.1,26.1-0.3,34.2
				C259,85.6,277.3,95.8,277.5,104.4z M246.7,128.6c2.2-7.2,18-16.6,17.8-24.1c-0.1-7.5-16.2-16.4-18.6-23.5c-2.4-7.1,4.8-24,0.3-30
				c-4.5-6-22.7-3.8-28.9-8.1c-6.1-4.3-10.2-22.2-17.4-24.4c-7.2-2.2-20.6,10.3-28.1,10.4c-7.5,0.1-21.3-12-28.4-9.5
				c-7.1,2.4-10.6,20.4-16.6,24.9c-6,4.5-24.3,2.9-28.6,9c-4.3,6.1,3.4,22.8,1.2,29.9c-2.2,7.2-18,16.6-17.8,24.1
				c0.1,7.5,16.2,16.4,18.6,23.5c2.4,7.1-4.8,24-0.3,30c4.5,6,22.7,3.8,28.9,8.1c6.1,4.3,10.2,22.2,17.4,24.4s20.6-10.3,28.1-10.4
				c7.5-0.1,21.3,11.9,28.4,9.5s10.6-20.4,16.6-24.9c6-4.5,24.3-2.9,28.6-9C252.2,152.4,244.5,135.8,246.7,128.6z"/>
			<path class="st1" d="M267.3,104.5c0.1,7.7-16.1,17.4-18.4,24.8c-2.3,7.4,5.7,24.5,1.3,30.8c-4.4,6.3-23.3,4.6-29.4,9.3
				c-6.2,4.6-9.8,23.2-17.1,25.7s-21.5-9.9-29.3-9.8c-7.7,0.1-21.6,13-28.9,10.7c-7.4-2.3-11.6-20.7-17.9-25.1
				c-6.3-4.4-25.1-2.2-29.7-8.3c-4.6-6.2,2.8-23.6,0.3-30.9c-2.5-7.3-19-16.5-19.2-24.2C78.8,99.8,95,90.1,97.3,82.7
				c2.3-7.4-5.7-24.5-1.3-30.8c4.4-6.3,23.3-4.6,29.4-9.3c6.2-4.6,9.8-23.2,17.1-25.7c7.3-2.5,21.5,9.9,29.3,9.8
				c7.7-0.1,21.6-13,28.9-10.7c7.4,2.3,11.6,20.7,17.9,25.1c6.3,4.4,25.1,2.2,29.7,8.3c4.6,6.2-2.8,23.6-0.3,30.9
				C250.6,87.6,267.1,96.8,267.3,104.5z"/>
		</g>
		<path class="st14" d="M215.1,138.1h-82.2c-2.8,0-5.1,2.3-5.1,5.1v13.7c0,2.8,2.3,5.1,5.1,5.1h56.3l3.2,10.6l1.6-6.9l7.9,9l3.7-3.3
			l-7.9-9l4.1-0.4h13.3c2.8,0,5-2.2,5.1-5v-13.8C220.3,140.4,217.9,138.1,215.1,138.1z"/>
		<g class="st15">
			<path class="st16" d="M138.9,49.2h-0.3H129c0,0-6.4,25.7-3.7,32c2.6,6.4,10.9,11.9,11.6,19.1c0.7,7.2,1,20.3-0.7,23.2
				c-1.8,3.1-9.7,2.7-9.7,4.7c0,2.9,10.8,2.2,12.2,2.1c1.5,0.1,12.2,0.7,12.2-2.1c0-2.1-7.9-1.8-9.7-4.7c-1.8-3.1-1.3-16.1-0.7-23.2
				c0.8-7.2,9.2-12.6,11.8-19.1c2.6-6.4-3.7-32-3.7-32H138.9z"/>
			<path class="st16" d="M214.9,127.1c-6-1.1-7.3-5.3-7.3-5.3l0.2-17.7C207.9,94.7,211,91,211,91l16.4-21.5l-21-0.2l-12-0.1
				c0.7-3.1,1.3-6.2,2-9c5,1,10.8,0.9,17.1-1.6c0,0-9.2-6.3-14.2-12.3c0.9-4.7,1.5-7.7,1.6-8.1c0.4-3.2-1.5-0.3-1.5-0.3l-1.7,8.1
				c-2.4,1.3-9.4,4.4-18.7,5.8c0,0,6.3,5.8,15.8,8l-1.9,9.5l-7.6-0.1l0.4,0.5h-0.4h-12.5l1.5,59.4c0,0,2.3,0.7,11.2,0.7
				c0,0,0.4,0,0.5,0s0.5,0,0.5,0c4.7,0,7.5-0.2,9.1-0.4c1.7,0.3,5.1,0.7,10.2,0.8c7.4,0.1,11.4-0.8,11.4-0.8
				S220.8,128.2,214.9,127.1z M203.9,121.6c0,0-1.2,3.8-6.6,5l0.7-40.1l3.1,4.3c0,0,3,3.7,2.9,13.2L203.9,121.6z"/>
			<path class="st16" d="M168.5,127.4c-0.6-1.9-1.3-3.8-1.9-5.7c1.7-1.3,1.7-2.1,0-3.5c0.8-3.2,1.6-6.3,2.3-9.6
				c0-0.2,0.2-0.5,0.3-0.5c0.5-0.4,0.9-0.7,0.7-1.4c-0.3-0.7-0.9-0.7-1.5-0.7c-3.8,0-7.6,0-11.4,0c-0.3,0-0.5,0-0.7,0.1
				c-0.7,0.3-1.1,1.3-0.5,1.6c0.9,0.6,0.9,1.5,1.1,2.3c0.7,2.7,1.4,5.5,2.1,8.2c-2,1.2-1.5,2.7,0,3.4c-0.7,2.2-1.4,4.3-2.2,6.4
				c-0.2,0.4-0.5,0.7-0.7,1.1c-0.5,0.5-0.6,1-0.2,1.5c0.3,0.3,0.8,0.5,1.3,0.5c3.8,0,7.7,0,11.5,0c0.3,0,0.6,0,0.8-0.1
				c0.5-0.4,0.8-1.3,0.2-1.7C168.9,128.8,168.7,128,168.5,127.4z"/>
		</g>
		<g>
			<path class="st0" d="M199.9,68.6l-12.5,0h-0.5h-12.5l1.5,59.4c0,0,2.3,0.7,11.2,0.7c0,0,0.4,0,0.5,0c0.1,0,0.5,0,0.5,0
				c8.4,0,10.9-0.7,10.9-0.7L199.9,68.6z"/>
			<path class="st0" d="M215,57.5c0,0-9.2-6.3-14.2-12.3c0.9-4.7,1.5-7.7,1.6-8.1c0.4-3.2-1.5-0.3-1.5-0.3l-1.7,8.1
				c-2.4,1.3-9.4,4.4-18.7,5.8c0,0,6.3,5.8,15.8,8L183.1,123l0.7,1.1c0,0,8.5-39.1,14.1-64.9C202.8,60.1,208.7,60.1,215,57.5z"/>
		</g>
		<path class="st0" d="M153.8,80.3c2.6-6.4-3.8-32-3.8-32h-9.6h-0.3l-9.5,0c0,0-6.4,25.7-3.7,32c2.6,6.4,10.9,11.9,11.6,19.1
			c0.7,7.2,1,20.3-0.7,23.2c-1.8,3.1-9.7,2.7-9.7,4.7c0,2.9,10.8,2.2,12.2,2.1c1.5,0.1,12.2,0.7,12.2-2.1c0-2.1-7.9-1.8-9.7-4.7
			c-1.8-3.1-1.3-16.1-0.7-23.2C142.8,92.2,151.2,86.7,153.8,80.3z"/>
		<path class="st4" d="M216.5,126.2c-6-1.1-7.3-5.3-7.3-5.3l0.2-17.7c0.1-9.5,3.2-13.1,3.2-13.1L229,68.6l-21-0.2l-21.1-0.2
			l15.9,21.7c0,0,3,3.7,2.9,13.2l-0.2,17.7c0,0-1.3,4.2-7.5,5.1c-6,0.9-2.1,2.3-2.1,2.3s3.9,0.9,11.3,1c7.4,0.1,11.4-0.8,11.4-0.8
			S222.4,127.2,216.5,126.2z"/>
		<g>
			<path class="st10" d="M216.5,160.4h-82.2c-2.8,0-5.1-2.3-5.1-5.1v-13.7c0-2.8,2.3-5.1,5.1-5.1h82.2c2.8,0,5.1,2.3,5.1,5.1v13.8
				C221.5,158.2,219.2,160.4,216.5,160.4z"/>
			<path class="st7" d="M141.9,145.8c0,0-0.1-0.1-0.3-0.2c-0.2-0.1-0.5-0.2-0.7-0.3c-0.2-0.1-0.6-0.2-1-0.3c-0.3-0.1-0.7-0.1-1-0.1
				c-0.5,0-0.7,0.1-1.1,0.2c-0.2,0.1-0.3,0.3-0.3,0.7c0,0.2,0.1,0.5,0.2,0.6c0.2,0.1,0.5,0.2,0.9,0.3c0.3,0.1,0.7,0.2,1.3,0.3
				c0.7,0.2,1.3,0.5,1.8,0.7c0.5,0.2,1,0.6,1.2,1.1c0.2,0.3,0.5,1,0.5,1.7c0,0.6-0.1,1.1-0.3,1.6c-0.2,0.5-0.5,0.9-1,1.1
				c-0.3,0.2-0.9,0.5-1.3,0.6c-0.5,0.1-1,0.2-1.6,0.2c-0.6,0-1.1,0-1.7-0.1c-0.6-0.1-1.1-0.2-1.7-0.5c-0.5-0.2-1-0.5-1.5-0.7
				l1.1-2.3c0,0.1,0.2,0.1,0.5,0.3c0.2,0.1,0.5,0.2,0.9,0.5c0.3,0.1,0.7,0.2,1.2,0.3c0.3,0.1,0.9,0.2,1.2,0.2c0.5,0,0.9-0.1,1.1-0.2
				c0.2-0.1,0.3-0.3,0.3-0.6s-0.1-0.5-0.3-0.6c-0.2-0.1-0.6-0.3-1-0.5c-0.3-0.1-0.9-0.2-1.5-0.3c-0.7-0.2-1.2-0.5-1.7-0.7
				s-0.7-0.6-1-1c-0.2-0.3-0.3-0.9-0.3-1.5c0-0.9,0.2-1.5,0.6-1.9c0.3-0.5,0.9-1,1.5-1.2c0.6-0.2,1.3-0.3,2-0.3
				c0.5,0,1.1,0.1,1.6,0.2s1,0.2,1.3,0.5c0.5,0.2,0.9,0.3,1.1,0.6L141.9,145.8z"/>
			<path class="st7" d="M144.6,150.8v-5.2h2.6v4.7c0,0.5,0.1,0.9,0.3,1.1c0.2,0.2,0.5,0.3,0.9,0.3c0.2,0,0.5,0,0.6-0.1
				c0.2-0.1,0.3-0.2,0.6-0.3c0.2-0.1,0.3-0.3,0.5-0.7v-5.1h2.6v5.4c0,0.2,0,0.3,0.1,0.5c0.1,0.1,0.2,0.1,0.5,0.1v2
				c-0.2,0-0.5,0.1-0.6,0.1s-0.3,0-0.5,0c-0.5,0-0.9-0.1-1.1-0.2c-0.2-0.1-0.3-0.5-0.5-0.7v-0.5c-0.3,0.5-0.9,1-1.5,1.2
				c-0.6,0.2-1.2,0.3-1.9,0.3c-0.9,0-1.5-0.2-1.9-0.9C144.8,152.5,144.6,151.8,144.6,150.8z"/>
			<path class="st7" d="M157.6,153.8c-0.7,0-1.3-0.1-2-0.3c-0.7-0.2-1.2-0.6-1.7-1.1l0.9-1.6c0.5,0.3,1,0.6,1.5,0.9
				c0.5,0.2,1,0.2,1.3,0.2c0.3,0,0.6,0,0.7-0.1c0.2-0.1,0.2-0.2,0.2-0.5c0-0.1,0-0.2-0.1-0.3c-0.1-0.1-0.2-0.1-0.5-0.2
				c-0.2-0.1-0.5-0.1-0.9-0.2c-0.6-0.2-1.2-0.3-1.6-0.6c-0.5-0.2-0.7-0.5-1-0.7c-0.2-0.2-0.3-0.6-0.3-1.1c0-0.6,0.1-1,0.3-1.5
				c0.2-0.3,0.7-0.7,1.2-1s1.1-0.3,1.8-0.3c0.6,0,1.1,0.1,1.7,0.2c0.5,0.2,1.1,0.5,1.6,1l-1,1.6c-0.5-0.3-0.9-0.6-1.2-0.7
				c-0.3-0.1-0.7-0.2-1.1-0.2c-0.2,0-0.3,0-0.5,0.1c-0.1,0-0.2,0.1-0.3,0.2s-0.1,0.2-0.1,0.3c0,0.1,0,0.2,0.1,0.3s0.2,0.2,0.5,0.2
				c0.2,0.1,0.5,0.1,0.7,0.2c0.7,0.2,1.2,0.3,1.7,0.6s0.9,0.5,1.1,0.7c0.2,0.3,0.3,0.7,0.3,1.2c0,0.9-0.3,1.5-1,1.9
				C159.5,153.6,158.6,153.8,157.6,153.8z"/>
			<path class="st7" d="M166.3,153.8c-0.7,0-1.3-0.1-1.9-0.3c-0.5-0.2-1-0.5-1.5-1c-0.3-0.3-0.7-0.9-0.9-1.3
				c-0.2-0.5-0.3-1.1-0.3-1.6c0-0.7,0.1-1.5,0.5-2c0.3-0.6,0.9-1.1,1.6-1.6c0.6-0.3,1.5-0.6,2.5-0.6s1.8,0.2,2.5,0.6
				c0.6,0.3,1.2,1,1.5,1.6l-2.5,0.7c-0.1-0.2-0.3-0.5-0.6-0.6c-0.2-0.1-0.5-0.2-0.9-0.2c-0.3,0-0.6,0.1-1,0.2
				c-0.2,0.2-0.5,0.3-0.6,0.7c-0.1,0.3-0.2,0.7-0.2,1.1c0,0.3,0.1,0.9,0.2,1.1c0.1,0.3,0.3,0.6,0.7,0.7c0.2,0.1,0.6,0.2,1,0.2
				c0.2,0,0.3,0,0.6-0.1c0.2-0.1,0.3-0.1,0.5-0.2c0.1-0.1,0.2-0.2,0.3-0.3l2.5,0.7c-0.2,0.5-0.5,0.9-0.9,1.1
				c-0.3,0.3-0.9,0.6-1.3,0.7C167.5,153.7,166.9,153.8,166.3,153.8z"/>
			<path class="st7" d="M176.6,147.5c-0.6,0-1.2,0.1-1.7,0.2c-0.5,0.2-0.9,0.5-1.1,0.9v4.9h-2.6v-8.1h2.3v1.6c0.2-0.6,0.7-1,1.1-1.3
				c0.5-0.3,1-0.5,1.5-0.5c0.1,0,0.2,0,0.2,0h0.1v2.3H176.6z"/>
			<path class="st7" d="M177.6,144.5v-2.3h2.6v2.3H177.6z M177.6,153.7v-8.3h2.6v8.2h-2.6V153.7z"/>
			<path class="st7" d="M186.8,153.8c-0.6,0-1.2-0.1-1.7-0.3s-0.9-0.6-1.1-1.1v1.3h-2.1v-11.5h2.6v4.7c0.2-0.5,0.6-0.9,1.1-1.1
				c0.4-0.2,1-0.3,1.7-0.3c0.5,0,1,0.1,1.5,0.3c0.5,0.2,0.9,0.5,1.1,1c0.3,0.3,0.6,0.9,0.7,1.3c0.1,0.5,0.2,1.1,0.2,1.7
				c0,0.6-0.1,1.1-0.2,1.7c-0.2,0.5-0.5,1-0.9,1.3c-0.3,0.3-0.7,0.7-1.2,0.9C187.9,153.7,187.3,153.8,186.8,153.8z M186.1,151.8
				c0.2,0,0.6,0,0.9-0.1c0.2-0.1,0.5-0.2,0.6-0.5c0.2-0.2,0.3-0.3,0.3-0.6c0.1-0.2,0.1-0.5,0.1-0.9s-0.1-0.7-0.2-1.1
				c-0.1-0.3-0.3-0.6-0.6-0.9c-0.2-0.2-0.6-0.3-1-0.3c-0.2,0-0.5,0.1-0.7,0.2c-0.2,0.1-0.5,0.2-0.6,0.5c-0.2,0.2-0.3,0.5-0.5,0.7
				v1.7c0.1,0.1,0.2,0.3,0.3,0.5c0.1,0.1,0.2,0.2,0.3,0.3c0.1,0.1,0.3,0.1,0.5,0.2C185.7,151.7,185.9,151.8,186.1,151.8z"/>
			<path class="st7" d="M191.9,144.5v-2.3h2.6v2.3H191.9z M191.9,153.7v-8.3h2.6v8.2h-2.6V153.7z"/>
			<path class="st7" d="M201.4,147.5c-0.6,0-1.2,0.1-1.7,0.2c-0.5,0.2-0.9,0.5-1.1,0.9v4.9h-2.6v-8.1h2.3v1.6c0.2-0.6,0.7-1,1.1-1.3
				c0.5-0.3,1-0.5,1.5-0.5c0.1,0,0.2,0,0.2,0h0.1v2.3H201.4z"/>
			<path class="st7" d="M205.7,153.8c-0.7,0-1.3-0.1-2-0.3c-0.7-0.2-1.2-0.6-1.7-1.1l0.9-1.6c0.5,0.3,1,0.6,1.5,0.9
				c0.5,0.2,1,0.2,1.3,0.2c0.3,0,0.6,0,0.7-0.1c0.2-0.1,0.2-0.2,0.2-0.5c0-0.1,0-0.2-0.1-0.3c-0.1-0.1-0.2-0.1-0.5-0.2
				c-0.2-0.1-0.5-0.1-0.9-0.2c-0.6-0.2-1.2-0.3-1.6-0.6c-0.5-0.2-0.7-0.5-1-0.7c-0.2-0.2-0.3-0.6-0.3-1.1c0-0.6,0.1-1,0.3-1.5
				c0.2-0.3,0.7-0.7,1.2-1c0.5-0.2,1.1-0.3,1.8-0.3c0.6,0,1.1,0.1,1.7,0.2c0.5,0.2,1.1,0.5,1.6,1l-1,1.6c-0.5-0.3-0.9-0.6-1.2-0.7
				c-0.3-0.1-0.7-0.2-1.1-0.2c-0.2,0-0.3,0-0.5,0.1c-0.1,0-0.2,0.1-0.3,0.2c-0.1,0.1-0.1,0.2-0.1,0.3c0,0.1,0,0.2,0.1,0.3
				s0.2,0.2,0.3,0.2c0.2,0.1,0.5,0.1,0.7,0.2c0.7,0.2,1.2,0.3,1.7,0.6c0.5,0.2,0.9,0.5,1.1,0.7c0.2,0.3,0.3,0.7,0.3,1.2
				c0,0.9-0.3,1.5-1,1.9C207.5,153.6,206.6,153.8,205.7,153.8z"/>
			<path class="st7" d="M214.2,153.8c-0.7,0-1.3-0.1-1.9-0.3c-0.5-0.2-1-0.5-1.5-1c-0.3-0.3-0.7-0.9-0.9-1.3
				c-0.2-0.5-0.3-1.1-0.3-1.6c0-0.9,0.1-1.5,0.5-2.1c0.3-0.6,0.9-1.2,1.6-1.6c0.6-0.3,1.5-0.6,2.5-0.6s1.7,0.2,2.5,0.6
				c0.6,0.3,1.2,1,1.5,1.6c0.3,0.6,0.5,1.3,0.5,2c0,0.1,0,0.2,0,0.3s0,0.2,0,0.3h-6.2c0,0.3,0.1,0.6,0.3,0.9
				c0.1,0.2,0.3,0.5,0.7,0.6c0.2,0.1,0.6,0.2,0.9,0.2c0.3,0,0.7-0.1,1.1-0.2c0.3-0.2,0.6-0.3,0.7-0.7l2.1,0.6
				c-0.2,0.5-0.5,0.9-0.9,1.1c-0.3,0.3-0.9,0.6-1.3,0.7C215.5,153.7,214.9,153.8,214.2,153.8z M212.4,148.9h3.6
				c0-0.3-0.1-0.6-0.3-0.9c-0.1-0.2-0.3-0.5-0.6-0.6c-0.2-0.1-0.5-0.2-0.9-0.2c-0.3,0-0.6,0.1-0.9,0.2c-0.2,0.1-0.5,0.3-0.6,0.6
				C212.5,148.2,212.4,148.5,212.4,148.9z"/>
		</g>
		<g>
			<path class="st4" d="M164.3,129.7c-1,0-1.9,0-2.9,0H164.3c1,0,1.9,0,2.9,0H164.3z"/>
			<path class="st4" d="M171.2,128.3c-0.7-0.5-0.9-1.3-1.2-1.9c-0.6-1.9-1.3-3.8-1.9-5.7c1.7-1.3,1.7-2.1,0-3.5
				c0.8-3.2,1.6-6.3,2.3-9.6c0-0.2,0.2-0.5,0.3-0.5c0.5-0.4,0.9-0.7,0.7-1.4c-0.3-0.7-0.9-0.7-1.5-0.7c-3.8,0-7.6,0-11.4,0
				c-0.3,0-0.5,0-0.7,0.1c-0.7,0.3-1.1,1.3-0.5,1.6c0.9,0.6,0.9,1.5,1.1,2.3c0.7,2.7,1.4,5.5,2.1,8.2c-2,1.2-1.5,2.7,0,3.4
				c-0.7,2.2-1.4,4.3-2.2,6.4c-0.2,0.4-0.5,0.7-0.7,1.1c-0.5,0.5-0.6,1-0.2,1.5c0.3,0.3,0.8,0.5,1.3,0.5c3.8,0,7.7,0,11.5,0
				c0.3,0,0.6,0,0.8-0.1C171.5,129.7,171.8,128.8,171.2,128.3z M164.3,129.7h-2.9C162.4,129.7,163.3,129.7,164.3,129.7h2.9
				C166.2,129.7,165.2,129.7,164.3,129.7z"/>
			<path class="st4" d="M167.2,129.7c-1,0-1.9,0-2.9,0h-2.9c1,0,1.9,0,2.9,0H167.2z"/>
		</g>
		<g>
			
				<rect x="197.1" y="157" transform="matrix(0.7483 -0.6634 0.6634 0.7483 -59.4151 174.0228)" class="st4" width="4.9" height="16.5"/>
			<polygon class="st4" points="206,160.1 196,161.2 193.7,171 188,152.2 			"/>
		</g>
		<g>
			<line class="st17" x1="183.3" y1="139.7" x2="184.2" y2="144.8"/>
			<line class="st17" x1="176.9" y1="144.9" x2="181.7" y2="146.8"/>
			<line class="st17" x1="178.3" y1="153.1" x2="182.2" y2="149.9"/>
			<line class="st17" x1="186" y1="156" x2="185.2" y2="151"/>
			<line class="st17" x1="192.4" y1="150.8" x2="187.6" y2="149"/>
			<line class="st17" x1="191.1" y1="142.6" x2="187.1" y2="145.9"/>
		</g>
	</g>
</g>
<g id="objects">
</g>
</svg>
