<?xml version="1.0" encoding="utf-8"?>
<!-- Generator: Adobe Illustrator 25.0.0, SVG Export Plug-In . SVG Version: 6.00 Build 0)  -->
<svg version="1.1" id="Capa_1" xmlns="http://www.w3.org/2000/svg" xmlns:xlink="http://www.w3.org/1999/xlink" x="0px" y="0px"
	 viewBox="0 0 347 213.1" style="enable-background:new 0 0 347 213.1;" xml:space="preserve">
<style type="text/css">
	.st0{fill:#FF3600;}
	.st1{fill:#E02A00;}
	.st2{fill:#F4E8D2;}
	.st3{fill:#FA003C;}
	.st4{fill:#04382B;}
	.st5{fill:#0E2D28;}
	.st6{fill:#FDECE9;}
	.st7{fill:#FFAD03;}
</style>
<g id="Capa_1_1_">
	<path class="st0" d="M169.3,205.4c80.6,0,146-34.8,146-77.7S249.9,50,169.3,50s-146,34.8-146,77.7S88.7,205.4,169.3,205.4z"/>
	<path class="st1" d="M236.4,51h-86.7c1.1,0.9,2.2,1.8,3,3c0.4,0.5-1,1.4-1.4,1.3c-2.2-0.3-4.4,0.5-6.6,0.8
		c-2.4,0.3-4.8,0.7-7.3,0.8c-4.2,0.2-8.4,0.1-12.6,0.3s-8.5,0.7-12.7,1.3s-8.5,1.3-12.7,2.1c-2,0.4-4,0.8-6,1.2
		c-1.9,0.4-3.7,1.2-5.6,1.7v18.9c0,5.8,4.7,10.6,10.5,10.6h1.5v76.3c0,5.9,4.7,10.6,10.5,10.6h114.1c5.8,0,10.5-4.8,10.5-10.6V93
		h1.5c5.8,0,10.5-4.8,10.5-10.6V61.6C246.9,55.7,242.2,51,236.4,51z"/>
	<path class="st2" d="M169.3,193c-37,0-71.6-7.6-97.4-21.3c-23-12.2-36.2-28.3-36.2-44s13.2-31.7,36.2-44
		c25.8-13.7,60.4-21.3,97.4-21.3s71.6,7.6,97.4,21.3c23,12.2,36.2,28.3,36.2,44s-13.2,31.7-36.2,44C240.9,185.4,206.3,193,169.3,193
		z M169.3,64.1c-36.7,0-71,7.5-96.6,21.1c-22.4,11.9-35.3,27.4-35.3,42.5s12.9,30.6,35.3,42.5c25.6,13.6,59.9,21.1,96.6,21.1
		s71-7.5,96.6-21.1c22.4-11.9,35.3-27.4,35.3-42.5s-12.9-30.6-35.3-42.5C240.3,71.6,206,64.1,169.3,64.1z"/>
	<g>
		<path class="st0" d="M152.4,65c1.4,4.8,2.6,6.5,6,8.5c-3.4,2-4.6,3.6-6,8.5c-1.4-4.8-2.6-6.5-6-8.5C149.8,71.5,151,69.8,152.4,65z
			 M167.5,81.2c2.1,1.2,2.8,2.2,3.7,5.2c0.9-3,1.6-4,3.7-5.2c-2.1-1.2-2.8-2.2-3.7-5.2C170.4,78.9,169.7,79.9,167.5,81.2z
			 M157.4,58.6c4.9,2.9,6.6,5.2,8.6,12.1c2-6.9,3.7-9.2,8.6-12.1c-4.9-2.9-6.6-5.2-8.6-12.1C164,53.4,162.3,55.7,157.4,58.6z"/>
		<path class="st3" d="M230.1,8c-6.2-5.3-14.3-9.2-22.6-7.7S192,8.1,186.1,13.8c-5.6,5.4-10.7,11.5-14.9,18.1
			c-0.5,0.8-1.1,1.7-1.6,2.6c-2.3-2.7-4.8-5-6.7-6.8c-7.7-7.2-17-15.2-26.4-19.9c-9.2-4.5-19.3-3.5-25.3,5.2
			c-5.4,7.8-4.8,17.5,0.5,25.2c6.7,9.6,18,13.5,28.8,16.2c4.9,1.3,14.4,4.5,21.9,4.3c2.1,3.8,7.5,5,10.8,0.8
			c0.1-0.1,0.2-0.3,0.3-0.5c0.2,0.1,0.3,0.3,0.4,0.4c8.1,4.9,18.5,1,27.1-1c8.3-1.9,16.1-4.6,23.2-9.4c6.7-4.6,12.9-11.1,14.7-19.3
			C241,21,236.5,13.6,230.1,8z M148,41.9c-9.9-1.1-28.1-4.4-30-16.7c-1.3-8.2,6.7-10.1,12.8-7.1c5.7,2.8,11.1,7.8,15.6,12.2
			c3.7,3.6,7.2,7.8,10.5,11.9C153.2,42,149.8,42.1,148,41.9z M219.8,29.1c-3.4,3.8-8.1,6.7-12.7,8.6c-7.1,2.9-17.5,3.1-25.6,6.3
			c2.6-4.5,5.6-8.8,9-12.7c6.2-7.3,17.6-20.7,27.4-13C222,21.6,223.4,25,219.8,29.1z"/>
		<path class="st4" d="M237.2,92H104.1C98.5,92,94,87.5,94,81.8V62.1c0-5.6,4.5-10.2,10.1-10.2h133.1c5.6,0,10.1,4.5,10.1,10.2v19.8
			C247.3,87.5,242.8,92,237.2,92z"/>
		<path class="st4" d="M225.6,76H115.7c-5.6,0-10.1,4.5-10.1,10.2v78.7c0,5.6,4.5,10.2,10.1,10.2h109.9c5.6,0,10.1-4.5,10.1-10.2
			V86.1C235.7,80.5,231.2,76,225.6,76z"/>
		<path class="st5" d="M236.2,92H105.6v22.6L236.2,92z"/>
		<path class="st3" d="M183.5,51.9h-25.7v123.3h25.7V51.9z"/>
	</g>
	<path class="st3" d="M68,50.2H41.5c-3,0-5.4,2.4-5.4,5.4v26.5c0,3,2.4,5.4,5.4,5.4h15.2c0,0.1,0,0.1,0.1,0.1l4.3,7.5
		c0.7,1.2,2.4,1.2,3.1,0l4.3-7.5c0-0.1,0.1-0.1,0.1-0.2c2.7-0.3,4.7-2.6,4.7-5.4V55.6C73.4,52.7,71,50.2,68,50.2z"/>
	<path class="st6" d="M48.5,64c-0.4-1.6-2-2.6-3.5-2.4c-1.6,0.2-2.8,1.6-2.8,3.2c-0.1,3.5-0.1,7.1-0.1,10.6c0,0.2,0,0.5,0.1,0.7
		c0.1,0.7,0.2,1.3,0.5,1.9c0.7,1.3,2.2,2,3.6,1.6c2-0.5,2.3-2.4,2.4-4.2C48.8,71.8,49.5,67.7,48.5,64z"/>
	<path class="st6" d="M65.1,74.1c0.1-0.1,0.3-0.2,0.4-0.3c0.1,0,1.1-0.9,0.9-0.9c0,0,0,0,0-0.1c-0.1,0.1-0.1,0.1-0.1,0.2
		c0-0.1,0.3-0.4,0.4-0.5c0.3-0.7,0.5-1.4,0.2-2.2c-0.3-1-1-1.6-1.9-2.1c0.4-0.3,0.8-0.8,1-1.3c0.1-0.2,0.1-0.4,0.1-0.6
		c0-0.1,0-0.1,0-0.3c0-0.4-0.1-0.8-0.3-1.1c-0.6-1.2-2-1.4-3.2-1.6c-0.9-0.1-1.9-0.1-2.8-0.1c0.1-0.1,0.1-0.2,0.2-0.4
		c0.6-1.3,1-2.6,1.2-4c0.1-0.8,0.2-1.7,0-2.5c-0.2-0.6-0.4-1.1-0.8-1.6c-0.7-0.7-1.9-1-2.8-0.4c-1,0.6-1.3,1.7-1.4,2.7
		c-0.1,0.7-0.3,1.4-0.5,2.1c-0.1,0.2-0.2,0.3-0.2,0.5c-0.2,0.3-0.4,0.7-0.6,1c-0.1,0.1-0.2,0.2-0.3,0.4c0,0,0,0,0,0.1
		c-0.2,0.3-0.5,0.6-0.7,0.8c-0.1,0.1-0.3,0.2-0.4,0.4c-0.2,0.1-0.4,0.3-0.6,0.4h-0.1c-0.5,0.1-0.9,0.3-1.3,0.7
		c-1.4,1.5-1,4.1-0.9,5.9c0,2.4-0.4,4.9-0.1,7.3c0.4,4.1,5.3,3.8,8.4,3.8c2.2,0,4.7-0.4,6.6-1.6c1.5-0.9,1.8-2.8,0.6-4.1
		C65.7,74.6,65.4,74.3,65.1,74.1z"/>
	<path class="st7" d="M313,71.2h-27.5c-3.1,0-5.6,2.5-5.6,5.7v27.6c0,3.1,2.5,5.7,5.6,5.7h0.9c0,0.1,0,0.1,0.1,0.2l4.5,7.8
		c0.7,1.3,2.5,1.3,3.3,0l4.5-7.8c0,0,0-0.1,0.1-0.2h14.3c3.1,0,5.6-2.5,5.6-5.7V76.9C318.6,73.7,316.1,71.2,313,71.2z"/>
	<path class="st6" d="M313.1,84.3c-1.7-4-6.3-4.2-9.6-2.5c-1.7,0.9-3.2,2.1-4.3,3.6c-0.9-1.4-2-2.8-3.2-4c-1.9-2-5.1-3.2-7.4-1
		c-1.8,1.7-3,4.6-3.1,7.1c-0.1,2.6,1.5,5.2,2.9,7.3c2,2.9,4.8,6.4,8.1,7.9c1.9,0.9,3,0.8,4.6-0.5c3-2.4,5.6-5.3,8.4-7.9
		C312.3,91.9,314.8,88.3,313.1,84.3z"/>
</g>
<g id="OBJECTS">
</g>
</svg>
