<svg width="275" height="199" viewBox="0 0 275 199" fill="none" xmlns="http://www.w3.org/2000/svg">
<path d="M10.4744 42H263.913C269.694 42 274.387 46.6743 274.387 52.4337V188.542C274.387 194.301 269.694 198.976 263.913 198.976H10.4744C4.69252 198.976 0 194.301 0 188.542V52.4337C0 46.6743 4.69252 42 10.4744 42Z" fill="#FF3600"/>
<path d="M252.883 186.142C252.101 186.142 251.365 186.08 250.684 185.954C250.081 185.86 249.411 185.693 248.641 185.433C247.882 185.151 247.268 184.869 246.71 184.556C246.085 184.201 245.516 183.805 245.025 183.377C244.634 183.043 244.277 182.689 243.942 182.292C241.866 184.702 238.584 186.153 235.057 186.153C231.497 186.153 228.204 184.713 226.128 182.323C224.052 184.713 220.77 186.153 217.221 186.153C213.671 186.153 210.378 184.713 208.313 182.313C206.226 184.713 202.933 186.153 199.395 186.153C195.845 186.153 192.553 184.713 190.488 182.313C188.4 184.713 185.108 186.153 181.569 186.153C178.02 186.153 174.738 184.713 172.662 182.323C170.586 184.713 167.293 186.153 163.733 186.153C160.183 186.153 156.902 184.713 154.826 182.323C152.749 184.713 149.457 186.153 145.896 186.153C142.347 186.153 139.065 184.713 136.989 182.323C134.913 184.713 131.631 186.153 128.082 186.153C124.521 186.153 121.228 184.713 119.152 182.323C117.076 184.713 113.794 186.153 110.245 186.153C106.695 186.153 103.414 184.713 101.327 182.313C99.2505 184.713 95.9689 186.153 92.4194 186.153C88.8699 186.153 85.5883 184.713 83.5122 182.323C81.4361 184.713 78.1433 186.153 74.5827 186.153C71.0332 186.153 67.7516 184.713 65.6755 182.323C63.5994 184.713 60.3178 186.153 56.7683 186.153C53.2077 186.153 49.9149 184.713 47.8388 182.323C45.7627 184.713 42.4811 186.153 38.9316 186.153C35.3933 186.153 32.1229 184.702 30.0356 182.282C29.6673 182.699 29.2989 183.064 28.9306 183.377C28.3836 183.847 27.8255 184.233 27.234 184.567C26.6982 184.88 26.0731 185.161 25.3476 185.433C24.6109 185.683 23.9189 185.86 23.2603 185.975C21.8874 186.226 20.2355 186.226 18.896 185.975C18.2821 185.881 17.6012 185.704 16.8646 185.443C16.0832 185.151 15.447 184.869 14.9224 184.567C14.3085 184.222 13.7392 183.815 13.2369 183.388C12.7347 182.96 12.2659 182.469 11.864 181.937C11.4845 181.447 11.1497 180.915 10.8483 180.289C10.5469 179.642 10.346 179.058 10.2232 178.505C10.0781 177.941 10 177.315 10 176.647C10 176.001 10.0781 175.375 10.2232 174.78C10.346 174.237 10.5469 173.632 10.8371 173.016C11.1608 172.38 11.4957 171.848 11.864 171.368C12.2324 170.878 12.69 170.398 13.2369 169.928C13.7392 169.5 14.3085 169.093 14.9336 168.749C14.9894 168.718 15.0452 168.676 15.1121 168.645C11.9533 166.913 10 163.929 10 160.642C10 157.355 11.9533 154.371 15.101 152.639C11.9533 150.907 10 147.923 10 144.637C10 141.34 11.9422 138.366 15.0898 136.644C11.9422 134.912 10 131.928 10 128.642C10 125.355 11.9533 122.371 15.101 120.639C11.9533 118.907 10 115.923 10 112.636C10 109.339 11.9422 106.366 15.0898 104.644C11.9422 102.912 10 99.9281 10 96.6415C10 93.3549 11.9533 90.3708 15.101 88.6388C11.9533 86.9068 10 83.9332 10 80.6466C10 77.3495 11.9533 74.3655 15.1121 72.6439C15.0563 72.6126 14.9894 72.5813 14.9336 72.55C14.3197 72.1953 13.7504 71.7988 13.2481 71.371C11.1832 69.5973 10 67.1453 10 64.6412C10 63.9943 10.0781 63.3683 10.2232 62.7632C10.346 62.2206 10.5581 61.6259 10.8371 61.0103C11.1608 60.3738 11.4957 59.8417 11.864 59.3618C12.2324 58.8609 12.69 58.3914 13.2369 57.9115C13.7169 57.5046 14.275 57.1081 14.9112 56.722C15.4917 56.3882 16.1056 56.1064 16.8199 55.8456C17.6347 55.5743 18.2933 55.4074 18.9295 55.303C22.5125 54.677 26.3522 55.6787 28.9417 57.9115C29.3212 58.2349 29.6784 58.6001 30.0133 59.007C32.0894 56.576 35.371 55.1152 38.9316 55.1152C42.4811 55.1152 45.7627 56.5551 47.8388 58.9444C49.9149 56.5551 53.2077 55.1152 56.7683 55.1152C60.3178 55.1152 63.5994 56.5551 65.6755 58.9444C67.7516 56.5551 71.0332 55.1152 74.5827 55.1152C78.1433 55.1152 81.4361 56.5551 83.5122 58.9444C85.5883 56.5551 88.8699 55.1152 92.4194 55.1152C95.9689 55.1152 99.2616 56.5551 101.327 58.9549C103.414 56.5551 106.707 55.1152 110.245 55.1152C113.794 55.1152 117.076 56.5551 119.152 58.9549C121.239 56.5551 124.532 55.1152 128.07 55.1152C131.62 55.1152 134.902 56.5551 136.978 58.9444C139.054 56.5551 142.335 55.1152 145.885 55.1152C149.445 55.1152 152.738 56.5551 154.814 58.9444C156.89 56.5551 160.172 55.1152 163.722 55.1152C167.282 55.1152 170.575 56.5551 172.651 58.9444C174.727 56.5551 178.009 55.1152 181.558 55.1152C185.119 55.1152 188.412 56.5551 190.488 58.9444C192.564 56.5551 195.845 55.1152 199.395 55.1152C202.944 55.1152 206.237 56.5551 208.302 58.9549C210.389 56.5551 213.682 55.1152 217.221 55.1152C220.77 55.1152 224.052 56.5551 226.128 58.9444C228.204 56.5551 231.497 55.1152 235.057 55.1152C238.596 55.1152 241.866 56.5655 243.942 58.9862C244.255 58.621 244.612 58.2662 245.025 57.9115C245.494 57.515 246.052 57.1081 246.688 56.7325C247.268 56.3986 247.893 56.1169 248.608 55.856C249.344 55.6056 250.048 55.4282 250.717 55.3135C252.124 55.0735 253.631 55.0735 255.048 55.3135C255.707 55.4178 256.41 55.6056 257.124 55.8456C257.861 56.1169 258.486 56.3986 259.044 56.722C259.703 57.1081 260.261 57.515 260.73 57.9219C261.276 58.3914 261.734 58.8714 262.114 59.3826C262.538 59.9252 262.873 60.4782 263.129 61.0207C263.375 61.5007 263.576 62.0641 263.766 62.7632C263.922 63.4935 263.989 64.0987 263.989 64.6517C263.989 67.1558 262.794 69.6077 260.73 71.3814C260.227 71.8092 259.658 72.2057 259.044 72.5604C258.988 72.5917 258.932 72.623 258.877 72.6544C262.036 74.3759 264 77.36 264 80.657C264 83.9332 262.047 86.9173 258.888 88.6493C262.047 90.3813 264 93.3758 264 96.6519C264 99.9386 262.047 102.923 258.888 104.655C262.047 106.376 264 109.36 264 112.647C264 115.933 262.047 118.918 258.888 120.65C262.047 122.382 264 125.376 264 128.652C264 131.939 262.047 134.923 258.888 136.655C262.047 138.376 264 141.361 264 144.647C264 147.934 262.047 150.918 258.888 152.65C262.047 154.382 264 157.376 264 160.652C264 163.939 262.047 166.934 258.877 168.655C259.546 169.02 260.171 169.448 260.73 169.939C261.276 170.408 261.734 170.888 262.114 171.399C262.538 171.931 262.873 172.495 263.129 173.037C263.375 173.528 263.587 174.091 263.766 174.801C263.9 175.437 263.967 176.053 263.967 176.668C263.967 177.294 263.9 177.92 263.766 178.525C263.587 179.225 263.375 179.798 263.118 180.32C262.884 180.852 262.538 181.395 262.102 181.958C261.689 182.49 261.221 182.97 260.718 183.408C260.16 183.878 259.602 184.274 259.011 184.598C258.475 184.911 257.85 185.193 257.135 185.464C256.388 185.714 255.684 185.902 255.015 186.006C254.378 186.08 253.653 186.142 252.883 186.142ZM243.942 179.778C244.322 179.778 244.668 179.955 244.835 180.247C244.98 180.497 245.148 180.727 245.326 180.957C245.661 181.395 246.041 181.791 246.454 182.136C246.855 182.48 247.335 182.814 247.838 183.106C248.295 183.367 248.809 183.607 249.411 183.826C250.036 184.035 250.583 184.17 251.097 184.254C252.224 184.462 253.552 184.462 254.635 184.254C255.204 184.16 255.774 184.014 256.376 183.815C256.957 183.596 257.47 183.367 257.928 183.106C258.419 182.835 258.866 182.522 259.312 182.136C259.725 181.791 260.104 181.384 260.439 180.957C260.797 180.497 261.064 180.059 261.265 179.621C261.5 179.162 261.667 178.703 261.812 178.139C261.913 177.67 261.969 177.148 261.969 176.627C261.969 176.126 261.913 175.614 261.801 175.103C261.656 174.54 261.489 174.07 261.276 173.663C261.064 173.204 260.785 172.756 260.439 172.307C260.127 171.89 259.758 171.504 259.312 171.128C258.475 170.408 257.437 169.824 256.309 169.427C255.93 169.292 255.684 168.979 255.684 168.624C255.684 168.269 255.93 167.956 256.309 167.82C259.758 166.621 261.98 163.793 261.98 160.621C261.98 157.46 259.758 154.622 256.321 153.411C255.941 153.276 255.696 152.963 255.696 152.608C255.696 152.264 255.941 151.94 256.321 151.805C259.758 150.594 261.98 147.767 261.98 144.595C261.98 141.423 259.758 138.606 256.332 137.406C255.952 137.27 255.707 136.957 255.707 136.603C255.707 136.248 255.952 135.935 256.332 135.799C259.77 134.589 261.991 131.761 261.991 128.59C261.991 125.428 259.77 122.59 256.332 121.38C255.952 121.244 255.707 120.931 255.707 120.577C255.707 120.222 255.952 119.909 256.332 119.773C259.77 118.563 261.991 115.735 261.991 112.563C261.991 109.392 259.77 106.574 256.343 105.375C255.963 105.239 255.718 104.926 255.718 104.571C255.718 104.216 255.963 103.903 256.343 103.768C259.781 102.557 262.002 99.7299 262.002 96.558C262.002 93.3966 259.781 90.5586 256.343 89.3483C255.963 89.2127 255.718 88.8997 255.718 88.5449C255.718 88.1902 255.963 87.8772 256.343 87.7415C259.781 86.5312 262.002 83.7037 262.002 80.5527C262.002 77.3704 259.77 74.5429 256.332 73.3534C255.952 73.2178 255.696 72.8943 255.707 72.5396C255.707 72.1848 255.975 71.8614 256.354 71.7362C256.979 71.5066 257.504 71.2667 257.95 71.0058C258.453 70.7137 258.921 70.3902 259.334 70.0355C261.031 68.5852 262.002 66.5715 262.002 64.5265C262.002 64.0778 261.946 63.577 261.812 62.9823C261.667 62.4293 261.5 61.9702 261.299 61.5633C261.087 61.1042 260.808 60.666 260.451 60.2069C260.138 59.7896 259.77 59.4139 259.323 59.0279C258.932 58.694 258.464 58.3601 257.917 58.0367C257.47 57.7863 256.957 57.5463 256.354 57.3272C255.796 57.1394 255.216 56.9829 254.669 56.8994C253.497 56.7012 252.28 56.6907 251.119 56.8994C250.561 56.9933 249.981 57.1394 249.4 57.3376C248.82 57.5567 248.306 57.7863 247.849 58.0471C247.324 58.3601 246.855 58.694 246.476 59.0279C246.029 59.4139 245.661 59.7895 245.36 60.1965C245.181 60.4364 245.014 60.666 244.857 60.9164C244.679 61.1981 244.344 61.3755 243.964 61.3755C243.596 61.3755 243.25 61.1981 243.071 60.9164C241.486 58.3393 238.417 56.7429 235.068 56.7429C231.686 56.7429 228.617 58.3184 227.032 60.8642C226.686 61.4276 225.603 61.4276 225.246 60.8642C223.672 58.3184 220.591 56.7429 217.232 56.7429C213.872 56.7429 210.791 58.3288 209.195 60.8642C209.017 61.1459 208.682 61.3233 208.302 61.3233C207.934 61.3233 207.588 61.1459 207.409 60.8642C205.835 58.3184 202.755 56.7429 199.395 56.7429C196.024 56.7429 192.955 58.3184 191.381 60.8642C191.035 61.4276 189.952 61.4276 189.595 60.8642C188.021 58.3184 184.94 56.7429 181.558 56.7429C178.199 56.7429 175.118 58.3288 173.544 60.8642C173.365 61.1459 173.031 61.3233 172.651 61.3233C172.283 61.3233 171.937 61.1459 171.758 60.8642C170.184 58.3184 167.104 56.7429 163.722 56.7429C160.362 56.7429 157.281 58.3288 155.707 60.8642C155.529 61.1459 155.194 61.3233 154.814 61.3233C154.446 61.3233 154.1 61.1459 153.921 60.8642C152.348 58.3184 149.267 56.7429 145.885 56.7429C142.525 56.7429 139.444 58.3184 137.871 60.8642C137.525 61.4276 136.442 61.4276 136.085 60.8642C134.5 58.3184 131.43 56.7429 128.07 56.7429C124.711 56.7429 121.63 58.3288 120.034 60.8642C119.855 61.1459 119.465 61.3129 119.141 61.3233C118.773 61.3233 118.427 61.1459 118.248 60.8642C116.663 58.3184 113.594 56.7429 110.234 56.7429C106.874 56.7429 103.793 58.3288 102.197 60.8642C102.019 61.1459 101.684 61.3233 101.304 61.3233C100.936 61.3233 100.59 61.1459 100.411 60.8642C98.8375 58.3184 95.7568 56.7429 92.3971 56.7429C89.0262 56.7429 85.9567 58.3184 84.3828 60.8642C84.0368 61.4276 82.9541 61.4276 82.5969 60.8642C81.0231 58.3184 77.9424 56.7429 74.5604 56.7429C71.1895 56.7429 68.12 58.3184 66.5461 60.8642C66.2001 61.4276 65.1174 61.4276 64.7602 60.8642C63.1864 58.3184 60.1057 56.7429 56.746 56.7429C53.3639 56.7429 50.2944 58.3184 48.7094 60.8642C48.3634 61.4276 47.2807 61.4276 46.9235 60.8642C45.3497 58.3184 42.269 56.7429 38.9093 56.7429C35.5272 56.7429 32.4577 58.3601 30.8727 60.9581C30.6941 61.2398 30.3593 61.4276 29.9798 61.4276C29.6003 61.4276 29.2543 61.2503 29.0868 60.9581C28.6069 60.1652 28.0823 59.5287 27.4907 59.0279C25.3699 57.202 22.2334 56.3777 19.2979 56.8994C18.7621 56.9829 18.2152 57.1289 17.5566 57.3481C16.9873 57.5567 16.4739 57.7967 16.0163 58.0575C15.5028 58.3706 15.0229 58.7044 14.6322 59.0383C14.1857 59.4244 13.8174 59.8 13.516 60.2069C13.2035 60.6138 12.9244 61.052 12.6677 61.5737C12.4445 62.0537 12.2659 62.5545 12.1654 63.0031C12.0426 63.504 11.9757 64.0152 11.9757 64.5369C11.9757 66.5923 12.9467 68.6061 14.6322 70.0459C15.0452 70.4007 15.5028 70.7241 16.0163 71.0058C16.4627 71.2667 16.9873 71.4962 17.5901 71.7257C17.9584 71.8614 18.2375 72.1953 18.2263 72.5396C18.2263 72.8839 18.0142 73.2073 17.6347 73.343C14.1969 74.5429 11.9757 77.3704 11.9757 80.5423C11.9757 83.7037 14.1857 86.5208 17.6124 87.7311C17.9919 87.8667 18.2375 88.1797 18.2375 88.5345C18.2375 88.8788 17.9919 89.2023 17.6124 89.3379C14.1857 90.5482 11.9757 93.3758 11.9757 96.5476C11.9757 99.7195 14.1857 102.547 17.6124 103.757C17.9919 103.893 18.2375 104.206 18.2375 104.561C18.2375 104.915 17.9919 105.228 17.6124 105.364C14.1857 106.554 11.9757 109.381 11.9757 112.553C11.9757 115.725 14.1857 118.552 17.6124 119.763C17.9919 119.898 18.2375 120.211 18.2375 120.566C18.2375 120.91 17.9919 121.234 17.6124 121.369C14.1857 122.58 11.9757 125.407 11.9757 128.579C11.9757 131.751 14.1857 134.579 17.6124 135.789C17.9919 135.925 18.2375 136.238 18.2375 136.592C18.2375 136.947 17.9919 137.26 17.6124 137.396C14.1857 138.585 11.9757 141.413 11.9757 144.585C11.9757 147.756 14.1857 150.584 17.6124 151.794C17.9919 151.93 18.2375 152.243 18.2375 152.598C18.2375 152.952 17.9919 153.265 17.6124 153.401C14.1857 154.611 11.9757 157.439 11.9757 160.611C11.9757 163.783 14.1969 166.6 17.6347 167.81C18.0254 167.946 18.2821 168.28 18.2598 168.645C18.2375 169.01 17.9584 169.323 17.5454 169.427C16.9762 169.636 16.4739 169.865 16.0386 170.126C15.514 170.429 15.0452 170.752 14.6322 171.107C14.1857 171.493 13.8174 171.869 13.516 172.276C13.2035 172.683 12.9244 173.121 12.6677 173.643C12.4333 174.133 12.2659 174.623 12.1654 175.082C12.0426 175.573 11.9757 176.074 11.9757 176.606C11.9757 177.138 12.0315 177.649 12.1542 178.119C12.2547 178.588 12.4221 179.058 12.6677 179.59C12.9133 180.091 13.1923 180.539 13.4937 180.936C13.8285 181.374 14.208 181.77 14.621 182.115C15.034 182.469 15.4916 182.793 16.0051 183.075C16.4404 183.325 16.9539 183.555 17.6012 183.795C18.1928 183.993 18.7398 184.139 19.2644 184.222C20.3917 184.431 21.6977 184.431 22.825 184.222C23.3719 184.128 23.9524 183.982 24.5328 183.784C25.1132 183.565 25.6266 183.335 26.0843 183.075C26.5754 182.803 27.0219 182.49 27.4684 182.115C27.859 181.781 28.2497 181.374 28.6292 180.915C28.7743 180.717 28.9417 180.466 29.098 180.216C29.2654 179.934 29.6114 179.746 29.9909 179.746C30.3705 179.746 30.7053 179.924 30.8839 180.205C32.4689 182.782 35.5384 184.389 38.887 184.389C42.2579 184.389 45.3274 182.814 46.9012 180.268C47.2472 179.704 48.3299 179.704 48.6871 180.268C50.2609 182.814 53.3416 184.389 56.7237 184.389C60.0946 184.389 63.1641 182.814 64.7379 180.268C65.0839 179.704 66.1666 179.704 66.5238 180.268C68.0976 182.814 71.1783 184.389 74.538 184.389C77.9201 184.389 80.9896 182.814 82.5746 180.268C82.9206 179.704 84.0033 179.704 84.3605 180.268C85.9343 182.814 89.015 184.389 92.3748 184.389C95.7457 184.389 98.8152 182.814 100.389 180.268C100.568 179.986 100.902 179.809 101.282 179.809C101.65 179.809 101.996 179.986 102.175 180.268C103.771 182.814 106.852 184.389 110.211 184.389C113.571 184.389 116.652 182.803 118.226 180.268C118.404 179.986 118.739 179.809 119.119 179.809C119.487 179.809 119.833 179.986 120.012 180.268C121.585 182.814 124.666 184.389 128.048 184.389C131.408 184.389 134.489 182.803 136.062 180.268C136.241 179.986 136.576 179.809 136.955 179.809C137.324 179.809 137.67 179.986 137.848 180.268C139.422 182.814 142.503 184.389 145.863 184.389C149.245 184.389 152.314 182.814 153.899 180.268C154.245 179.704 155.328 179.704 155.685 180.268C157.27 182.814 160.34 184.389 163.699 184.389C167.081 184.389 170.151 182.814 171.736 180.268C172.082 179.704 173.165 179.704 173.522 180.268C175.107 182.814 178.176 184.389 181.536 184.389C184.896 184.389 187.976 182.803 189.572 180.268C189.751 179.986 190.086 179.809 190.465 179.809C190.834 179.809 191.18 179.986 191.358 180.268C192.932 182.814 196.013 184.389 199.373 184.389C202.732 184.389 205.813 182.803 207.409 180.268C207.588 179.986 207.923 179.809 208.302 179.809C208.67 179.809 209.017 179.986 209.195 180.268C210.769 182.814 213.85 184.389 217.209 184.389C220.58 184.389 223.65 182.814 225.224 180.268C225.57 179.704 226.652 179.704 227.009 180.268C228.583 182.814 231.664 184.389 235.046 184.389C238.383 184.389 241.453 182.793 243.038 180.226C243.217 179.955 243.563 179.778 243.942 179.778Z" fill="#FDECE9"/>
<g clip-path="url(#clip0_227_1492)">
<path d="M192.11 27.5983L198.688 28.8309L193.159 25.0675L196.35 21.8932L200.119 27.4128L198.874 20.8459H203.375L202.141 27.4128L205.91 21.8932L209.09 25.0675L203.561 28.8309L210.139 27.5983V32.0925L203.561 30.849L209.09 34.6124L205.91 37.7976L202.141 32.278L203.375 38.8448H198.874L200.119 32.278L196.35 37.7976L193.159 34.6124L198.688 30.849L192.11 32.0925V27.5983Z" fill="#F4E8D2"/>
<path d="M240.591 171.382H26.5648C24.6855 171.382 23.1558 169.855 23.1558 167.979V16.8098H244V167.979C244 169.855 242.47 171.382 240.591 171.382Z" fill="#F1DAAE"/>
<path d="M138.823 36.4995H36.5735V138.58H138.823V36.4995Z" fill="#FDECE9"/>
<path d="M244 16.8099H23.1558V3.40343C23.1558 1.52718 24.6855 0 26.5648 0H240.591C242.47 0 244 1.52718 244 3.40343V16.8099Z" fill="#04382B"/>
<path d="M51.1821 8.32315C51.1821 10.2758 49.5978 11.8575 47.642 11.8575C45.6861 11.8575 44.1018 10.2758 44.1018 8.32315C44.1018 6.37054 45.6861 4.78882 47.642 4.78882C49.5978 4.78882 51.1821 6.37054 51.1821 8.32315Z" fill="#FF3600"/>
<path d="M62.5454 8.32315C62.5454 10.2758 60.9611 11.8575 59.0052 11.8575C57.0494 11.8575 55.4651 10.2758 55.4651 8.32315C55.4651 6.37054 57.0494 4.78882 59.0052 4.78882C60.9611 4.78882 62.5454 6.37054 62.5454 8.32315Z" fill="#FDECE9"/>
<path d="M225.742 36.4995H149.094V47.2007H225.742V36.4995Z" fill="#04382B"/>
<path d="M225.742 61.2944H149.094V66.6396H225.742V61.2944Z" fill="#606060"/>
<path d="M225.742 72.421H149.094V77.7661H225.742V72.421Z" fill="#606060"/>
<path d="M225.742 83.5366H149.094V88.8817H225.742V83.5366Z" fill="#606060"/>
<path d="M225.742 94.6632H149.094V100.008H225.742V94.6632Z" fill="#606060"/>
<path d="M221.47 138.013H153.366C151.027 138.013 149.137 136.126 149.137 133.792V122.382C149.137 120.047 151.027 118.16 153.366 118.16H221.47C223.808 118.16 225.698 120.047 225.698 122.382V133.792C225.698 136.126 223.808 138.013 221.47 138.013Z" fill="#04382B"/>
<path d="M159.801 125.829C159.779 125.807 159.681 125.741 159.517 125.643C159.353 125.545 159.157 125.447 158.927 125.338C158.698 125.24 158.446 125.141 158.162 125.076C157.889 125 157.605 124.967 157.332 124.967C156.971 124.967 156.687 125.032 156.48 125.163C156.283 125.294 156.174 125.48 156.174 125.731C156.174 125.927 156.25 126.091 156.403 126.211C156.556 126.33 156.775 126.44 157.059 126.538C157.343 126.625 157.692 126.734 158.119 126.843C158.709 127.007 159.222 127.203 159.659 127.421C160.096 127.64 160.424 127.923 160.653 128.272C160.883 128.621 161.003 129.069 161.003 129.636C161.003 130.148 160.905 130.585 160.719 130.945C160.533 131.316 160.271 131.599 159.932 131.817C159.594 132.036 159.222 132.199 158.807 132.297C158.392 132.396 157.966 132.45 157.518 132.45C157.07 132.45 156.6 132.406 156.13 132.308C155.66 132.21 155.201 132.079 154.764 131.905C154.327 131.73 153.934 131.534 153.562 131.305L154.491 129.428C154.535 129.483 154.655 129.559 154.841 129.679C155.026 129.799 155.267 129.908 155.551 130.039C155.835 130.159 156.152 130.279 156.501 130.378C156.851 130.476 157.201 130.53 157.539 130.53C157.933 130.53 158.217 130.465 158.403 130.345C158.588 130.225 158.687 130.05 158.687 129.843C158.687 129.614 158.588 129.439 158.392 129.309C158.195 129.178 157.933 129.058 157.594 128.949C157.255 128.839 156.873 128.73 156.436 128.61C155.868 128.425 155.398 128.239 155.037 128.021C154.666 127.814 154.393 127.552 154.218 127.236C154.043 126.93 153.956 126.538 153.956 126.08C153.956 125.425 154.109 124.88 154.415 124.432C154.72 123.985 155.136 123.647 155.66 123.429C156.185 123.2 156.753 123.091 157.365 123.091C157.813 123.091 158.228 123.145 158.632 123.243C159.036 123.342 159.408 123.472 159.768 123.636C160.129 123.789 160.435 123.952 160.697 124.116L159.801 125.829Z" fill="#FDECE9"/>
<path d="M161.965 129.941V125.6H164.052V129.472C164.052 129.876 164.139 130.181 164.303 130.399C164.467 130.617 164.707 130.727 165.013 130.727C165.199 130.727 165.385 130.694 165.56 130.628C165.734 130.563 165.898 130.465 166.073 130.323C166.237 130.181 166.39 129.985 166.521 129.756V125.6H168.608V130.05C168.608 130.258 168.641 130.399 168.706 130.487C168.772 130.574 168.881 130.617 169.056 130.628V132.363C168.87 132.406 168.695 132.439 168.553 132.45C168.411 132.461 168.28 132.461 168.171 132.461C167.8 132.472 167.515 132.396 167.297 132.254C167.078 132.112 166.947 131.894 166.893 131.61L166.849 131.196C166.532 131.643 166.15 131.97 165.691 132.177C165.232 132.385 164.707 132.494 164.128 132.494C163.429 132.494 162.905 132.276 162.533 131.839C162.151 131.414 161.965 130.781 161.965 129.941Z" fill="#FDECE9"/>
<path d="M172.836 132.494C172.257 132.494 171.689 132.396 171.132 132.199C170.574 132.003 170.105 131.719 169.722 131.348L170.454 130.05C170.859 130.356 171.263 130.585 171.656 130.737C172.049 130.89 172.421 130.967 172.771 130.967C173.033 130.967 173.24 130.934 173.393 130.847C173.546 130.77 173.623 130.639 173.623 130.476C173.623 130.345 173.579 130.247 173.481 130.181C173.393 130.116 173.251 130.05 173.087 129.985C172.913 129.919 172.694 129.854 172.432 129.788C171.907 129.614 171.47 129.439 171.132 129.276C170.782 129.112 170.52 128.916 170.345 128.687C170.17 128.447 170.083 128.141 170.083 127.77C170.083 127.312 170.203 126.92 170.432 126.581C170.673 126.243 171.001 125.981 171.416 125.796C171.842 125.611 172.344 125.512 172.935 125.512C173.404 125.512 173.863 125.589 174.322 125.731C174.77 125.883 175.196 126.134 175.59 126.483L174.77 127.77C174.388 127.498 174.038 127.301 173.732 127.181C173.426 127.061 173.12 126.996 172.836 126.996C172.683 126.996 172.552 127.018 172.432 127.05C172.312 127.083 172.213 127.138 172.137 127.214C172.06 127.29 172.028 127.399 172.028 127.53C172.028 127.65 172.06 127.749 172.137 127.836C172.213 127.912 172.323 127.989 172.487 128.043C172.65 128.098 172.847 128.163 173.077 128.229C173.656 128.403 174.125 128.567 174.508 128.73C174.89 128.894 175.163 129.101 175.36 129.341C175.546 129.592 175.644 129.908 175.644 130.312C175.644 130.988 175.393 131.523 174.89 131.916C174.377 132.297 173.699 132.494 172.836 132.494Z" fill="#FDECE9"/>
<path d="M179.971 132.494C179.392 132.494 178.868 132.396 178.42 132.21C177.972 132.025 177.578 131.763 177.262 131.436C176.945 131.108 176.704 130.738 176.54 130.323C176.376 129.898 176.289 129.461 176.289 128.981C176.289 128.359 176.431 127.781 176.726 127.258C177.021 126.734 177.436 126.309 177.983 125.981C178.529 125.665 179.185 125.501 179.949 125.501C180.736 125.501 181.414 125.665 181.949 125.992C182.495 126.32 182.9 126.756 183.173 127.29L181.14 127.901C181.009 127.694 180.845 127.53 180.638 127.41C180.43 127.29 180.201 127.236 179.949 127.236C179.665 127.236 179.403 127.312 179.174 127.454C178.944 127.607 178.758 127.803 178.627 128.065C178.496 128.327 178.42 128.621 178.42 128.97C178.42 129.319 178.485 129.625 178.627 129.887C178.758 130.148 178.944 130.356 179.185 130.498C179.425 130.639 179.676 130.716 179.949 130.716C180.135 130.716 180.299 130.683 180.452 130.628C180.605 130.574 180.747 130.498 180.867 130.388C180.998 130.29 181.097 130.17 181.162 130.05L183.184 130.661C183.009 131.021 182.768 131.327 182.462 131.588C182.157 131.85 181.796 132.068 181.381 132.232C180.976 132.417 180.507 132.494 179.971 132.494Z" fill="#FDECE9"/>
<path d="M188.472 127.312C187.969 127.312 187.511 127.389 187.106 127.552C186.702 127.716 186.407 127.945 186.221 128.261V132.363H184.134V125.61H186.035V126.909C186.276 126.45 186.593 126.09 186.964 125.829C187.336 125.567 187.729 125.436 188.133 125.425C188.232 125.425 188.297 125.425 188.341 125.425C188.385 125.425 188.428 125.425 188.472 125.436V127.312Z" fill="#FDECE9"/>
<path d="M189.346 124.76V122.862H191.433V124.76H189.346ZM189.346 132.363V125.523H191.433V132.363H189.346Z" fill="#FDECE9"/>
<path d="M196.973 132.494C196.448 132.494 196 132.385 195.607 132.166C195.224 131.948 194.907 131.643 194.678 131.228V132.363H192.864V122.862H194.951V126.745C195.181 126.352 195.476 126.047 195.858 125.829C196.241 125.61 196.688 125.501 197.213 125.501C197.639 125.501 198.032 125.589 198.393 125.763C198.754 125.938 199.07 126.189 199.333 126.516C199.595 126.843 199.803 127.214 199.955 127.639C200.098 128.065 200.174 128.523 200.174 129.025C200.174 129.505 200.098 129.963 199.934 130.388C199.77 130.814 199.551 131.185 199.267 131.512C198.983 131.828 198.644 132.079 198.262 132.243C197.858 132.406 197.431 132.494 196.973 132.494ZM196.383 130.737C196.623 130.737 196.841 130.694 197.038 130.607C197.235 130.519 197.41 130.399 197.552 130.247C197.705 130.094 197.814 129.919 197.901 129.712C197.989 129.505 198.022 129.287 198.022 129.047C198.022 128.73 197.956 128.425 197.825 128.163C197.694 127.89 197.508 127.672 197.279 127.509C197.049 127.345 196.776 127.258 196.481 127.258C196.262 127.258 196.055 127.312 195.858 127.421C195.661 127.53 195.476 127.661 195.323 127.836C195.17 128.01 195.039 128.207 194.94 128.425V129.832C195.006 129.963 195.093 130.094 195.203 130.203C195.312 130.312 195.421 130.41 195.552 130.497C195.672 130.574 195.814 130.639 195.956 130.683C196.109 130.716 196.251 130.737 196.383 130.737Z" fill="#FDECE9"/>
<path d="M201.212 124.76V122.862H203.299V124.76H201.212ZM201.212 132.363V125.523H203.299V132.363H201.212Z" fill="#FDECE9"/>
<path d="M209.079 127.312C208.576 127.312 208.117 127.389 207.713 127.552C207.309 127.716 207.014 127.945 206.828 128.261V132.363H204.741V125.61H206.642V126.909C206.883 126.45 207.2 126.09 207.571 125.829C207.943 125.567 208.336 125.436 208.74 125.425C208.839 125.425 208.904 125.425 208.948 125.425C208.992 125.425 209.035 125.425 209.079 125.436V127.312Z" fill="#FDECE9"/>
<path d="M212.575 132.494C211.996 132.494 211.428 132.396 210.871 132.199C210.314 132.003 209.844 131.719 209.461 131.348L210.193 130.05C210.598 130.356 211.002 130.585 211.395 130.737C211.789 130.89 212.16 130.967 212.51 130.967C212.772 130.967 212.98 130.934 213.133 130.847C213.286 130.77 213.362 130.639 213.362 130.476C213.362 130.345 213.318 130.247 213.22 130.181C213.133 130.116 212.991 130.05 212.827 129.985C212.652 129.919 212.433 129.854 212.171 129.788C211.647 129.614 211.21 129.439 210.871 129.276C210.521 129.112 210.259 128.916 210.084 128.687C209.909 128.447 209.822 128.141 209.822 127.77C209.822 127.312 209.942 126.92 210.172 126.581C210.412 126.243 210.74 125.981 211.155 125.796C211.581 125.611 212.084 125.512 212.674 125.512C213.144 125.512 213.603 125.589 214.061 125.731C214.509 125.883 214.936 126.134 215.329 126.483L214.509 127.77C214.127 127.498 213.777 127.301 213.471 127.181C213.165 127.061 212.86 126.996 212.575 126.996C212.422 126.996 212.291 127.018 212.171 127.05C212.051 127.083 211.953 127.138 211.876 127.214C211.8 127.29 211.767 127.399 211.767 127.53C211.767 127.65 211.8 127.749 211.876 127.836C211.953 127.912 212.062 127.989 212.226 128.043C212.39 128.098 212.586 128.163 212.816 128.229C213.395 128.403 213.865 128.567 214.247 128.73C214.63 128.894 214.903 129.101 215.099 129.341C215.285 129.592 215.384 129.908 215.384 130.312C215.384 130.988 215.132 131.523 214.63 131.916C214.116 132.297 213.428 132.494 212.575 132.494Z" fill="#FDECE9"/>
<path d="M219.7 132.494C219.121 132.494 218.596 132.406 218.148 132.221C217.7 132.036 217.307 131.785 216.99 131.468C216.673 131.152 216.433 130.781 216.269 130.367C216.105 129.952 216.018 129.516 216.018 129.058C216.018 128.403 216.16 127.814 216.455 127.28C216.75 126.745 217.165 126.32 217.711 125.992C218.257 125.665 218.924 125.501 219.689 125.501C220.465 125.501 221.12 125.665 221.667 125.981C222.213 126.298 222.628 126.734 222.912 127.258C223.196 127.792 223.338 128.359 223.338 128.97C223.338 129.09 223.327 129.21 223.316 129.319C223.305 129.428 223.295 129.538 223.284 129.625H218.225C218.247 129.919 218.323 130.17 218.476 130.367C218.618 130.574 218.815 130.727 219.033 130.825C219.263 130.923 219.492 130.977 219.733 130.977C220.049 130.977 220.355 130.901 220.629 130.759C220.902 130.607 221.087 130.421 221.186 130.17L222.956 130.683C222.781 131.043 222.541 131.348 222.224 131.61C221.907 131.872 221.535 132.09 221.109 132.254C220.705 132.417 220.224 132.494 219.7 132.494ZM218.203 128.349H221.164C221.142 128.076 221.055 127.836 220.913 127.629C220.771 127.421 220.596 127.269 220.388 127.149C220.181 127.04 219.94 126.974 219.656 126.974C219.405 126.974 219.164 127.029 218.946 127.149C218.727 127.258 218.552 127.421 218.421 127.618C218.312 127.825 218.225 128.065 218.203 128.349Z" fill="#FDECE9"/>
<path d="M228.798 141.56L224.22 145.612L237.84 160.95L242.418 156.898L228.798 141.56Z" fill="#FA003C"/>
<path d="M241.257 144.82L228.801 146.173L225.971 158.347L218.836 134.948L241.257 144.82Z" fill="#FA003C"/>
<path d="M215.607 121.806L214.399 122.003L215.425 128.291L216.633 128.094L215.607 121.806Z" fill="#FA003C"/>
<path d="M207.23 127.829L206.796 128.971L212.763 131.228L213.197 130.086L207.23 127.829Z" fill="#FA003C"/>
<path d="M213.241 134.051L208.302 138.085L209.077 139.03L214.016 134.997L213.241 134.051Z" fill="#FA003C"/>
<path d="M217.885 135.795L216.677 135.991L217.702 142.279L218.909 142.083L217.885 135.795Z" fill="#FA003C"/>
<path d="M220.536 132.853L220.103 133.996L226.07 136.252L226.504 135.109L220.536 132.853Z" fill="#FA003C"/>
<path d="M224.234 125.053L219.291 129.081L220.064 130.027L225.008 125.999L224.234 125.053Z" fill="#FA003C"/>
<path d="M107.06 77.1443H96.2315H95.7289H84.9009L86.1793 128.228C86.1793 128.228 88.1897 128.828 95.7726 128.861C95.7726 128.861 96.0895 128.861 96.1769 128.861C96.2643 128.861 96.5812 128.861 96.5812 128.861C103.771 128.828 105.978 128.228 105.978 128.228L107.06 77.1443Z" fill="#FA003C"/>
<path d="M117.789 67.6976C117.789 67.6976 109.933 62.287 105.585 57.0837C106.404 53.124 106.929 50.5278 106.983 50.0369C107.278 47.2443 105.683 49.8842 105.683 49.8842L104.23 56.931C102.088 58.0219 96.1114 60.7708 88.157 61.8834C88.157 61.8834 93.5328 66.8795 101.793 68.7776L90.4187 124.116L91.0088 124.978C91.0088 124.978 98.3294 91.2707 103.061 69.0394C107.376 69.8357 112.392 69.7375 117.789 67.6976Z" fill="#04382B"/>
<path d="M82.4314 59.4836C82.4314 67.2722 76.1269 73.5772 68.3473 73.5772C60.5677 73.5772 54.2632 67.2722 54.2632 59.4836C54.2632 51.695 60.5677 45.3899 68.3473 45.3899C76.1269 45.3899 82.4314 51.695 82.4314 59.4836Z" fill="#FA003C"/>
<path d="M71.4176 51.0186C71.4176 52.7203 68.3364 58.1963 68.3364 58.1963C68.3364 58.1963 65.2551 52.7203 65.2551 51.0186C65.2551 49.3169 66.6319 47.9315 68.3364 47.9315C70.0409 47.9424 71.4176 49.3169 71.4176 51.0186Z" fill="#81928A"/>
<path d="M65.2551 67.9921C65.2551 66.2904 68.3364 60.8143 68.3364 60.8143C68.3364 60.8143 71.4176 66.2904 71.4176 67.9921C71.4176 69.6938 70.0409 71.0792 68.3364 71.0792C66.6428 71.0792 65.2551 69.6938 65.2551 67.9921Z" fill="#81928A"/>
<path d="M76.8154 62.5924C75.1108 62.5924 69.6367 59.5053 69.6367 59.5053C69.6367 59.5053 75.1108 56.4182 76.8154 56.4182C78.5199 56.4182 79.8966 57.8036 79.8966 59.5053C79.9075 61.207 78.5199 62.5924 76.8154 62.5924Z" fill="#81928A"/>
<path d="M59.8576 56.4292C61.5621 56.4292 67.0362 59.5163 67.0362 59.5163C67.0362 59.5163 61.5621 62.6034 59.8576 62.6034C58.1531 62.6034 56.7764 61.2289 56.7764 59.5163C56.7764 57.8037 58.1531 56.4292 59.8576 56.4292Z" fill="#81928A"/>
<path d="M76.5203 55.6875C75.3184 56.8874 69.2651 58.5891 69.2651 58.5891C69.2651 58.5891 70.9587 52.5349 72.1606 51.335C73.3625 50.1351 75.3184 50.1351 76.5203 51.335C77.7222 52.5349 77.7222 54.4875 76.5203 55.6875Z" fill="#81928A"/>
<path d="M60.1636 63.3233C61.3655 62.1233 67.4188 60.4216 67.4188 60.4216C67.4188 60.4216 65.7252 66.4758 64.5233 67.6757C63.3214 68.8757 61.3655 68.8757 60.1636 67.6757C58.9617 66.4867 58.9617 64.5341 60.1636 63.3233Z" fill="#81928A"/>
<path d="M72.1606 67.6867C70.9587 66.4868 69.2651 60.4326 69.2651 60.4326C69.2651 60.4326 75.3184 62.1234 76.5203 63.3343C77.7222 64.5342 77.7222 66.4868 76.5203 67.6976C75.3184 68.8866 73.3625 68.8866 72.1606 67.6867Z" fill="#81928A"/>
<path d="M64.5233 51.324C65.7252 52.524 67.4188 58.5781 67.4188 58.5781C67.4188 58.5781 61.3655 56.8873 60.1636 55.6765C58.9617 54.4766 58.9617 52.524 60.1636 51.3131C61.3655 50.1241 63.3214 50.1241 64.5233 51.324Z" fill="#81928A"/>
<path d="M89.2714 87.9546C91.4458 82.5767 86.0591 60.7599 86.0591 60.7599H77.9845H77.6785H69.6039C69.6039 60.7599 64.2172 82.5876 66.3916 87.9546C68.5659 93.3324 75.7118 98.0885 76.2253 104.186C76.7389 110.284 77.0557 121.345 75.6025 123.931C74.1493 126.516 67.4296 126.21 67.4296 127.967C67.4296 130.367 76.5422 129.821 77.8315 129.734C79.1208 129.821 88.2334 130.367 88.2334 127.967C88.2334 126.21 81.5028 126.516 80.0605 123.941C78.6073 121.356 78.9241 110.295 79.4377 104.197C79.9512 98.0885 87.0971 93.3324 89.2714 87.9546Z" fill="#F1DAAE"/>
<path d="M113.801 111.462H101.192L103.071 130.366C103.071 130.366 103.847 131.588 113.812 131.588C123.777 131.588 124.553 130.366 124.553 130.366L126.432 111.451H113.801V111.462Z" fill="#04382B"/>
<path d="M112.261 123.756C112.61 124.41 112.37 125.229 111.725 125.589L107.606 127.857C106.961 128.207 106.164 127.967 105.814 127.312L103.596 123.101C103.246 122.447 103.487 121.629 104.131 121.269L108.251 119C108.895 118.651 109.693 118.891 110.042 119.545L112.261 123.756Z" fill="white"/>
<path d="M116.096 128.01C115.833 128.708 115.069 129.057 114.38 128.785L110.01 127.072C109.332 126.799 108.983 126.025 109.245 125.327L110.927 120.865C111.19 120.167 111.955 119.818 112.643 120.091L117.013 121.803C117.702 122.076 118.041 122.851 117.778 123.549L116.096 128.01Z" fill="white"/>
<path d="M118.926 128.283C118.226 128.49 117.483 128.076 117.287 127.356L115.987 122.763C115.779 122.043 116.183 121.302 116.893 121.083L121.395 119.753C122.094 119.545 122.837 119.96 123.034 120.68L124.334 125.272C124.542 125.992 124.138 126.745 123.427 126.952L118.926 128.283Z" fill="white"/>
<path d="M68.0196 126.985C63.8894 126.298 62.9607 123.352 62.9607 123.352V111.266C62.9607 104.786 65.0148 102.234 65.0148 102.234L76.127 87.4092H61.6604H47.2048L58.317 102.234C58.317 102.234 60.3711 104.775 60.3711 111.266V123.352C60.3711 123.352 59.4424 126.298 55.3122 126.985C51.2367 127.661 53.8699 128.556 53.8699 128.556C53.8699 128.556 56.536 129.145 61.6604 129.145C66.774 129.145 69.4728 128.556 69.4728 128.556C69.4728 128.556 72.0951 127.661 68.0196 126.985Z" fill="#FA003C"/>
<path d="M58.5791 99.692C58.5791 99.692 59.7264 98.4812 61.5183 96.7467C61.9663 96.3104 62.447 95.8413 62.9715 95.3504C63.4851 94.8596 64.0314 94.336 64.6105 93.8124C65.1786 93.2888 65.7687 92.7324 66.3696 92.187C66.9706 91.6416 67.5934 91.0852 68.2052 90.5289C68.8281 89.9835 69.4509 89.4272 70.0627 88.8927C70.6746 88.3472 71.2865 87.8345 71.8765 87.3218C73.0566 86.3074 74.1601 85.3692 75.1217 84.5838C77.0338 83.0021 78.3668 81.9985 78.3668 81.9985C78.3668 81.9985 77.2195 83.2094 75.4276 84.9438C74.5316 85.8165 73.4827 86.8091 72.3463 87.8782C71.7782 88.4018 71.1882 88.9581 70.5872 89.5035C69.9862 90.049 69.3634 90.6053 68.7516 91.1616C68.1288 91.707 67.506 92.2634 66.8941 92.7979C66.2822 93.3433 65.6703 93.856 65.0803 94.3687C64.4903 94.8814 63.9221 95.3613 63.3758 95.8195C62.8295 96.2777 62.3159 96.714 61.8352 97.1067C59.9121 98.6884 58.5791 99.692 58.5791 99.692Z" fill="#F1DAAE"/>
<path d="M64.0204 93.4523C62.5672 92.4815 60.6004 92.896 59.628 94.3905C58.6555 95.8849 59.0489 97.8921 60.5021 98.8629C61.9553 99.8338 63.9221 99.4192 64.8945 97.9248C65.867 96.4303 65.4845 94.4341 64.0204 93.4523Z" fill="#90B124"/>
<path d="M64.4466 96.1795C64.1079 95.9505 63.5397 96.2341 63.1682 96.7904C62.7967 97.3576 62.7748 97.9903 63.1136 98.2194C63.4523 98.4485 64.0205 98.1649 64.392 97.6085C64.7635 97.0413 64.7853 96.3977 64.4466 96.1795Z" fill="#FA003C"/>
<path d="M19.0803 142.78C21.0143 148.66 22.4893 150.602 26.7943 152.936C22.6423 155.521 21.2874 157.561 19.714 163.539C17.7801 157.659 16.305 155.718 12 153.383C16.152 150.798 17.5069 148.758 19.0803 142.78Z" fill="#FFAD03"/>
<path d="M47.642 144.864C48.7892 148.354 49.6633 149.511 52.2201 150.896C49.7508 152.434 48.9531 153.645 48.0135 157.19C46.8662 153.7 45.9921 152.543 43.4353 151.158C45.8937 149.62 46.7023 148.42 47.642 144.864Z" fill="#FFAD03"/>
<path d="M36.0927 158.521C37.8081 163.757 39.1302 165.481 42.9544 167.553C39.2613 169.855 38.0485 171.666 36.6608 176.989C34.9454 171.753 33.6233 170.029 29.7991 167.957C33.4813 165.666 34.6941 163.855 36.0927 158.521Z" fill="#FFAD03"/>
</g>
<defs>
<clipPath id="clip0_227_1492">
<rect width="232" height="177" fill="white" transform="translate(12)"/>
</clipPath>
</defs>
</svg>
