<?xml version="1.0" encoding="utf-8"?>
<!-- Generator: Adobe Illustrator 25.0.0, SVG Export Plug-In . SVG Version: 6.00 Build 0)  -->
<svg version="1.1" xmlns="http://www.w3.org/2000/svg" xmlns:xlink="http://www.w3.org/1999/xlink" x="0px" y="0px"
	 viewBox="0 0 347 213" style="enable-background:new 0 0 347 213;" xml:space="preserve">
<style type="text/css">
	.st0{fill:#FF3600;}
	.st1{fill:#F1DAAE;}
	.st2{opacity:0.5;fill:#D06546;}
	.st3{fill:#04382B;}
	.st4{fill:#FA003C;}
	.st5{fill:#FDECE9;}
	.st6{fill:#F4E8D2;}
	.st7{fill:#004333;}
	.st8{fill:#FF8E90;}
</style>
<g id="Capa_1">
	<g>
		<path class="st0" d="M246.7,200.6c-1.5,4.3-5.6,7.3-10.4,7.3c-4.8,0-8.8-3-10.4-7.3c-1.5,4.3-5.6,7.3-10.4,7.3
			c-4.8,0-8.9-3-10.4-7.3c-1.5,4.3-5.6,7.3-10.4,7.3c-4.8,0-8.9-3-10.4-7.3c-1.5,4.3-5.6,7.3-10.4,7.3c-4.8,0-8.8-3-10.4-7.3
			c-1.5,4.3-5.6,7.3-10.4,7.3c-4.8,0-8.9-3-10.4-7.3c-1.5,4.3-5.6,7.3-10.4,7.3c-4.8,0-8.9-3-10.4-7.3c-1.5,4.3-5.6,7.3-10.4,7.3
			c-4.8,0-8.9-3-10.4-7.3c-1.5,4.3-5.6,7.3-10.4,7.3c-4.9,0-9.1-3.2-10.5-7.7c-1.9,4.6-6.8,7.5-12,6.7c-5.3-0.9-9.1-5.3-9.3-10.5
			c-3.2,4-8.9,5.4-13.7,2.9c-4.8-2.5-7-7.9-5.5-12.8c-4.3,2.8-10.2,2.3-13.9-1.5c-3.7-3.8-4.1-9.7-1.2-13.9c-5,1.3-10.4-1-12.7-5.8
			c-2.4-4.8-0.9-10.5,3.2-13.6c-5.1-0.3-9.5-4.2-10.3-9.5c-0.7-5.3,2.4-10.2,7.3-11.9c-4.8-1.9-7.8-6.9-6.8-12.2
			c1-5.3,5.5-9,10.6-9.1c-4-3.3-5.2-9-2.6-13.7c2.6-4.7,8-6.8,12.9-5.3C23.5,85.5,24.1,79.7,28,76c3.9-3.7,9.7-4,14-1
			c-1.2-5,1.2-10.3,6-12.6c4.9-2.3,10.5-0.7,13.6,3.4c0.4-5.1,4.4-9.5,9.7-10.1c5.1-0.6,9.9,2.4,11.6,6.9c1.5-4.4,5.6-7.5,10.5-7.5
			c4.8,0,8.9,3,10.4,7.3c1.5-4.2,5.6-7.3,10.4-7.3c4.8,0,8.9,3,10.4,7.3c1.5-4.2,5.6-7.3,10.4-7.3c4.8,0,8.8,3,10.4,7.3
			c1.5-4.2,5.6-7.3,10.4-7.3c4.8,0,8.9,3,10.4,7.3c1.5-4.2,5.6-7.3,10.4-7.3c4.8,0,8.9,3,10.4,7.3c1.5-4.2,5.6-7.3,10.4-7.3
			s8.9,3,10.4,7.3c1.5-4.2,5.6-7.3,10.4-7.3c4.8,0,8.9,3,10.4,7.3c1.5-4.2,5.6-7.3,10.4-7.3c4.8,0,8.8,3,10.4,7.3
			c1.5-4.2,5.6-7.3,10.4-7.3c0.2,0,0.3,0,0.5,0c0.1,0,0.2,0,0.3,0v0c5.2,0.2,9.5,4,10.4,9c2.5-4.4,7.9-6.6,12.9-5
			c5.1,1.6,8.2,6.6,7.7,11.7c3.8-3.5,9.7-4,14-0.8c4.4,3.2,5.7,8.9,3.5,13.6c4.8-2.1,10.5-0.6,13.5,3.9c3,4.4,2.4,10.3-1.2,14
			c5.1-0.4,10,2.8,11.5,7.9c1.5,5.1-0.9,10.4-5.5,12.8c5,1.1,8.7,5.7,8.6,11c-0.1,5.3-4,9.7-9,10.6c4.4,2.6,6.6,8,4.9,13
			c-1.7,5.1-6.7,8.1-11.8,7.5c3.5,3.8,3.8,9.7,0.6,14c-3.2,4.3-9,5.5-13.7,3.2c2,4.8,0.4,10.5-4.1,13.5c-4.5,2.9-10.3,2.2-13.9-1.5
			c0.3,5.1-3,9.9-8.1,11.3c-5.1,1.4-10.3-1-12.7-5.5c-1.1,4.9-5.5,8.6-10.8,8.6C252.3,207.9,248.2,204.9,246.7,200.6z"/>
		<path class="st1" d="M80.5,190C48.3,190,22,163.8,22,131.5s26.2-58.5,58.5-58.5h178.9c18.2,0.7,33.3,7.3,43.8,19.1
			c9.4,10.5,14.5,24.5,14.5,39.4c0,14.9-5.2,28.9-14.5,39.4c-10.5,11.7-25.6,18.3-43.8,19.1H80.5z"/>
		<path class="st2" d="M295,142.7h-4.7V91.5c0-1.3-0.2-2.6-0.5-3.8l-13-51.2c-1.7-6.8-7.8-11.5-14.8-11.5H214
			c-4.6,0-8.4,3.8-8.4,8.4V15c0-2.8-2.3-5.1-5.1-5.1H48.8c-2.8,0-5.1,2.3-5.1,5.1v127.8h-6c-2.1,0-3.8,1.7-3.8,3.8v6.8
			c0,2.1,1.7,3.8,3.8,3.8h23.6c1.3,5.3,4,10.3,8.1,14.4c11.9,11.9,31.2,11.9,43.1,0c4.1-4.1,6.8-9.1,8.1-14.4H223
			c2.6,10.8,11.1,19.8,22.7,22.5c16.3,3.8,32.6-6.2,36.6-22.5H295c2.1,0,3.8-1.7,3.8-3.8v-6.8C298.8,144.4,297.1,142.7,295,142.7z"
			/>
		<path class="st3" d="M50.6,5.4h151.6c2.8,0,5.1,2.3,5.1,5.1v127.8H45.5V10.5C45.5,7.7,47.8,5.4,50.6,5.4z"/>
		<path class="st4" d="M215.8,20.6h48.1c7,0,13.1,4.8,14.8,11.5l13,51.2c0.3,1.2,0.5,2.5,0.5,3.8v56.1h-84.8V29
			C207.4,24.4,211.1,20.6,215.8,20.6z"/>
		<path class="st3" d="M296.8,152.8H39.5c-2.1,0-3.8-1.7-3.8-3.8v-6.8c0-2.1,1.7-3.8,3.8-3.8h257.3c2.1,0,3.8,1.7,3.8,3.8v6.8
			C300.6,151.1,298.9,152.8,296.8,152.8z"/>
		<path class="st3" d="M114.3,167.2c11.9-11.9,11.9-31.3,0-43.2c-11.9-11.9-31.2-11.9-43.1,0c-11.9,11.9-11.9,31.3,0,43.2
			C83.1,179.1,102.4,179.1,114.3,167.2z"/>
		<path class="st5" d="M104.7,157.6c6.6-6.6,6.6-17.4,0-24.1c-6.6-6.6-17.4-6.6-24,0c-6.6,6.6-6.6,17.4,0,24.1
			C87.3,164.2,98.1,164.2,104.7,157.6z"/>
		<path class="st3" d="M284.1,152.5c3.8-16.4-6.3-32.9-22.7-36.8c-16.4-3.9-32.8,6.4-36.6,22.8c-3.8,16.4,6.3,32.9,22.7,36.8
			C263.8,179.2,280.2,169,284.1,152.5z"/>
		<path class="st5" d="M270.9,149.4c2.1-9.2-3.5-18.3-12.6-20.5c-9.1-2.2-18.3,3.5-20.4,12.7c-2.1,9.2,3.5,18.3,12.6,20.5
			C259.6,164.3,268.8,158.6,270.9,149.4z"/>
		<path class="st5" d="M224,78.3h37.3c2.9,0,5.2-2.3,5.2-5.2V35.7c0-2.9-2.3-5.2-5.2-5.2H224c-2.9,0-5.2,2.3-5.2,5.2v37.4
			C218.8,76,221.1,78.3,224,78.3z"/>
		<path class="st5" d="M289.5,90.4c0-1-0.5-2.2-1.2-2.9c-0.2-0.2-0.4-0.4-0.7-0.5c-0.1-0.1-0.2-0.1-0.2-0.2c-0.6-0.4-1.3-0.7-2-0.6
			c-0.9,0-1.6,0.3-2.2,0.9c-1.1,0.7-1.8,1.9-1.8,3.4c0,3.1,0,6.1,0,9.2c0,1.1,0.5,2.2,1.2,2.9c0.7,0.7,1.9,1.3,2.9,1.2
			c2.2-0.1,4.1-1.8,4.1-4.1C289.6,96.5,289.5,93.4,289.5,90.4z"/>
	</g>
</g>
<g id="OBJECTS">
	<g>
		<path class="st2" d="M305,1231.2c-7.8,0-14.4-5.6-15.9-13c-30.5-1-58.9-13.3-80.5-34.9c-25.9-25.9-38.4-61.7-34.2-98.3
			c0.9-7.5,6.8-13.4,14.2-14.2c4.6-0.5,9.2-0.8,13.8-0.8c18.8,0,37,4.3,53.3,12.5c-2.3-8.2-3.6-17.9-3.6-29.5
			c0-3.3,0.1-6.7,0.3-10.2c-2.9,1.9-5.8,3.7-8.7,5.4c-16.3,9.4-30.7,14-43.9,14c-20.4,0-37-10.9-49.4-32.5
			c-14.3-24.8-20.6-60.5,30.7-90.1c2.9-1.7,5.9-3.3,9-4.9c-3.1-1.6-6.2-3.2-9-4.9c-28.3-16.3-56.6-45.2-30.7-90.1
			c12.4-21.6,29.1-32.5,49.4-32.5c13.2,0,27.6,4.6,43.9,14c2.9,1.7,5.8,3.5,8.7,5.4c-0.2-3.5-0.3-6.9-0.3-10.2
			c0-32.7,10.9-71.6,62.7-71.6c28.6,0,62.7,12.4,62.7,71.6c0,3.3-0.1,6.7-0.3,10.2c2.9-1.9,5.8-3.7,8.7-5.4
			c16.3-9.4,30.7-14,43.9-14c20.4,0,37,10.9,49.4,32.5c9.6,16.6,12.4,31.6,8.8,45.9c-4.3,16.9-17.2,31.3-39.5,44.2
			c-2.9,1.7-5.9,3.3-9,4.9c3.1,1.6,6.2,3.2,9,4.9c22.3,12.9,35.2,27.3,39.5,44.2c3.6,14.3,0.8,29.4-8.8,45.9
			c-12.4,21.6-29.1,32.5-49.4,32.5l0,0c-13.2,0-27.6-4.6-43.9-14c-2.9-1.7-5.8-3.5-8.7-5.4c0.2,3.5,0.3,6.9,0.3,10.2
			c0,11.5-1.3,21.3-3.6,29.5c16.3-8.2,34.5-12.5,53.3-12.5c4.6,0,9.2,0.3,13.8,0.8c7.5,0.9,13.4,6.8,14.2,14.2
			c4.2,36.5-8.3,72.4-34.2,98.3c-21.6,21.6-50.1,33.9-80.5,34.9c-1.5,7.4-8,13-15.9,13H305z"/>
		<path class="st6" d="M309.2,1219.3c-7.8,0-14.4-5.6-15.9-13c-30.5-1-58.9-13.3-80.5-34.9c-25.9-25.9-38.4-61.7-34.2-98.3
			c0.9-7.5,6.8-13.4,14.2-14.2c4.6-0.5,9.2-0.8,13.8-0.8c18.8,0,37,4.3,53.3,12.5c-2.3-8.2-3.6-17.9-3.6-29.5
			c0-3.3,0.1-6.7,0.3-10.2c-2.9,1.9-5.8,3.7-8.7,5.4c-16.3,9.4-30.7,14-43.9,14c-20.4,0-37-10.9-49.4-32.5
			c-14.3-24.8-20.6-60.5,30.7-90.1c2.9-1.7,5.9-3.3,9-4.9c-3.1-1.6-6.2-3.2-9-4.9c-28.3-16.3-56.6-45.2-30.7-90.1
			c12.4-21.6,29.1-32.5,49.4-32.5c13.2,0,27.6,4.6,43.9,14c2.9,1.7,5.8,3.5,8.7,5.4c-0.2-3.5-0.3-6.9-0.3-10.2
			c0-32.7,10.9-71.6,62.7-71.6c28.6,0,62.7,12.4,62.7,71.6c0,3.3-0.1,6.7-0.3,10.2c2.9-1.9,5.8-3.7,8.7-5.4
			c16.3-9.4,30.7-14,43.9-14c20.4,0,37,10.9,49.4,32.5c9.6,16.6,12.4,31.6,8.8,45.9c-4.3,16.9-17.2,31.3-39.5,44.2
			c-2.9,1.7-5.9,3.3-9,4.9c3.1,1.6,6.2,3.2,9,4.9c22.3,12.9,35.2,27.3,39.5,44.2c3.6,14.3,0.8,29.4-8.8,45.9
			c-12.4,21.6-29.1,32.5-49.4,32.5l0,0c-13.2,0-27.6-4.6-43.9-14c-2.9-1.7-5.8-3.5-8.7-5.4c0.2,3.5,0.3,6.9,0.3,10.2
			c0,11.5-1.3,21.3-3.6,29.5c16.3-8.2,34.5-12.5,53.3-12.5c4.6,0,9.2,0.3,13.8,0.8c7.5,0.9,13.4,6.8,14.2,14.2
			c4.2,36.5-8.3,72.4-34.2,98.3c-21.6,21.6-50.1,33.9-80.5,34.9c-1.5,7.4-8,13-15.9,13H309.2z"/>
		
			<rect x="309.2" y="913" transform="matrix(-1 -1.224647e-16 1.224647e-16 -1 638.2386 2116.135)" class="st7" width="19.8" height="290.2"/>
		<path class="st8" d="M444.8,941.8c-13.4-7.7-29.8-14.3-46.1-18.9c16.3-4.5,32.7-11.1,46.1-18.9c39.2-22.6,37.6-45.8,24.8-68
			c-12.8-22.2-32.1-35.2-71.3-12.6c-13.4,7.7-27.3,18.6-39.4,30.4c4.2-16.4,6.7-33.9,6.7-49.3c0-45.2-20.8-55.4-46.5-55.4
			c-25.7,0-46.5,10.2-46.5,55.4c0,15.4,2.5,32.9,6.7,49.3c-12.1-11.8-26-22.7-39.4-30.4c-39.2-22.6-58.4-9.7-71.3,12.6
			c-12.8,22.2-14.4,45.4,24.8,68c13.4,7.7,29.8,14.3,46.1,18.9c-16.3,4.5-32.7,11.1-46.1,18.9c-39.2,22.6-37.6,45.8-24.8,68
			c12.8,22.2,32.1,35.2,71.3,12.6c13.4-7.7,27.3-18.6,39.4-30.5c-4.2,16.4-6.7,33.9-6.7,49.3c0,45.2,20.8,55.4,46.5,55.4
			c25.7,0,46.5-10.2,46.5-55.4c0-15.4-2.5-32.9-6.7-49.3c12.1,11.8,26,22.7,39.4,30.5c39.2,22.6,58.4,9.7,71.3-12.6
			C482.4,987.5,484,964.4,444.8,941.8z"/>
		
			<ellipse transform="matrix(0.2063 -0.9785 0.9785 0.2063 -649.7781 1044.7921)" class="st0" cx="319.1" cy="922.9" rx="64.5" ry="64.5"/>
		<g>
			<path d="M319.1,972.2c-27.2,0-49.3-22.1-49.3-49.3h7.3c0,23.2,18.9,42.1,42.1,42.1c23.2,0,42.1-18.9,42.1-42.1h7.3
				C368.4,950.1,346.3,972.2,319.1,972.2z"/>
		</g>
		<g>
			<path class="st6" d="M315,911.9c0,13.7-6.9,24.9-15.4,24.9c-8.5,0-15.4-11.1-15.4-24.9c0-13.7,6.9-24.9,15.4-24.9
				C308.1,887,315,898.2,315,911.9z"/>
			<path d="M294.6,888.5c-6,3.4-10.4,12.5-10.4,23.4c0,10.9,4.4,20.1,10.4,23.4c6-3.4,10.4-12.5,10.4-23.4
				C305,901,300.7,891.8,294.6,888.5z"/>
		</g>
		<g>
			<path class="st6" d="M353.6,911.9c0,13.7-6.9,24.9-15.4,24.9c-8.5,0-15.4-11.1-15.4-24.9c0-13.7,6.9-24.9,15.4-24.9
				C346.7,887,353.6,898.2,353.6,911.9z"/>
			<path d="M333.3,888.5c-6,3.4-10.4,12.5-10.4,23.4c0,10.9,4.4,20.1,10.4,23.4c6-3.4,10.4-12.5,10.4-23.4
				C343.7,901,339.3,891.8,333.3,888.5z"/>
		</g>
		<path class="st7" d="M358.5,1104.6c-23.2,23.2-33,54.7-29.5,85c30.3,3.5,61.8-6.3,85-29.5c23.2-23.2,33-54.7,29.5-85
			C413.2,1071.6,381.7,1081.4,358.5,1104.6z"/>
		<path class="st7" d="M279.7,1104.6c23.2,23.2,33,54.7,29.5,85c-30.3,3.5-61.8-6.3-85-29.5c-23.2-23.2-33-54.7-29.5-85
			C225,1071.6,256.5,1081.4,279.7,1104.6z"/>
	</g>
	<g>
		<path class="st2" d="M747-4.5c-7.8,0-14.4-5.6-15.9-13c-30.5-1-58.9-13.3-80.5-34.9c-25.9-25.9-38.4-61.7-34.2-98.3
			c0.9-7.5,6.8-13.4,14.2-14.2c4.6-0.5,9.2-0.8,13.8-0.8c18.8,0,37,4.3,53.3,12.5c-2.3-8.2-3.6-17.9-3.6-29.5
			c0-3.3,0.1-6.7,0.3-10.2c-2.9,1.9-5.8,3.7-8.7,5.4c-16.3,9.4-30.7,14-43.9,14c-20.4,0-37-10.9-49.4-32.5
			c-14.3-24.8-20.6-60.5,30.7-90.1c2.9-1.7,5.9-3.3,9-4.9c-3.1-1.6-6.2-3.2-9-4.9c-28.3-16.3-56.6-45.2-30.7-90.1
			c12.4-21.6,29.1-32.5,49.4-32.5c13.2,0,27.6,4.6,43.9,14c2.9,1.7,5.8,3.5,8.7,5.4c-0.2-3.5-0.3-6.9-0.3-10.2
			c0-32.7,10.9-71.6,62.7-71.6c28.6,0,62.7,12.4,62.7,71.6c0,3.3-0.1,6.7-0.3,10.2c2.9-1.9,5.8-3.7,8.7-5.4
			c16.3-9.4,30.7-14,43.9-14c20.4,0,37,10.9,49.4,32.5c9.6,16.6,12.4,31.6,8.8,45.9c-4.3,16.9-17.2,31.3-39.5,44.2
			c-2.9,1.7-5.9,3.3-9,4.9c3.1,1.6,6.2,3.2,9,4.9c22.3,12.9,35.2,27.3,39.5,44.2c3.6,14.3,0.8,29.4-8.8,45.9
			c-12.4,21.6-29.1,32.5-49.4,32.5l0,0c-13.2,0-27.6-4.6-43.9-14c-2.9-1.7-5.8-3.5-8.7-5.4c0.2,3.5,0.3,6.9,0.3,10.2
			c0,11.5-1.3,21.3-3.6,29.5c16.3-8.2,34.5-12.5,53.3-12.5c4.6,0,9.2,0.3,13.8,0.8c7.5,0.9,13.4,6.8,14.2,14.2
			c4.2,36.5-8.3,72.4-34.2,98.3c-21.6,21.6-50.1,33.9-80.5,34.9c-1.5,7.4-8,13-15.9,13H747z"/>
		<path class="st6" d="M751.2-16.4c-7.8,0-14.4-5.6-15.9-13c-30.5-1-58.9-13.3-80.5-34.9c-25.9-25.9-38.4-61.7-34.2-98.3
			c0.9-7.5,6.8-13.4,14.2-14.2c4.6-0.5,9.2-0.8,13.8-0.8c18.8,0,37,4.3,53.3,12.5c-2.3-8.2-3.6-17.9-3.6-29.5
			c0-3.3,0.1-6.7,0.3-10.2c-2.9,1.9-5.8,3.7-8.7,5.4c-16.3,9.4-30.7,14-43.9,14c-20.4,0-37-10.9-49.4-32.5
			c-14.3-24.8-20.6-60.5,30.7-90.1c2.9-1.7,5.9-3.3,9-4.9c-3.1-1.6-6.2-3.2-9-4.9c-28.3-16.3-56.6-45.2-30.7-90.1
			c12.4-21.6,29.1-32.5,49.4-32.5c13.2,0,27.6,4.6,43.9,14c2.9,1.7,5.8,3.5,8.7,5.4c-0.2-3.5-0.3-6.9-0.3-10.2
			c0-32.7,10.9-71.6,62.7-71.6c28.6,0,62.7,12.4,62.7,71.6c0,3.3-0.1,6.7-0.3,10.2c2.9-1.9,5.8-3.7,8.7-5.4
			c16.3-9.4,30.7-14,43.9-14c20.4,0,37,10.9,49.4,32.5c9.6,16.6,12.4,31.6,8.8,45.9c-4.3,16.9-17.2,31.3-39.5,44.2
			c-2.9,1.7-5.9,3.3-9,4.9c3.1,1.6,6.2,3.2,9,4.9c22.3,12.9,35.2,27.3,39.5,44.2c3.6,14.3,0.8,29.4-8.8,45.9
			c-12.4,21.6-29.1,32.5-49.4,32.5l0,0c-13.2,0-27.6-4.6-43.9-14c-2.9-1.7-5.8-3.5-8.7-5.4c0.2,3.5,0.3,6.9,0.3,10.2
			c0,11.5-1.3,21.3-3.6,29.5c16.3-8.2,34.5-12.5,53.3-12.5c4.6,0,9.2,0.3,13.8,0.8c7.5,0.9,13.4,6.8,14.2,14.2
			c4.2,36.5-8.3,72.4-34.2,98.3c-21.6,21.6-50.1,33.9-80.5,34.9c-1.5,7.4-8,13-15.9,13H751.2z"/>
		
			<rect x="751.2" y="-322.8" transform="matrix(-1 -1.224647e-16 1.224647e-16 -1 1522.0985 -355.411)" class="st7" width="19.8" height="290.2"/>
		<path class="st8" d="M886.7-294c-13.4-7.7-29.8-14.3-46.1-18.9c16.3-4.5,32.7-11.1,46.1-18.9c39.2-22.6,37.6-45.8,24.8-68
			c-12.8-22.2-32.1-35.2-71.3-12.6c-13.4,7.7-27.3,18.6-39.4,30.4c4.2-16.4,6.7-33.9,6.7-49.3c0-45.2-20.8-55.4-46.5-55.4
			c-25.7,0-46.5,10.2-46.5,55.4c0,15.4,2.5,32.9,6.7,49.3c-12.1-11.8-26-22.7-39.4-30.4c-39.2-22.6-58.4-9.7-71.3,12.6
			c-12.8,22.2-14.4,45.4,24.8,68c13.4,7.7,29.8,14.3,46.1,18.9c-16.3,4.5-32.7,11.1-46.1,18.9c-39.2,22.6-37.6,45.8-24.8,68
			c12.8,22.2,32.1,35.2,71.3,12.6c13.4-7.7,27.3-18.6,39.4-30.5c-4.2,16.4-6.7,33.9-6.7,49.3c0,45.2,20.8,55.4,46.5,55.4
			c25.7,0,46.5-10.2,46.5-55.4c0-15.4-2.5-32.9-6.7-49.3c12.1,11.8,26,22.7,39.4,30.5c39.2,22.6,58.4,9.7,71.3-12.6
			C924.4-248.2,925.9-271.4,886.7-294z"/>
		
			<ellipse transform="matrix(0.2063 -0.9785 0.9785 0.2063 910.1839 496.3626)" class="st0" cx="761" cy="-312.9" rx="64.5" ry="64.5"/>
		<g>
			<path d="M761-263.5c-27.2,0-49.3-22.1-49.3-49.3h7.3c0,23.2,18.9,42.1,42.1,42.1c23.2,0,42.1-18.9,42.1-42.1h7.3
				C810.4-285.7,788.3-263.5,761-263.5z"/>
		</g>
		<g>
			<path class="st6" d="M756.9-323.9c0,13.7-6.9,24.9-15.4,24.9s-15.4-11.1-15.4-24.9c0-13.7,6.9-24.9,15.4-24.9
				S756.9-337.6,756.9-323.9z"/>
			<path d="M736.6-347.3c-6,3.4-10.4,12.5-10.4,23.4c0,10.9,4.4,20.1,10.4,23.4c6-3.4,10.4-12.5,10.4-23.4
				C746.9-334.8,742.6-343.9,736.6-347.3z"/>
		</g>
		<g>
			<path class="st6" d="M795.5-323.9c0,13.7-6.9,24.9-15.4,24.9s-15.4-11.1-15.4-24.9c0-13.7,6.9-24.9,15.4-24.9
				S795.5-337.6,795.5-323.9z"/>
			<path d="M775.2-347.3c-6,3.4-10.4,12.5-10.4,23.4c0,10.9,4.4,20.1,10.4,23.4c6-3.4,10.4-12.5,10.4-23.4
				C785.6-334.8,781.2-343.9,775.2-347.3z"/>
		</g>
		<path class="st7" d="M800.5-131.2c-23.2,23.2-33,54.7-29.5,85c30.3,3.5,61.8-6.3,85-29.5c23.2-23.2,33-54.7,29.5-85
			C855.2-164.2,823.7-154.4,800.5-131.2z"/>
		<path class="st7" d="M721.6-131.2c23.2,23.2,33,54.7,29.5,85c-30.3,3.5-61.8-6.3-85-29.5c-23.2-23.2-33-54.7-29.5-85
			C666.9-164.2,698.4-154.4,721.6-131.2z"/>
	</g>
</g>
</svg>
