<?xml version="1.0" encoding="utf-8"?>
<!-- Generator: Adobe Illustrator 25.0.0, SVG Export Plug-In . SVG Version: 6.00 Build 0)  -->
<svg version="1.1" xmlns="http://www.w3.org/2000/svg" xmlns:xlink="http://www.w3.org/1999/xlink" x="0px" y="0px"
	 viewBox="0 0 1440 320" style="enable-background:new 0 0 1440 320;" xml:space="preserve">
<style type="text/css">
	.st0{display:none;}
	.st1{display:inline;fill:#F7941D;}
	.st2{display:none;fill:#F7941D;}
	.st3{fill:#F7941D;}
</style>
<g id="Capa_1">
	<g id="Capa_1_1_" class="st0">
		<path class="st1" d="M0,160l34.3,10.7C68.6,181,137,203,206,202.7c68.3,0.3,137-21.7,205-48C480,128,549,96,617,112
			c68.7,16,137,80,206,101.3c68.4,21.7,137-0.3,206-16c68.1-16.3,137-26.3,205-26.6c68.9,0.3,137,10.3,172,16l34,5.3v128h-34.3
			c-34.3,0-102.7,0-171.7,0c-68.3,0-137,0-205,0c-69,0-138,0-206,0c-68.7,0-137,0-206,0c-68.4,0-137,0-206,0c-68.1,0-137,0-205,0
			c-68.9,0-137,0-172,0H0V160z"/>
	</g>
	<g id="OBJECTS">
	</g>
	<path class="st2" d="M1466.6,182.5c-29.5,13.4-64.2,1.5-92.6-14.1s-56-35.5-88.2-39c-76.6-8.3-144.3,78.5-218.7,58.6
		c-32-8.6-56.3-35.7-87.9-45.7c-76.2-24.2-151.8,58.1-230.8,45.6c-49.8-7.9-87-51.8-135.7-64.9c-101.4-27.1-201,86.9-302.5,60.4
		c-44.4-11.6-79.6-48.8-124.9-56.3c-46.3-7.6-90.8,17.2-132.4,38.9s-90.8,41.1-134,23c-13.2,61.8-14.4,124.5,3,185.2
		c270.7-22.9,542.7-22.3,814.3-21.8c270.4,0.6,540.9,1.1,811.3,1.7C1527.5,295.4,1495.6,237.5,1466.6,182.5z"/>
	<path class="st3" d="M1600.2-566.8c-153,15.1-304.3-31.2-455.5-58.8c-293.4-53.6-596-37-890.2,11.4
		c-133.6,22-269.3,50.6-403.3,30.8c9.6,65.3,11.9,133.5,21.5,198.8c568.7-66.9,1145-5.4,1716.4-42.1c5.3-0.3,11-0.8,15.2-4.2
		c4.3-3.4,6-9,7.4-14.3C1623.1-486.5,1633.1-539.4,1600.2-566.8z"/>
</g>
<g id="Capa_2">
</g>
<g id="OBJECTS_1_">
	<g>
		<path class="st3" d="M1049.4,604.2c-4.3-11.2,21.5-26.2,11.5-36.8c-9.9-10.4-52.5-13.4-67.9-22.8c-14.9-9.1-6.7-27.5-26.7-35.3
			c-20-7.8-61.5-2.4-84-7.8c-23.3-5.6-34.5-23.7-59.5-26.8c-25.4-3.2-57.3,9.5-83.5,8.8c-26.3-0.7-54.5-14.9-80.5-13
			c-25.9,1.9-42,19.2-66.5,23.5c-24.1,4.3-63.8-3.3-85.6,3.4c-21.1,6.4-18.2,25.1-36.2,33.7c-18,8.7-61.2,9.3-73.8,19.1
			c-13,10.1,8.4,26.4,1.2,37.2c-7.4,11-45.6,19.7-47.2,31.1c-1.6,11.4,34,22,38.3,33.3c4.3,11.2-21.5,26.2-11.5,36.8
			c9.9,10.4,52.5,13.4,67.9,22.8c14.9,9.1,6.7,27.5,26.7,35.3c20,7.8,61.5,2.4,84,7.8c23.3,5.6,34.5,23.7,59.5,26.8
			c25.4,3.2,57.3-9.5,83.5-8.8c26.3,0.7,54.5,14.9,80.5,13c25.9-1.9,42-19.2,66.5-23.5c24.1-4.3,63.8,3.3,85.6-3.4
			c21.1-6.4,18.2-25.1,36.2-33.7c18-8.7,61.2-9.3,73.8-19.1c13-10.1-8.4-26.4-1.2-37.2c7.4-11,45.6-19.7,47.2-31.1
			C1089.3,626.1,1053.7,615.4,1049.4,604.2z M971.1,647.7c-3.5,8.5,15.8,20.1,7.7,28.2c-7.8,7.9-40.5,9.9-52.6,17.1
			c-12.1,7.2-6.4,21.3-21.3,26.9c-15.4,5.8-46.9,1.5-64.5,5.5c-17.8,4.1-26.9,17.9-46.2,20.2c-19.4,2.3-43.5-7.5-63.6-7.1
			c-20,0.4-42,11.1-61.9,9.6c-19.6-1.5-31.4-14.9-50.2-18.3c-18.2-3.4-48.7,2.2-65.3-3c-16.7-5.2-13.9-19.5-26.9-25.9
			c-13.4-6.6-46.4-7.4-55.9-15c-9.6-7.7,7.2-20.1,1.9-28.4c-5.3-8.4-34.4-15.3-35.3-24c-0.9-8.7,26.5-16.6,30.1-25.3
			c3.5-8.5-15.8-20.1-7.7-28.2c7.8-7.9,40.5-9.9,52.6-17.1c12.1-7.2,6.4-21.3,21.3-26.9c15.4-5.8,46.9-1.5,64.5-5.5
			c17.8-4.1,26.9-17.9,46.2-20.2c19.4-2.3,43.5,7.5,63.6,7.1c20-0.4,42-11.1,61.9-9.6c19.6,1.5,31.4,14.9,50.2,18.3
			c18.2,3.4,48.7-2.2,65.3,3c16.7,5.2,13.9,19.5,26.9,25.9c13.4,6.6,46.4,7.4,55.9,15c9.6,7.7-7.2,20.1-1.9,28.4
			c5.3,8.4,34.4,15.3,35.3,24C1002.1,631.1,974.7,639.1,971.1,647.7z"/>
		<path class="st3" d="M884.1,599.9c-5.1-5.6,4.5-14.6-3.4-19.6c-7.8-4.9-30.6-4.4-41-8.6c-10-4-10.5-13.9-22.8-17
			c-12.3-3.1-32.4,1.7-45.5,0c-13.5-1.8-23.9-10.6-37.6-11.1c-14-0.4-27.3,7.6-41,8.5c-13.8,0.9-32-5.1-45-2.9
			c-12.9,2.2-16.9,11.9-28.4,15.4c-11.4,3.4-33.8,1.3-43.4,5.8c-9.3,4.3-3,13.8-10.1,19.2c-7.1,5.3-29.3,7.7-33.3,13.4
			c-4.2,5.8,11.1,13.2,10.1,19.2c-1,6-18.6,12.4-16.5,18.3c2.1,6,23.2,9.8,28.3,15.4c5.1,5.6-4.5,14.6,3.4,19.6
			c7.8,4.9,30.6,4.4,41,8.6c10,4,10.5,13.9,22.8,17c12.3,3.1,32.4-1.7,45.5,0c13.5,1.8,23.9,10.6,37.6,11.1c14,0.4,27.3-7.6,41-8.5
			c13.8-0.9,32,5.1,45,2.9c12.9-2.2,16.9-11.9,28.4-15.4c11.4-3.4,33.8-1.3,43.4-5.8c9.3-4.3,3-13.8,10.1-19.2
			c7.1-5.3,29.3-7.7,33.3-13.4c4.2-5.8-11.1-13.2-10.1-19.2c1-6,18.6-12.4,16.5-18.3C910.3,609.4,889.1,605.5,884.1,599.9z"/>
		<path class="st3" d="M1783.8,627.9c0-33.6-106.9-61.5-123.4-92.9c-17.1-32.5,50.8-77.6,18.2-106.9
			c-33.2-29.8-157.5-34.9-204.7-60.5c-47.4-25.7-31.5-79.2-90.9-99.7c-59.1-20.4-176.2-1.9-245-16.2
			c-67.7-14.1-106.9-65.4-181.9-72.8c-72.6-7.1-159.3,31.5-236.9,31.5s-164.3-38.7-236.9-31.5c-75,7.4-114.3,58.7-181.9,72.8
			c-68.8,14.3-185.9-4.2-245,16.2c-59.4,20.5-43.5,74-90.9,99.7c-47.2,25.6-171.5,30.7-204.7,60.5c-32.7,29.3,35.2,74.5,18.2,106.9
			c-16.5,31.4-123.4,59.4-123.4,92.9c0,33.6,106.9,61.5,123.4,92.9c17.1,32.4-50.8,77.6-18.2,106.9c33.2,29.8,157.5,34.9,204.7,60.5
			c47.4,25.7,31.5,79.2,90.9,99.7c59.1,20.4,176.2,1.9,245,16.2c67.7,14.1,106.9,65.4,181.9,72.8c72.6,7.1,159.3-31.5,236.9-31.5
			s164.3,38.7,236.9,31.5c75-7.4,114.3-58.7,181.9-72.8c68.8-14.4,185.9,4.2,245-16.2c59.4-20.5,43.5-74,90.9-99.7
			c47.2-25.6,171.5-30.7,204.7-60.5c32.7-29.3-35.2-74.5-18.2-106.9C1676.9,689.4,1783.8,661.5,1783.8,627.9z M1092.2,741.5
			c-18.4,11.3-71.6,9.7-96.4,19.3s-26.7,32.7-54.5,39.4c-28.8,7-75.3-4.5-106.2-0.6c-31.4,4-56.4,24.4-88.8,25.2
			c-32.5,0.8-62.9-18.2-95-20.5c-32-2.3-75,11.5-105.3,6.1c-29.8-5.3-38.1-28.1-65.1-36.3c-26.1-8-78.6-3.6-100.9-14.3
			c-22.3-10.7-6.7-32.8-22.3-44.9c-16.1-12.4-67.6-18.4-76.6-31.8c-9.2-13.6,27-30.6,25.1-44.6c-1.9-14.1-42.5-29.1-37.2-43
			c5.3-13.8,54.9-22.4,67.3-35.5c12.2-12.9-9.3-34.1,9.7-45.7c18.4-11.3,71.6-9.7,96.4-19.3c24.7-9.6,26.7-32.7,54.5-39.4
			c28.8-7,75.3,4.5,106.2,0.6c31.4-4,56.4-24.4,88.8-25.2c32.5-0.8,62.9,18.2,95,20.5c32,2.3,75-11.5,105.3-6.1
			c29.8,5.3,38.1,28.1,65.1,36.3c26.1,8,78.6,3.6,100.9,14.3c22.3,10.7,6.7,32.8,22.3,44.9c16.1,12.4,67.6,18.4,76.6,31.8
			c9.2,13.6-27,30.7-25.1,44.6c1.9,14.1,42.5,29.1,37.2,43c-5.3,13.8-54.9,22.4-67.3,35.5C1089.7,708.7,1111.2,729.9,1092.2,741.5z"
			/>
	</g>
</g>
</svg>
