<svg width="37" height="39" viewBox="0 0 37 39" fill="none" xmlns="http://www.w3.org/2000/svg">
<path d="M36 29.0893C35.6515 29.7042 35.4242 30.3959 34.9848 30.8571C33.2576 32.6863 31.4848 34.4695 29.697 36.2526C28.7121 37.2364 27.5455 37.3133 26.3333 36.5139C21.1515 33.0553 16.3939 29.0739 11.8939 24.7545C11.0152 23.909 10.1364 23.0636 9.28788 22.1874C9.01515 21.9107 8.80303 21.7877 8.37879 21.9722C7.54545 22.3411 6.69697 22.1566 6.16667 21.5417C5.57576 20.85 5.51515 20.0968 5.84848 19.2513C5.95455 19.0054 5.86364 18.6518 5.78788 18.3752C5.72727 18.1599 5.56061 17.9755 5.40909 17.8064C4.28788 16.6074 4.0303 15.2086 4.30303 13.6099C4.36364 13.3178 4.19697 12.9028 4.01515 12.6415C3.51515 11.9036 2.92424 11.2273 2.39394 10.5201C1.65152 9.50561 1.60606 8.67553 2.27273 7.61487C3.43939 5.70876 4.95455 4.17158 6.84848 3.00332C7.83333 2.38845 8.75757 2.48068 9.65151 3.18778C9.83333 3.32613 10.0303 3.4491 10.1818 3.61819C11.303 4.74034 12.5455 5.44744 14.2273 5.0324C14.6515 4.9248 15.2121 5.20149 15.6515 5.4167C16.1515 5.66265 16.5909 6.0162 17.0152 6.36975C17.5 6.78479 17.9242 6.93851 18.5606 6.60033C19.2576 6.23141 19.9545 6.49273 20.5 7.01537C21.1061 7.58413 21.3485 8.33735 20.9848 9.10594C20.7273 9.64395 20.9091 9.92065 21.2576 10.2896C26.3788 15.5314 31.1364 21.1113 35.1364 27.2908C35.4697 27.8135 35.6818 28.413 36 29.0893ZM19.9242 10.843C16.5606 14.2401 13.2727 17.5604 9.92424 20.9422C10.3939 21.4034 10.9242 21.9107 11.4394 22.4179C16.2273 27.1217 21.303 31.4873 26.8788 35.2381C27.8333 35.8837 28.197 35.8529 28.9848 35.0536C30.5909 33.4242 32.197 31.7948 33.7879 30.1653C34.6061 29.3353 34.6212 29.0278 33.9848 28.0287C30.9091 23.2941 27.3939 18.9132 23.5909 14.7628C22.3636 13.3947 21.0758 12.0573 19.9242 10.843ZM16.8333 7.90694C16.1364 7.41504 15.5 6.89239 14.803 6.49273C14.1061 6.09306 12.2727 6.49273 11.697 7.06148C9.87879 8.95222 8.0303 10.8122 6.19697 12.6722C6.01515 12.8567 5.81818 13.0411 5.74242 13.2717C5.19697 14.7781 5.83333 16.6843 7.15151 17.7142C10.3485 14.4861 13.5455 11.2426 16.8333 7.90694ZM10.8182 5.86248C10.0758 5.27835 9.34848 4.64811 8.56061 4.12546C8.33333 3.97175 7.84848 4.03323 7.59091 4.17158C5.83333 5.18612 4.43939 6.6157 3.42424 8.39883C3.27273 8.67553 3.18182 9.16743 3.33333 9.398C3.84848 10.2127 4.48485 10.9659 5.06061 11.7345C7 9.75156 8.86364 7.86082 10.8182 5.86248ZM7.59091 20.8808C7.86364 20.6656 8.12121 20.5118 8.33333 20.312C11.8939 16.715 15.4394 13.118 18.9848 9.52098C19.1818 9.32114 19.4545 9.15205 19.5455 8.9061C19.6364 8.64478 19.5758 8.32197 19.5758 8.01454C19.303 8.01454 19.0152 7.99917 18.7576 8.04528C18.6364 8.07603 18.5303 8.24512 18.4242 8.35272C15.6667 11.135 12.9091 13.9173 10.1667 16.6996C9.19697 17.6834 8.22727 18.6365 7.30303 19.651C7.13636 19.8355 7.10606 20.2044 7.12121 20.4657C7.12121 20.6041 7.37879 20.7117 7.59091 20.8808Z" fill="#FA003C"/>
<path d="M35.5455 12.0727C34.2879 10.0897 32.8939 8.26049 31.1061 6.75405C27.7879 3.97175 23.9848 2.57291 19.697 2.55754C19.5909 2.55754 19.5 2.55754 19.3939 2.55754C18.8333 2.58828 18.3939 2.37308 18.3939 1.78895C18.3939 1.14333 18.9091 0.928124 19.4697 1.02035C21.0303 1.2663 22.6364 1.40465 24.1364 1.86581C29.2273 3.4491 32.9545 6.75405 35.3485 11.5962C35.4242 11.7345 35.4848 11.9036 35.5455 12.0727Z" fill="#FA003C"/>
<path d="M1 21.0499C1.65152 26.3993 3.92424 30.811 8.19697 34.0544C9.33333 34.9152 10.6667 35.5147 11.9242 36.2372C12.0606 36.3141 12.197 36.3602 12.3485 36.4217C12.8636 36.6369 13.1515 37.0058 12.8636 37.5592C12.6061 38.0665 12.1667 38.0665 11.697 37.8359C9.19697 36.6369 7.06061 34.9767 5.28788 32.8093C2.65152 29.5966 1.21212 25.9074 1 21.7262C1 21.4956 1 21.2804 1 21.0499Z" fill="#FA003C"/>
<path d="M19.3485 35.6531C13.0606 35.5762 8.36364 32.7324 5.39394 27.0602C5.06061 26.4146 5.16667 25.8459 5.63636 25.6921C6.30303 25.4769 6.56061 25.892 6.80303 26.4454C9.06061 31.7025 13 34.7462 18.6212 35.5147C18.8485 35.5455 19.1061 35.607 19.3485 35.6531Z" fill="#FA003C"/>
<path d="M26.3485 7.16909C29.1818 8.50644 31.3788 10.5048 32.9848 13.1641C34.303 15.3623 35.0151 17.7757 35.197 20.3427C35.2424 20.9269 35.0758 21.4188 34.4394 21.4341C33.7879 21.4495 33.6364 20.9576 33.6364 20.3735C33.7121 16.3922 32.4091 12.9335 29.7121 10.0744C28.7121 9.01371 27.5 8.15288 26.3485 7.16909Z" fill="#FA003C"/>
<path d="M36 29.0893C35.6515 29.7042 35.4242 30.3959 34.9848 30.8571C33.2576 32.6863 31.4848 34.4695 29.697 36.2526C28.7121 37.2364 27.5455 37.3133 26.3333 36.5139C21.1515 33.0553 16.3939 29.0739 11.8939 24.7545C11.0152 23.909 10.1364 23.0636 9.28788 22.1874C9.01515 21.9107 8.80303 21.7877 8.37879 21.9722C7.54545 22.3411 6.69697 22.1566 6.16667 21.5417C5.57576 20.85 5.51515 20.0968 5.84848 19.2513C5.95455 19.0054 5.86364 18.6518 5.78788 18.3752C5.72727 18.1599 5.56061 17.9755 5.40909 17.8064C4.28788 16.6074 4.0303 15.2086 4.30303 13.6099C4.36364 13.3178 4.19697 12.9028 4.01515 12.6415C3.51515 11.9036 2.92424 11.2273 2.39394 10.5201C1.65152 9.50561 1.60606 8.67553 2.27273 7.61487C3.43939 5.70876 4.95455 4.17158 6.84848 3.00332C7.83333 2.38845 8.75757 2.48068 9.65151 3.18778C9.83333 3.32613 10.0303 3.4491 10.1818 3.61819C11.303 4.74034 12.5455 5.44744 14.2273 5.0324C14.6515 4.9248 15.2121 5.20149 15.6515 5.4167C16.1515 5.66265 16.5909 6.0162 17.0152 6.36975C17.5 6.78479 17.9242 6.93851 18.5606 6.60033C19.2576 6.23141 19.9545 6.49273 20.5 7.01537C21.1061 7.58413 21.3485 8.33735 20.9848 9.10594C20.7273 9.64395 20.9091 9.92065 21.2576 10.2896C26.3788 15.5314 31.1364 21.1113 35.1364 27.2908C35.4697 27.8135 35.6818 28.413 36 29.0893ZM19.9242 10.843C16.5606 14.2401 13.2727 17.5604 9.92424 20.9422C10.3939 21.4034 10.9242 21.9107 11.4394 22.4179C16.2273 27.1217 21.303 31.4873 26.8788 35.2381C27.8333 35.8837 28.197 35.8529 28.9848 35.0536C30.5909 33.4242 32.197 31.7948 33.7879 30.1653C34.6061 29.3353 34.6212 29.0278 33.9848 28.0287C30.9091 23.2941 27.3939 18.9132 23.5909 14.7628C22.3636 13.3947 21.0758 12.0573 19.9242 10.843ZM16.8333 7.90694C16.1364 7.41504 15.5 6.89239 14.803 6.49273C14.1061 6.09306 12.2727 6.49273 11.697 7.06148C9.87879 8.95222 8.0303 10.8122 6.19697 12.6722C6.01515 12.8567 5.81818 13.0411 5.74242 13.2717C5.19697 14.7781 5.83333 16.6843 7.15151 17.7142C10.3485 14.4861 13.5455 11.2426 16.8333 7.90694ZM10.8182 5.86248C10.0758 5.27835 9.34848 4.64811 8.56061 4.12546C8.33333 3.97175 7.84848 4.03323 7.59091 4.17158C5.83333 5.18612 4.43939 6.6157 3.42424 8.39883C3.27273 8.67553 3.18182 9.16743 3.33333 9.398C3.84848 10.2127 4.48485 10.9659 5.06061 11.7345C7 9.75156 8.86364 7.86082 10.8182 5.86248ZM7.59091 20.8808C7.86364 20.6656 8.12121 20.5118 8.33333 20.312C11.8939 16.715 15.4394 13.118 18.9848 9.52098C19.1818 9.32114 19.4545 9.15205 19.5455 8.9061C19.6364 8.64478 19.5758 8.32197 19.5758 8.01454C19.303 8.01454 19.0152 7.99917 18.7576 8.04528C18.6364 8.07603 18.5303 8.24512 18.4242 8.35272C15.6667 11.135 12.9091 13.9173 10.1667 16.6996C9.19697 17.6834 8.22727 18.6365 7.30303 19.651C7.13636 19.8355 7.10606 20.2044 7.12121 20.4657C7.12121 20.6041 7.37879 20.7117 7.59091 20.8808Z" stroke="#FA003C" stroke-width="0.5"/>
<path d="M35.5455 12.0727C34.2879 10.0897 32.8939 8.26049 31.1061 6.75405C27.7879 3.97175 23.9848 2.57291 19.697 2.55754C19.5909 2.55754 19.5 2.55754 19.3939 2.55754C18.8333 2.58828 18.3939 2.37308 18.3939 1.78895C18.3939 1.14333 18.9091 0.928124 19.4697 1.02035C21.0303 1.2663 22.6364 1.40465 24.1364 1.86581C29.2273 3.4491 32.9545 6.75405 35.3485 11.5962C35.4242 11.7345 35.4848 11.9036 35.5455 12.0727Z" stroke="#FA003C" stroke-width="0.5"/>
<path d="M1 21.0499C1.65152 26.3993 3.92424 30.811 8.19697 34.0544C9.33333 34.9152 10.6667 35.5147 11.9242 36.2372C12.0606 36.3141 12.197 36.3602 12.3485 36.4217C12.8636 36.6369 13.1515 37.0058 12.8636 37.5592C12.6061 38.0665 12.1667 38.0665 11.697 37.8359C9.19697 36.6369 7.06061 34.9767 5.28788 32.8093C2.65152 29.5966 1.21212 25.9074 1 21.7262C1 21.4956 1 21.2804 1 21.0499Z" stroke="#FA003C" stroke-width="0.5"/>
<path d="M19.3485 35.6531C13.0606 35.5762 8.36364 32.7324 5.39394 27.0602C5.06061 26.4146 5.16667 25.8459 5.63636 25.6921C6.30303 25.4769 6.56061 25.892 6.80303 26.4454C9.06061 31.7025 13 34.7462 18.6212 35.5147C18.8485 35.5455 19.1061 35.607 19.3485 35.6531Z" stroke="#FA003C" stroke-width="0.5"/>
<path d="M26.3485 7.16909C29.1818 8.50644 31.3788 10.5048 32.9848 13.1641C34.303 15.3623 35.0151 17.7757 35.197 20.3427C35.2424 20.9269 35.0758 21.4188 34.4394 21.4341C33.7879 21.4495 33.6364 20.9576 33.6364 20.3735C33.7121 16.3922 32.4091 12.9335 29.7121 10.0744C28.7121 9.01371 27.5 8.15288 26.3485 7.16909Z" stroke="#FA003C" stroke-width="0.5"/>
</svg>
